<svg width="64" height="65" viewBox="0 0 64 65" fill="none" xmlns="http://www.w3.org/2000/svg">
<g clip-path="url(#clip0_90_466)">
<mask id="mask0_90_466" style="mask-type:luminance" maskUnits="userSpaceOnUse" x="0" y="0" width="64" height="65">
<path d="M64 0.523438H0V64.5234H64V0.523438Z" fill="white"/>
</mask>
<g mask="url(#mask0_90_466)">
<mask id="mask1_90_466" style="mask-type:luminance" maskUnits="userSpaceOnUse" x="6" y="13" width="50" height="34">
<path d="M6.63672 13.3823H55.5849V46.2712H6.63672V13.3823Z" fill="white"/>
</mask>
<g mask="url(#mask1_90_466)">
<path d="M21.1059 45.6919C20.0914 45.637 19.1205 45.541 18.1921 45.4034C13.6323 44.7276 10.253 43.026 8.41958 40.4827C7.21632 38.8135 6.68988 36.8341 6.85508 34.5994C7.01994 32.37 7.8659 29.9818 9.36949 27.5008C9.66942 27.0059 9.98306 26.4756 10.3152 25.9142C11.7239 23.5326 13.4772 20.5686 15.4738 18.1946C17.8093 15.4176 20.0334 13.9542 22.2733 13.7206C23.4142 13.6017 24.5698 13.8125 25.7082 14.3473C26.9392 14.9256 28.1883 15.9005 29.4206 17.2449C36.7291 25.2182 43.2734 25.5264 48.0508 25.7511C50.7919 25.88 52.9563 25.9821 54.2529 27.5551C55.5557 29.1355 55.8949 30.994 55.2339 32.9298C54.4925 35.101 52.5438 37.2415 49.5985 39.1199C46.3958 41.1624 42.0555 42.8432 37.0467 43.9805C30.9594 45.3626 25.6132 45.9356 21.1059 45.6919ZM9.40317 27.5211C6.37578 32.5164 6.03781 37.1114 8.45151 40.4597C12.3779 45.9064 22.7972 47.1756 37.0379 43.9421C42.0423 42.8058 46.3784 41.1268 49.5773 39.0867C52.515 37.2132 54.4582 35.0798 55.1967 32.9171C55.8531 30.9949 55.5162 29.1494 54.2225 27.5801C52.9368 26.0205 50.7791 25.9189 48.049 25.7904C43.2636 25.5653 36.711 25.2567 29.3916 17.2715C27.0302 14.6953 24.6367 13.5136 22.2774 13.7598C17.2398 14.285 13.2571 21.018 10.3491 25.9342C10.0169 26.4957 9.70316 27.0261 9.40317 27.5211Z" fill="#4D68F7"/>
<path d="M51.1678 24.7382C50.5122 24.7028 49.561 24.4505 48.4063 24.1441C48.0115 24.0394 47.6033 23.9311 47.1719 23.822C45.56 23.4145 44.7301 22.5442 44.3178 21.8858C43.8706 21.1718 43.8045 20.5451 43.8038 20.5388L43.8035 20.536L43.8041 20.5331C43.9381 19.8546 44.3996 19.509 45.1759 19.506C46.2058 19.5022 47.7923 20.1342 49.4198 21.1971C50.9147 22.1733 52.0003 23.2246 52.1212 23.8131C52.1924 24.1591 52.1491 24.4009 51.9888 24.5524C51.8251 24.7071 51.5454 24.7586 51.1678 24.7382ZM43.8433 20.5378C43.8486 20.5839 43.9247 21.1846 44.3522 21.8666C44.7607 22.5182 45.5833 23.3799 47.1815 23.7839C47.6132 23.893 48.0215 24.0013 48.4163 24.1061C50.2239 24.5856 51.5297 24.932 51.9617 24.5238C52.1113 24.3824 52.1508 24.1526 52.0827 23.821C51.9656 23.2513 50.8617 22.1858 49.3983 21.2301C47.7769 20.1712 46.1984 19.5414 45.176 19.5454C44.4222 19.5483 43.9739 19.8822 43.8433 20.5378Z" fill="#4D68F7"/>
</g>
<mask id="mask2_90_466" style="mask-type:luminance" maskUnits="userSpaceOnUse" x="10" y="35" width="32" height="17">
<path d="M10.252 35.4268H41.4223V51.9008H10.252V35.4268Z" fill="white"/>
</mask>
<g mask="url(#mask2_90_466)">
<path d="M19.6846 47.1759C19.6846 47.1759 21.2189 42.1473 20.0639 41.5045C18.9089 40.8616 18.7122 40.2753 19.1801 39.6486C19.6481 39.022 19.8036 38.5524 19.0987 38.1236C18.3938 37.6949 18.5878 36.9123 18.4299 36.2087C18.272 35.5051 17.598 35.3194 17.1983 36.3873C16.6344 37.8941 17.5534 37.8726 16.9887 38.9884C15.9372 41.0659 18.3008 39.9438 17.2883 42.0186C16.9851 42.6399 17.4677 43.6412 18.0543 43.64C19.6124 43.6368 19.6846 47.1759 19.6846 47.1759Z" fill="#ADCCFA"/>
<path d="M19.6625 47.3372L19.6592 47.1765C19.6585 47.1413 19.5697 43.6625 18.0545 43.6657C17.8129 43.6662 17.5724 43.5038 17.3948 43.2201C17.1931 42.898 17.0748 42.398 17.2655 42.0074C17.7608 40.9923 17.4455 40.7664 17.1118 40.5273C16.776 40.2868 16.4289 40.038 16.966 38.9768C17.2357 38.4439 17.1622 38.1776 17.077 37.8692C16.9853 37.5374 16.8815 37.1613 17.1745 36.3784C17.365 35.8695 17.6413 35.5888 17.9315 35.6091C18.1723 35.6256 18.3778 35.8589 18.4551 36.2032C18.4995 36.4009 18.5164 36.6056 18.5328 36.8037C18.575 37.3157 18.615 37.7992 19.1123 38.1017C19.3958 38.2741 19.5535 38.4609 19.5945 38.6727C19.6575 38.9974 19.4309 39.356 19.2009 39.6641C19.0057 39.9254 18.9355 40.1678 18.9862 40.4051C19.0631 40.7642 19.4197 41.1164 20.0766 41.482C21.2364 42.1276 19.7723 46.9773 19.7094 47.1834L19.6625 47.3372ZM17.8836 35.6598C17.6333 35.6725 17.3943 35.9373 17.2226 36.3963C16.9354 37.1638 17.0369 37.5313 17.1265 37.8556C17.2144 38.1742 17.2905 38.4495 17.0118 39C16.4946 40.0219 16.8089 40.2471 17.1417 40.4856C17.4781 40.7266 17.8259 40.9758 17.3115 42.0299C17.1295 42.4028 17.244 42.8827 17.4383 43.1929C17.6063 43.4612 17.8309 43.6148 18.0544 43.6143C19.4477 43.6115 19.6703 46.3197 19.7046 47.0177C19.9471 46.1766 21.064 42.0904 20.0516 41.5269C19.381 41.1537 19.0162 40.7903 18.936 40.4159C18.882 40.1632 18.9552 39.9073 19.1598 39.6333C19.4762 39.2095 19.5912 38.9251 19.5442 38.6824C19.506 38.4857 19.356 38.3101 19.0855 38.1456C18.5659 37.8295 18.5249 37.3333 18.4816 36.808C18.4654 36.6117 18.4486 36.4086 18.4051 36.2144C18.3329 35.8928 18.1456 35.6752 17.928 35.6602C17.9132 35.6593 17.8984 35.6591 17.8836 35.6598Z" fill="#795DE0"/>
<path d="M19.367 43.8809C19.3563 43.8815 19.346 43.8753 19.3417 43.8647C18.8659 42.6814 17.8588 38.4186 17.8486 38.3757C17.8454 38.3618 17.854 38.3479 17.8679 38.3446C17.8819 38.3412 17.8957 38.3499 17.899 38.3638C17.9091 38.4066 18.9153 42.6657 19.3897 43.8455C19.395 43.8588 19.3885 43.8737 19.3753 43.879C19.3726 43.8802 19.3698 43.8808 19.367 43.8809Z" fill="#795DE0"/>
<path d="M18.9651 42.6387C18.9591 42.639 18.9531 42.6372 18.9479 42.6333L17.8346 41.7744C17.8233 41.7657 17.8212 41.7495 17.8299 41.7382C17.8386 41.7269 17.8549 41.7249 17.8662 41.7335L18.9796 42.5924C18.9909 42.6011 18.993 42.6173 18.9842 42.6286C18.9795 42.6349 18.9723 42.6383 18.9651 42.6387Z" fill="#795DE0"/>
<path d="M38.873 50.4605C38.445 50.4605 38.0414 50.533 37.685 50.6608C37.1918 49.3292 35.948 48.3624 34.4673 48.2729C33.9787 46.7331 32.7236 45.535 31.1503 45.1257C30.5012 42.929 28.2582 41.3091 25.5908 41.3091C22.6914 41.3091 20.2939 43.2227 19.8991 45.7107C18.3003 46.3709 17.1289 47.8559 16.9163 49.6362C16.6958 49.5812 16.4651 49.5516 16.2276 49.5516C14.8267 49.5516 13.6637 50.5665 13.4316 51.901H25.7626H26.3394H41.422C41.1711 51.0779 40.1254 50.4605 38.873 50.4605Z" fill="#ADCCFA"/>
<path d="M10.292 51.901C10.4786 50.828 11.4138 50.0118 12.5403 50.0118C12.7313 50.0118 12.9168 50.0356 13.0941 50.0798C13.3264 48.135 14.9805 46.627 16.9878 46.627C19.1543 46.627 20.9105 48.3833 20.9105 50.5497C20.9105 51.0246 20.8262 51.4798 20.6715 51.901H10.292Z" fill="#ADCCFA"/>
<path d="M20.406 48.5936C20.406 48.5936 17.9988 41.1049 16.7018 41.2175C15.4047 41.33 17.6713 42.4746 17.1307 43.4699C16.5901 44.4653 17.0873 45.0147 17.5267 45.1837C18.2794 45.4732 16.968 46.4326 18.188 46.9177C19.2635 47.3454 20.406 48.5936 20.406 48.5936Z" fill="#ADCCFA"/>
</g>
<mask id="mask3_90_466" style="mask-type:luminance" maskUnits="userSpaceOnUse" x="40" y="36" width="15" height="16">
<path d="M40.4141 36.4346H54.8733V51.9605H40.4141V36.4346Z" fill="white"/>
</mask>
<g mask="url(#mask3_90_466)">
<path d="M54.8705 51.9016C54.6173 50.4454 53.3482 49.3379 51.8196 49.3379C51.5604 49.3379 51.3088 49.3702 51.0681 49.4302C50.7528 46.7911 48.5082 44.7446 45.7841 44.7446C42.8442 44.7446 40.4609 47.1279 40.4609 50.0679C40.4609 50.7123 40.5755 51.3299 40.7853 51.9016H54.8705Z" fill="#ADCCFA"/>
<path d="M46.2759 48.3607C46.2759 48.3607 50.2314 44.3429 49.4528 43.1582C48.6741 41.9736 48.7782 41.3187 49.5342 40.9554C50.2903 40.5921 50.6713 40.223 50.2142 39.4654C49.7572 38.7079 50.3301 38.0603 50.5294 37.3131C50.7288 36.5659 50.1803 36.0548 49.2702 36.8713C47.9858 38.0236 48.87 38.4594 47.7792 39.2395C45.748 40.6921 48.5519 40.7993 46.5592 42.2686C45.9625 42.7086 45.9239 43.9 46.4821 44.1902C47.9647 44.9608 46.2759 48.3607 46.2759 48.3607Z" fill="#ADCCFA"/>
<path d="M47.6226 45.0759C47.6211 45.0759 47.6195 45.0759 47.618 45.0757C47.6014 45.0741 47.5892 45.0592 47.5909 45.0426C47.7263 43.6813 48.8859 39.1291 48.8976 39.0833C48.9017 39.0671 48.9181 39.0571 48.9345 39.0614C48.9508 39.0655 48.9606 39.0821 48.9564 39.0983C48.9448 39.1441 47.7862 43.6918 47.6512 45.0485C47.6497 45.0637 47.6374 45.0751 47.6226 45.0759Z" fill="#795DE0"/>
<path d="M47.8575 43.6954C47.8455 43.696 47.8337 43.6895 47.8284 43.6779L47.1967 42.3086C47.1897 42.2934 47.1962 42.2754 47.2115 42.2684C47.2267 42.2612 47.2447 42.2679 47.2517 42.2832L47.8834 43.6525C47.8904 43.6677 47.8839 43.6857 47.8686 43.6927C47.865 43.6943 47.8612 43.6952 47.8575 43.6954Z" fill="#795DE0"/>
<path d="M46.9647 48.3344L47.0033 48.2316C47.1156 47.9325 49.7652 40.9087 51.0422 41.1273C51.2779 41.1677 51.4047 41.2344 51.4409 41.3375C51.4987 41.5015 51.311 41.7135 51.0733 41.9818C50.726 42.3741 50.2938 42.8621 50.5252 43.3624C50.7431 43.8334 50.7798 44.2371 50.6343 44.5619C50.5235 44.8091 50.3049 44.9981 50.0346 45.0803C49.7243 45.1746 49.7729 45.4112 49.8343 45.7107C49.9101 46.0799 50.0042 46.5395 49.2976 46.7635C48.2373 47.0995 47.0551 48.2461 47.0433 48.2577L46.9647 48.3344ZM50.9616 41.1715C49.7796 41.2329 47.4147 47.2941 47.0869 48.1495C47.369 47.8887 48.3692 47.0064 49.2828 46.7168C49.9475 46.5061 49.8656 46.1068 49.7864 45.7205C49.7253 45.4224 49.6676 45.1408 50.0203 45.0335C50.1418 44.9965 50.4406 44.8746 50.5896 44.5419C50.7291 44.2306 50.6925 43.8406 50.4808 43.3829C50.236 42.8537 50.68 42.3523 51.0367 41.9494C51.2548 41.7033 51.443 41.4907 51.3948 41.3537C51.3655 41.2703 51.2474 41.212 51.0339 41.1755C51.0104 41.1715 50.9862 41.1702 50.9616 41.1715Z" fill="#795DE0"/>
</g>
<mask id="mask4_90_466" style="mask-type:luminance" maskUnits="userSpaceOnUse" x="9" y="11" width="44" height="43">
<path d="M9.30371 11.3677H52.3259V53.264H9.30371V11.3677Z" fill="white"/>
</mask>
<g mask="url(#mask4_90_466)">
<path d="M38.0228 27.7065C38.0228 27.7065 34.6864 21.8801 35.5972 21.1775C36.6313 20.3799 38.2013 23.5878 38.7637 24.8772C39.8417 27.349 38.0228 27.7065 38.0228 27.7065Z" fill="#FFB925"/>
<path d="M37.4287 25.7082C37.421 25.7076 37.4136 25.7039 37.4087 25.6971C37.2961 25.541 34.6601 21.8667 35.5811 21.1563C35.5927 21.1472 35.6097 21.1494 35.6189 21.1612C35.628 21.173 35.6258 21.1899 35.614 21.199C34.734 21.8777 37.4251 25.6277 37.4524 25.6656C37.4611 25.6777 37.4584 25.6945 37.4463 25.7032C37.441 25.707 37.4348 25.7086 37.4287 25.7082Z" fill="#795DE0"/>
<path d="M36.5063 49.7163L36.4014 48.0894L38.9724 48.4289L39.0695 49.9813L38.2957 50.4614L36.5063 49.7163Z" fill="white"/>
<path d="M38.2982 50.4818L38.2896 50.4782L36.4899 49.7288L36.4892 49.7176L36.3828 48.0688L36.4046 48.0718L38.9903 48.4133L39.0889 49.9911L38.2982 50.4818ZM36.5244 49.7041L38.2949 50.4414L39.0517 49.9718L38.9561 48.4451L36.4216 48.1103L36.5244 49.7041Z" fill="#4D68F7"/>
<path d="M36.4987 49.4478C36.4987 49.4478 36.453 49.5778 36.1993 50.4106C35.9457 51.2434 35.9801 51.9009 35.9801 51.9009H41.941C41.941 51.9009 42.0934 51.1996 41.7981 51.1557C41.7203 51.1442 41.608 51.1265 41.4848 51.1068C40.973 51.025 40.4844 50.8352 40.0513 50.5506C39.609 50.26 39.1359 49.8846 39.0482 49.797C39.0119 49.7606 38.8946 49.8957 38.7644 49.9639C38.5843 50.0582 38.3804 50.0962 38.1787 50.0716C37.6629 50.0089 37.2 50.149 36.4987 49.4478Z" fill="#FF5822"/>
<path d="M35.9882 51.5503C35.9732 51.7696 35.9801 51.901 35.9801 51.901H41.941C41.941 51.901 41.9783 51.7291 41.9802 51.5503H35.9882Z" fill="#795DE0"/>
<path d="M38.7187 50.6745C38.7088 50.6745 38.6993 50.6697 38.6934 50.6616C38.6868 50.6526 38.6857 50.6403 38.6904 50.6301C38.7042 50.6 39.1774 50.2236 39.596 50.1907C39.6113 50.1881 39.628 50.2021 39.6294 50.2192C39.6307 50.2364 39.618 50.2513 39.6009 50.2527C39.2169 50.2829 38.7872 50.6192 38.7446 50.6607C38.7397 50.668 38.7318 50.6731 38.7225 50.6742C38.7212 50.6744 38.7199 50.6745 38.7187 50.6745Z" fill="#795DE0"/>
<path d="M39.0156 50.8634C39.0057 50.8634 38.9962 50.8586 38.9903 50.8505C38.9837 50.8415 38.9825 50.8292 38.9873 50.819C39.0011 50.789 39.4743 50.4125 39.8929 50.3796C39.9085 50.3773 39.9249 50.391 39.9262 50.4082C39.9276 50.4253 39.9149 50.4402 39.8977 50.4416C39.5137 50.4718 39.0841 50.808 39.0414 50.8496C39.0366 50.8568 39.0287 50.8621 39.0193 50.8631C39.0181 50.8633 39.0168 50.8634 39.0156 50.8634Z" fill="#795DE0"/>
<path d="M39.2509 51.0661C39.2411 51.0661 39.2315 51.0613 39.2256 51.0532C39.219 51.0441 39.2179 51.0319 39.2226 51.0217C39.2364 50.9916 39.7096 50.6152 40.1282 50.5823C40.1441 50.5798 40.1602 50.5937 40.1616 50.6108C40.1629 50.628 40.1502 50.6429 40.1331 50.6443C39.7491 50.6745 39.3195 51.0108 39.2768 51.0523C39.2719 51.0595 39.264 51.0648 39.2547 51.0658C39.2534 51.066 39.2522 51.0661 39.2509 51.0661Z" fill="#795DE0"/>
<path d="M32.5068 28.8574C32.5068 28.8574 31.4098 31.082 31.7351 31.7327C32.0604 32.3834 32.7112 33.6306 32.7112 33.6306C32.7112 33.6306 33.9238 39.2473 34.5376 41.1566C35.1514 43.066 36.1621 48.8993 36.199 49.1819C36.2359 49.4646 39.231 49.1819 39.231 49.1819C39.231 49.1819 38.8907 47.4536 38.5665 45.8292C38.2422 44.2047 37.8765 39.914 37.6527 38.9685C37.4289 38.0229 36.3617 30.1647 36.3617 30.1647L32.5068 28.8574Z" fill="#0F33FD"/>
<path d="M35.6309 32.719C35.6274 32.719 35.6239 32.7186 35.6204 32.7177C33.9354 32.2979 34.0175 30.7369 34.0185 30.7212C34.02 30.6976 34.0393 30.6794 34.064 30.6813C34.0876 30.6828 34.1055 30.7032 34.104 30.7268C34.1 30.7881 34.0268 32.2323 35.6412 32.6346C35.6642 32.6403 35.6781 32.6635 35.6723 32.6865C35.6675 32.706 35.65 32.719 35.6309 32.719Z" fill="#795DE0"/>
<path d="M36.0458 32.6171C36.0254 32.6171 36.0072 32.6025 36.0036 32.5817L35.944 32.2442C35.9399 32.2208 35.9554 32.1986 35.9787 32.1945C36.0024 32.1903 36.0243 32.206 36.0284 32.2293L36.088 32.5667C36.0921 32.5901 36.0766 32.6123 36.0533 32.6164C36.0507 32.6169 36.0482 32.6171 36.0458 32.6171Z" fill="#795DE0"/>
<path d="M38.2629 47.1097C38.2418 47.1097 38.2234 47.094 38.2205 47.0725L38.1327 46.4118C38.1295 46.3883 38.146 46.3667 38.1695 46.3636C38.1934 46.3609 38.2144 46.3771 38.2176 46.4005L38.3055 47.0612C38.3086 47.0847 38.2921 47.1062 38.2687 47.1093C38.2667 47.1096 38.2648 47.1097 38.2629 47.1097ZM38.0871 45.7882C38.066 45.7882 38.0476 45.7726 38.0447 45.7511L37.9569 45.0903C37.9537 45.0668 37.9703 45.0453 37.9937 45.0422C38.0175 45.0394 38.0387 45.0555 38.0418 45.079L38.1297 45.7397C38.1328 45.7632 38.1163 45.7848 38.0929 45.7879C38.0909 45.7881 38.089 45.7882 38.0871 45.7882ZM37.9114 44.4667C37.8903 44.4667 37.8719 44.4511 37.869 44.4296L37.7811 43.7688C37.778 43.7454 37.7945 43.7238 37.8179 43.7207C37.8413 43.7182 37.863 43.734 37.8661 43.7575L37.954 44.4182C37.9571 44.4417 37.9406 44.4632 37.9172 44.4664C37.9153 44.4666 37.9133 44.4667 37.9114 44.4667ZM37.7357 43.1452C37.7146 43.1452 37.6962 43.1296 37.6933 43.1081L37.6054 42.4473C37.6023 42.4239 37.6188 42.4023 37.6422 42.3992C37.666 42.3966 37.6873 42.4126 37.6904 42.436L37.7782 43.0968C37.7814 43.1202 37.7648 43.1417 37.7414 43.1449C37.7395 43.1451 37.7376 43.1452 37.7357 43.1452ZM37.56 41.8238C37.5389 41.8238 37.5204 41.8081 37.5175 41.7866L37.4297 41.1259C37.4265 41.1024 37.4431 41.0808 37.4665 41.0777C37.4902 41.075 37.5115 41.0911 37.5146 41.1145L37.6025 41.7753C37.6056 41.7987 37.5891 41.8203 37.5657 41.8234C37.5637 41.8236 37.5619 41.8238 37.56 41.8238ZM37.3843 40.5022C37.3631 40.5022 37.3447 40.4866 37.3418 40.4651L37.254 39.8044C37.2508 39.7809 37.2673 39.7593 37.2908 39.7562C37.3146 39.7534 37.3357 39.7697 37.3389 39.7931L37.4268 40.4537C37.43 40.4772 37.4134 40.4987 37.39 40.5019C37.3881 40.5021 37.3862 40.5022 37.3843 40.5022ZM37.2051 39.1813C37.1847 39.1813 37.1665 39.1667 37.1629 39.1459L37.047 38.4895C37.0429 38.4662 37.0585 38.444 37.0817 38.4399C37.1052 38.4358 37.1273 38.4513 37.1314 38.4746L37.2473 39.131C37.2514 39.1544 37.2359 39.1766 37.2126 39.1807C37.21 39.1811 37.2076 39.1813 37.2051 39.1813ZM36.9732 37.8685C36.9529 37.8685 36.9347 37.8539 36.9311 37.8331L36.8152 37.1767C36.8111 37.1534 36.8266 37.1311 36.8499 37.127C36.8733 37.123 36.8956 37.1385 36.8996 37.1618L37.0155 37.8182C37.0196 37.8415 37.004 37.8638 36.9808 37.8678C36.9782 37.8683 36.9757 37.8685 36.9732 37.8685ZM36.7414 36.5557C36.721 36.5557 36.7029 36.5411 36.6993 36.5203L36.5834 35.8639C36.5793 35.8406 36.5948 35.8184 36.6181 35.8143C36.6416 35.8102 36.6637 35.8257 36.6678 35.849L36.7837 36.5054C36.7878 36.5286 36.7722 36.5509 36.7489 36.555C36.7464 36.5555 36.7439 36.5557 36.7414 36.5557ZM36.5097 35.2428C36.4893 35.2428 36.4712 35.2283 36.4675 35.2075L36.3516 34.5511C36.3475 34.5278 36.3631 34.5055 36.3863 34.5014C36.4098 34.4975 36.432 34.5129 36.436 34.5362L36.5519 35.1926C36.556 35.2159 36.5405 35.2382 36.5172 35.2422C36.5146 35.2427 36.5121 35.2428 36.5097 35.2428ZM36.2778 33.9301C36.2575 33.9301 36.2394 33.9155 36.2357 33.8947L36.1198 33.2383C36.1157 33.215 36.1312 33.1927 36.1545 33.1886C36.1781 33.1846 36.2001 33.2 36.2042 33.2233L36.3201 33.8798C36.3242 33.9031 36.3087 33.9253 36.2854 33.9294C36.2828 33.9299 36.2803 33.9301 36.2778 33.9301Z" fill="#795DE0"/>
<path d="M38.3956 48.1098C38.3745 48.1098 38.3561 48.0942 38.3532 48.0727L38.308 47.733C38.3049 47.7095 38.3214 47.688 38.3448 47.6849C38.3679 47.6822 38.3898 47.6982 38.3929 47.7217L38.4381 48.0613C38.4413 48.0848 38.4248 48.1064 38.4013 48.1095C38.3994 48.1097 38.3975 48.1098 38.3956 48.1098Z" fill="#795DE0"/>
<path d="M36.2668 50.1675C36.2668 50.1675 36.0984 50.6346 36.0511 50.8681C36.0045 51.0987 35.9854 51.5601 35.9854 51.5601H37.7335C37.7335 51.5601 37.5887 51.1273 37.1892 50.696C36.7409 50.2119 36.2668 50.1675 36.2668 50.1675Z" fill="#FFB925"/>
<path d="M30.0104 49.7167L30.1154 48.0898L27.5443 48.4294L27.4473 49.9818L28.221 50.4619L30.0104 49.7167Z" fill="white"/>
<path d="M28.2194 50.4823L28.2115 50.4773L27.4287 49.9916L27.4294 49.9809L27.5273 48.4138L27.542 48.4118L30.1347 48.0693L30.0276 49.7292L28.2194 50.4823ZM27.466 49.9723L28.2226 50.4418L29.9932 49.7046L30.096 48.1108L27.5614 48.4456L27.466 49.9723Z" fill="#4D68F7"/>
<path d="M30.0187 49.4482C30.0187 49.4482 30.0645 49.5783 30.3181 50.4111C30.5718 51.2439 30.5373 51.9013 30.5373 51.9013H24.5764C24.5764 51.9013 24.424 51.2001 24.7194 51.1562C24.7972 51.1447 24.9094 51.127 25.0326 51.1073C25.5445 51.0255 26.033 50.8357 26.4662 50.5511C26.9084 50.2605 27.3816 49.8851 27.4692 49.7975C27.5055 49.7611 27.6229 49.8962 27.753 49.9644C27.9331 50.0587 28.1369 50.0967 28.3388 50.0721C28.8545 50.0094 29.3174 50.1495 30.0187 49.4482Z" fill="#FF5822"/>
<path d="M30.529 51.5508C30.544 51.77 30.5372 51.9015 30.5372 51.9015H24.5763C24.5763 51.9015 24.539 51.7296 24.5371 51.5508H30.529Z" fill="#795DE0"/>
<path d="M27.7984 50.675C27.7972 50.675 27.7959 50.6749 27.7947 50.6747C27.7853 50.6736 27.7775 50.6684 27.7726 50.6612C27.7299 50.6197 27.3003 50.2834 26.9163 50.2532C26.8992 50.2518 26.8864 50.2369 26.8878 50.2197C26.8891 50.2026 26.9053 50.1886 26.9212 50.1912C27.3398 50.2241 27.813 50.6005 27.8268 50.6306C27.8315 50.6408 27.8304 50.653 27.8237 50.6621C27.8179 50.6702 27.8083 50.675 27.7984 50.675Z" fill="#795DE0"/>
<path d="M27.5025 50.8639C27.5013 50.8639 27.5001 50.8638 27.4989 50.8637C27.4894 50.8626 27.4815 50.8573 27.4766 50.85C27.434 50.8085 27.0046 50.4723 26.6205 50.442C26.6033 50.4407 26.5906 50.4258 26.5919 50.4087C26.5933 50.3916 26.6079 50.3779 26.6253 50.3801C27.0439 50.413 27.517 50.7895 27.5309 50.8195C27.5356 50.8297 27.5345 50.842 27.5279 50.851C27.522 50.8592 27.5124 50.8639 27.5025 50.8639Z" fill="#795DE0"/>
<path d="M27.2663 51.0665C27.2651 51.0665 27.2638 51.0665 27.2626 51.0663C27.2532 51.0652 27.2452 51.06 27.2404 51.0527C27.1977 51.0111 26.7683 50.6749 26.3841 50.6447C26.367 50.6433 26.3542 50.6284 26.3556 50.6113C26.3569 50.5942 26.3719 50.5806 26.389 50.5828C26.8075 50.6156 27.2808 50.9921 27.2946 51.0222C27.2994 51.0324 27.2982 51.0446 27.2916 51.0537C27.2857 51.0618 27.2762 51.0665 27.2663 51.0665Z" fill="#795DE0"/>
<path d="M28.9159 29.9434C28.9159 29.9434 28.7358 30.8304 28.609 32.9355C28.4821 35.0407 28.0771 38.9449 27.6018 41.7376C27.1265 44.5302 27.3526 48.9748 27.3526 48.9748L30.2832 49.1821C30.2832 49.1821 30.1865 49.0067 30.2832 47.853C30.38 46.6993 30.9269 42.9576 30.9246 41.7376C30.9223 40.5175 32.2487 33.5154 32.5073 32.6512C32.766 31.787 33.0013 29.9434 33.0013 29.9434H28.9159Z" fill="#0F33FD"/>
<path d="M28.5838 32.7189C28.5646 32.7189 28.5472 32.706 28.5423 32.6865C28.5366 32.6635 28.5505 32.6403 28.5735 32.6346C30.1879 32.2323 30.1146 30.788 30.1107 30.7267C30.1092 30.7031 30.1271 30.6828 30.1506 30.6813C30.1752 30.6796 30.1946 30.6976 30.1962 30.7212C30.1972 30.7369 30.2792 32.2979 28.5942 32.7177C28.5907 32.7186 28.5873 32.7189 28.5838 32.7189Z" fill="#795DE0"/>
<path d="M30.1933 50.0273C30.1933 50.0273 29.5266 50.1385 29.0573 50.5234C28.5648 50.9273 28.3711 51.5385 28.3711 51.5385L30.5266 51.5459C30.5266 51.5459 30.4804 51.0138 30.4313 50.7738C30.389 50.567 30.1933 50.0273 30.1933 50.0273Z" fill="#FFB925"/>
<path d="M30.2426 20.8051C30.2426 20.8051 32.1702 20.4457 33.3023 20.5814C34.4343 20.717 36.0599 21.1068 36.0599 21.1068C36.0599 21.1068 36.29 23.7273 36.3566 24.3299C36.4233 24.9325 36.2473 25.8987 36.3844 27.0498C36.5216 28.2008 36.7921 30.5571 36.0361 31.2654C35.28 31.9736 34.4355 31.3711 32.9338 31.3208C31.4322 31.2704 29.4453 31.458 28.9962 30.8831C28.5739 30.3426 28.6762 29.4397 28.9043 29.0829C29.2704 28.5105 29.5335 27.0763 29.5949 26.1958C29.659 25.2762 29.5571 24.3993 29.6414 23.9703C29.7256 23.5414 30.2213 21.8908 30.2426 20.8051Z" fill="#FFB925"/>
<path d="M32.4989 18.8425L34.2374 18.8551L34.4224 20.8792C33.8614 21.7246 32.4297 21.3925 32.1505 20.7207L32.4989 18.8425Z" fill="white"/>
<path d="M34.3542 20.128L34.2584 19.079L32.4715 18.9926L32.348 19.6587C32.4914 19.8146 32.6873 19.9649 32.9573 20.0704C33.4406 20.2593 34.0103 20.209 34.3542 20.128Z" fill="#795DE0"/>
<path d="M34.4212 20.8968C34.4126 20.8962 34.4054 20.8894 34.4046 20.8805L34.221 18.8726L32.5139 18.8603L32.1682 20.7237C32.1663 20.7334 32.1578 20.7401 32.1472 20.7381C32.1375 20.7363 32.131 20.7269 32.1328 20.7171L32.4839 18.8241L34.2539 18.8369L34.4404 20.8772C34.4413 20.8872 34.434 20.8958 34.4241 20.8968C34.4231 20.8969 34.4221 20.8969 34.4212 20.8968Z" fill="#4D68F7"/>
<path d="M31.2024 24.1877L31.3898 23.0593L35.2141 22.7824L35.3213 23.2941L31.2024 24.1877Z" fill="#795DE0"/>
<path d="M31.6324 25.0355L31.6542 24.7224C31.6542 24.7224 31.9986 24.7014 32.6439 24.6804C33.2893 24.6595 33.7988 24.3689 34.7725 24.5143C34.984 24.5458 35.221 24.7306 35.221 24.7306L34.9323 25.2633C34.9323 25.2633 34.8729 24.9989 34.136 24.9904C33.3991 24.9818 31.6324 25.0355 31.6324 25.0355Z" fill="#795DE0"/>
<path d="M33.3551 19.8258C32.7376 19.7069 32.3334 19.1098 32.4524 18.4922L32.7387 17.0059C32.8577 16.3884 33.4547 15.9841 34.0723 16.1031C34.6898 16.2221 35.094 16.8192 34.975 17.4367L34.6887 18.923C34.5697 19.5406 33.9727 19.9448 33.3551 19.8258Z" fill="white"/>
<path d="M33.3026 18.062C33.2831 18.1592 33.2147 18.2275 33.1498 18.2145C33.085 18.2015 33.0483 18.1121 33.0678 18.0148C33.0873 17.9175 33.1557 17.8492 33.2206 17.8623C33.2854 17.8753 33.3221 17.9647 33.3026 18.062Z" fill="#795DE0"/>
<path d="M33.0121 17.9123C33.139 17.8704 33.2828 17.9038 33.3791 17.9961C33.4 18.0162 33.4295 17.9823 33.4087 17.9623C33.3009 17.859 33.1387 17.8232 32.9972 17.87C32.9697 17.879 32.9846 17.9214 33.0121 17.9123Z" fill="#795DE0"/>
<path d="M34.2997 18.268C34.2802 18.3653 34.2117 18.4336 34.1469 18.4205C34.0821 18.4075 34.0453 18.3181 34.0648 18.2209C34.0844 18.1236 34.1528 18.0553 34.2176 18.0683C34.2825 18.0814 34.3192 18.1708 34.2997 18.268Z" fill="#795DE0"/>
<path d="M34.0092 18.1184C34.1361 18.0764 34.2798 18.1098 34.3761 18.2021C34.3971 18.2222 34.4265 18.1883 34.4057 18.1684C34.298 18.0651 34.1358 18.0292 33.9943 18.076C33.9668 18.0851 33.9817 18.1274 34.0092 18.1184Z" fill="#795DE0"/>
<path d="M33.0034 17.6706C33.1303 17.6325 33.2648 17.6299 33.3936 17.6608C33.4171 17.6665 33.4417 17.6483 33.4462 17.6252C33.4509 17.6004 33.4343 17.5783 33.4105 17.5726C33.2665 17.5379 33.1153 17.5433 32.9735 17.5859C32.9182 17.6026 32.948 17.6873 33.0034 17.6706Z" fill="#795DE0"/>
<path d="M34.4913 17.974C34.3884 17.8671 34.2579 17.7911 34.1154 17.7508C34.092 17.7442 34.0671 17.7641 34.0628 17.7864C34.0578 17.812 34.0749 17.8324 34.0984 17.839C34.2258 17.8751 34.3405 17.9463 34.4321 18.0416C34.4489 18.0591 34.4805 18.0545 34.4955 18.0374C34.5126 18.0178 34.5081 17.9916 34.4913 17.974Z" fill="#795DE0"/>
<path d="M33.5862 18.1043C33.5854 18.2359 33.5256 18.356 33.4512 18.4614C33.415 18.5129 33.3753 18.5617 33.3362 18.6109C33.3054 18.6498 33.2719 18.6901 33.2615 18.74C33.2537 18.7773 33.2596 18.8187 33.2852 18.8482C33.3159 18.8835 33.3641 18.8935 33.4075 18.9041C33.5091 18.929 33.6156 18.948 33.7164 18.9098C33.7434 18.8996 33.7287 18.8572 33.7015 18.8675C33.6062 18.9035 33.5054 18.8821 33.4097 18.8585C33.3624 18.8468 33.306 18.8336 33.3032 18.7749C33.3006 18.7203 33.3428 18.6747 33.3745 18.6348C33.4994 18.478 33.6297 18.3109 33.631 18.1007C33.6312 18.0719 33.5864 18.0755 33.5862 18.1043Z" fill="#795DE0"/>
<path d="M33.1595 19.3028C33.164 19.3239 33.1805 19.3425 33.1943 19.3582C33.2151 19.3817 33.2384 19.4025 33.2645 19.42C33.3195 19.4568 33.3907 19.465 33.4555 19.4676C33.5085 19.4697 33.5613 19.4615 33.6089 19.4373C33.654 19.4143 33.6909 19.3794 33.7246 19.3422C33.744 19.3207 33.7102 19.2911 33.6908 19.3125C33.662 19.3444 33.6308 19.375 33.5927 19.3954C33.5534 19.4165 33.5092 19.4237 33.4651 19.4232C33.4103 19.4226 33.3433 19.4163 33.2958 19.3871C33.2733 19.3732 33.2527 19.3552 33.2346 19.3361C33.2221 19.3228 33.2058 19.3063 33.2019 19.2879C33.1958 19.2597 33.1535 19.2749 33.1595 19.3028Z" fill="#795DE0"/>
<path d="M33.1371 16.5326C33.3231 16.6554 33.3452 16.9216 33.1958 17.0869C33.1395 17.1492 33.0641 17.213 32.9643 17.2656C32.657 17.4273 32.6517 18.0248 32.6517 18.0248L32.4499 17.9108C32.4499 17.9108 32.5549 16.5241 32.8949 16.4791C32.994 16.466 33.0739 16.4909 33.1371 16.5326Z" fill="#FF5822"/>
<path d="M34.7701 16.8469C34.5518 16.8919 34.4323 17.1308 34.5097 17.3398C34.5388 17.4185 34.585 17.5058 34.6582 17.5917C34.8834 17.856 34.6665 18.4126 34.6665 18.4126L34.8961 18.3818C34.8961 18.3818 35.3138 17.0553 35.0149 16.8873C34.9277 16.8383 34.8444 16.8317 34.7701 16.8469Z" fill="#FF5822"/>
<path d="M34.3109 19.5872C34.307 19.5865 34.3034 19.5845 34.3007 19.5813C34.2941 19.5737 34.295 19.5624 34.3025 19.5559C34.4952 19.3898 34.6225 19.1697 34.6708 18.9194L34.7131 18.6998L34.7319 18.705C34.8053 18.7256 34.9103 18.6809 34.9842 18.5955C35.0305 18.542 35.0603 18.4801 35.0679 18.4212C35.0753 18.365 35.0616 18.3186 35.0292 18.2906C34.9819 18.2496 34.8998 18.2554 34.8199 18.3051C34.8115 18.3103 34.8003 18.3078 34.7951 18.2994C34.7898 18.2909 34.7924 18.2798 34.8008 18.2746C34.8958 18.2154 34.9923 18.211 35.0528 18.2634C35.0946 18.2995 35.1127 18.3573 35.1036 18.4258C35.095 18.4917 35.0622 18.5603 35.0113 18.6191C34.9332 18.7093 34.8273 18.7575 34.7413 18.7438L34.7062 18.9262C34.6564 19.1846 34.525 19.4118 34.3261 19.5831C34.3217 19.5869 34.3161 19.5882 34.3109 19.5872Z" fill="#4D68F7"/>
<path d="M32.509 19.147C32.5032 19.1458 32.4981 19.1418 32.4957 19.136C32.4136 18.9307 32.3925 18.707 32.4345 18.4889L32.4697 18.3063C32.3877 18.2838 32.3101 18.2003 32.2725 18.0918C32.247 18.0183 32.2421 17.9424 32.2586 17.878C32.2757 17.811 32.3139 17.7641 32.3662 17.7461C32.4383 17.721 32.524 17.7578 32.5895 17.8422C32.5956 17.85 32.5942 17.8613 32.5864 17.8674C32.5786 17.8735 32.5671 17.8721 32.5611 17.8643C32.5053 17.7925 32.435 17.7603 32.378 17.7802C32.3375 17.7942 32.3075 17.8321 32.2934 17.887C32.2786 17.9445 32.2833 18.0131 32.3064 18.08C32.3426 18.1842 32.4166 18.2625 32.4936 18.2747L32.5119 18.2776L32.4699 18.4957C32.4292 18.707 32.4497 18.9238 32.5292 19.1226C32.5329 19.1318 32.5284 19.1423 32.5191 19.146C32.5158 19.1473 32.5123 19.1476 32.509 19.147Z" fill="#4D68F7"/>
<path d="M32.8171 16.0221C32.5793 16.3179 32.6781 16.77 33.1752 17.0299C33.6769 17.2922 33.7814 17.0362 34.1766 17.278C34.6668 17.5779 35.4177 17.2398 35.4752 16.8925C35.5327 16.5452 35.7559 16.533 35.7559 16.533C35.8168 16.4901 35.5587 16.1174 35.1907 16.3137C35.0247 16.4023 34.8502 16.3964 34.6583 16.2111C34.4664 16.0258 33.4707 15.2092 32.8171 16.0221Z" fill="#FF5822"/>
<path d="M33.3036 18.062C33.2841 18.1592 33.2156 18.2275 33.1508 18.2145C33.086 18.2015 33.0492 18.1121 33.0687 18.0148C33.0883 17.9175 33.1567 17.8492 33.2215 17.8623C33.2864 17.8753 33.3231 17.9647 33.3036 18.062Z" fill="#795DE0"/>
<path d="M34.2997 18.268C34.2802 18.3653 34.2117 18.4336 34.1469 18.4205C34.0821 18.4075 34.0453 18.3181 34.0648 18.2209C34.0844 18.1236 34.1528 18.0553 34.2176 18.0683C34.2825 18.0814 34.3192 18.1708 34.2997 18.268Z" fill="#795DE0"/>
<path d="M34.0092 18.1184C34.1361 18.0764 34.2798 18.1098 34.3761 18.2021C34.3971 18.2222 34.4265 18.1883 34.4057 18.1684C34.298 18.0651 34.1358 18.0292 33.9943 18.076C33.9668 18.0851 33.9817 18.1274 34.0092 18.1184Z" fill="#795DE0"/>
<path d="M33.0131 17.9123C33.14 17.8704 33.2837 17.9038 33.38 17.9961C33.401 18.0162 33.4304 17.9823 33.4096 17.9623C33.3019 17.859 33.1397 17.8232 32.9982 17.87C32.9707 17.879 32.9856 17.9214 33.0131 17.9123Z" fill="#795DE0"/>
<path d="M24.2844 25.9333C24.2844 25.9333 27.3582 25.362 29.4158 24.0626C30.7876 23.1962 31.0649 21.9472 30.9178 21.232C30.6548 19.9528 27.8503 21.8758 26.7036 22.6907C24.5054 24.2527 24.2844 25.9333 24.2844 25.9333Z" fill="#FFB925"/>
<path d="M24.2817 25.96C24.2697 25.9592 24.2594 25.9503 24.2571 25.938C24.2543 25.9234 24.264 25.9093 24.2786 25.9066C24.3093 25.9009 27.3711 25.3213 29.4006 24.0395C29.7525 23.8173 30.0515 23.5568 30.2893 23.2653C30.2987 23.2537 30.3157 23.2521 30.3273 23.2615C30.3388 23.2709 30.3405 23.2879 30.3311 23.2994C30.0896 23.5954 29.7862 23.8598 29.4293 24.0851C27.391 25.3724 24.3193 25.9539 24.2885 25.9596C24.2862 25.9601 24.2839 25.9601 24.2817 25.96Z" fill="#795DE0"/>
<path d="M50.0193 17.4038L49.0955 16.8676C49.0955 16.8676 49.0284 16.4785 49.0809 15.9933C49.1333 15.5081 49.7785 14.5857 49.7983 14.4021C49.8181 14.2186 50.0221 14.3497 49.9216 14.7752C49.8211 15.2006 49.6819 15.4792 49.6713 15.5767C49.6608 15.6742 50.2164 15.0751 50.2759 15.0293C50.3354 14.9835 51.332 13.8368 51.4821 13.9621C51.6537 14.1054 50.5817 15.2283 50.5817 15.2283C50.5817 15.2283 51.979 13.9067 52.1174 14.1399C52.1728 14.2331 51.8551 14.5478 51.8551 14.5478L52.148 14.3613C52.2617 14.3191 52.2981 14.4866 52.1131 14.6848L51.1645 15.8913C51.1645 15.8913 52.3054 14.9237 52.2705 15.2472C52.2622 15.3234 52.1932 15.4571 51.1063 16.4304C50.992 16.5327 50.0193 17.4038 50.0193 17.4038Z" fill="white"/>
<path d="M51.0849 15.3369C51.0813 15.336 51.0777 15.3343 51.0746 15.3318C51.0628 15.3224 51.061 15.3054 51.0704 15.2937L51.2047 15.1257C51.4102 14.8686 51.6524 14.6445 51.9246 14.4595C51.9369 14.4511 51.9538 14.4543 51.9622 14.4667C51.9706 14.4791 51.9674 14.496 51.955 14.5044C51.6873 14.6863 51.4491 14.9067 51.247 15.1595L51.1127 15.3276C51.1059 15.3361 51.0949 15.3395 51.0849 15.3369Z" fill="#795DE0"/>
<path d="M49.9148 16.5737C49.902 16.5704 49.8931 16.5581 49.8946 16.5445C49.8952 16.5388 49.9514 15.9781 49.6506 15.5931C49.6414 15.5813 49.6435 15.5643 49.6553 15.555C49.6671 15.5457 49.6843 15.548 49.6933 15.5597C50.0078 15.9623 49.951 16.5265 49.9485 16.5503C49.9469 16.5652 49.9335 16.5759 49.9186 16.5743C49.9173 16.5742 49.9161 16.574 49.9148 16.5737Z" fill="#795DE0"/>
<path d="M51.0167 15.9659C51.006 15.9632 50.9977 15.9542 50.9964 15.9427C50.996 15.9401 50.9598 15.6917 50.4189 15.3717C50.406 15.364 50.4018 15.3474 50.4094 15.3345C50.417 15.3216 50.4334 15.3174 50.4465 15.325C51.0156 15.6618 51.0492 15.9258 51.0503 15.9368C51.0518 15.9517 51.041 15.965 51.0261 15.9666C51.0229 15.9669 51.0197 15.9667 51.0167 15.9659Z" fill="#795DE0"/>
<path d="M50.023 17.4369L49.0712 16.8845L49.0691 16.872C49.0684 16.8681 49.0021 16.4737 49.0543 15.9903C49.0873 15.6843 49.3424 15.2244 49.5475 14.8548C49.664 14.6449 49.7647 14.4635 49.7717 14.399C49.7794 14.328 49.8108 14.3054 49.8288 14.2984C49.8525 14.2889 49.8794 14.2951 49.9024 14.315C49.9668 14.3709 50.006 14.5368 49.9482 14.7813C49.8879 15.0368 49.8149 15.2363 49.7616 15.382C49.7369 15.4495 49.7172 15.5035 49.7066 15.5419C49.7913 15.4781 49.9982 15.2682 50.1054 15.1595C50.192 15.0718 50.2419 15.0215 50.2597 15.0077C50.2699 14.9999 50.3265 14.9389 50.3921 14.8682C51.0887 14.1173 51.3991 13.8574 51.4998 13.9412C51.517 13.9555 51.5264 13.9759 51.5279 14.0019C51.5364 14.1518 51.2414 14.5277 50.9806 14.8293C51.3658 14.4916 51.8978 14.061 52.0785 14.0862C52.1065 14.0901 52.1279 14.1038 52.141 14.1258C52.1786 14.1891 52.0996 14.3111 52.0148 14.414L52.1337 14.3383C52.1858 14.3183 52.228 14.329 52.2516 14.3643C52.2914 14.4239 52.2711 14.5553 52.1331 14.7032L51.3419 15.7097C51.6366 15.4721 52.1348 15.095 52.262 15.1631C52.2814 15.1733 52.3034 15.1968 52.2977 15.25C52.2897 15.324 52.2797 15.4162 51.1246 16.4505L50.023 17.4369ZM49.1205 16.8504L50.0162 17.3703L51.0884 16.41C52.14 15.4685 52.2361 15.3145 52.2438 15.2441C52.2451 15.2315 52.2449 15.2155 52.2366 15.211C52.143 15.1606 51.562 15.5898 51.1823 15.9118L50.9775 16.0855L52.092 14.6679C52.2119 14.5394 52.2309 14.4309 52.2065 14.3944C52.1973 14.3806 52.1809 14.3779 52.1578 14.3866L51.6569 14.7063L51.8364 14.5284C51.9825 14.3836 52.1211 14.1984 52.0944 14.1536C52.0913 14.1483 52.0858 14.1419 52.071 14.1399C51.8573 14.1101 50.9371 14.9296 50.6006 15.2479L50.5623 15.2095C50.8196 14.9401 51.4848 14.1984 51.4738 14.0049C51.4729 13.9893 51.467 13.9843 51.4651 13.9828C51.4192 13.9452 51.203 14.0739 50.4318 14.9051C50.3449 14.9987 50.306 15.0405 50.2927 15.0507C50.2769 15.0629 50.2154 15.1253 50.1441 15.1976C49.7699 15.5771 49.7026 15.6299 49.6634 15.6111C49.6583 15.6087 49.642 15.5988 49.6447 15.5736C49.6493 15.5311 49.6737 15.4643 49.7107 15.3634C49.7635 15.219 49.8358 15.0213 49.8955 14.7688C49.9513 14.5326 49.9089 14.3925 49.8668 14.356C49.8634 14.3531 49.8548 14.3464 49.8487 14.3488C49.842 14.3514 49.8297 14.3662 49.8256 14.4049C49.8174 14.4802 49.7241 14.6484 49.5949 14.8812C49.4029 15.2272 49.14 15.7011 49.1081 15.9961C49.0619 16.424 49.11 16.7806 49.1205 16.8504Z" fill="#795DE0"/>
<path d="M45.7986 48.0455C45.8473 48.1047 46.3644 50.3966 46.5623 51.2835C46.7602 52.1704 47.5167 52.5924 47.8531 52.3146C48.1896 52.0368 48.0763 50.6849 47.9079 50.0314C47.7395 49.378 47.0212 47.238 47.0212 47.238L45.7986 48.0455Z" fill="white"/>
<path d="M46.6652 50.9081C46.9366 51.4793 47.3306 51.4947 47.4277 51.4725C47.5948 51.4342 47.6923 51.2226 47.7394 51.0669C47.8998 50.5377 47.6703 49.5347 47.6003 49.0064C47.5768 48.8294 48.3458 51.1353 48.4096 51.4589C48.5191 52.0143 48.3169 52.9753 47.9208 53.1247C47.5227 53.2747 46.583 52.3166 46.463 51.8692C46.3914 51.6021 46.0684 49.7605 46.1486 49.4959C46.1486 49.4959 46.5665 50.7004 46.6652 50.9081Z" fill="#0F33FD"/>
<path d="M42.2553 49.5752C42.2553 49.5752 42.5358 50.4876 42.2011 50.8224C41.8663 51.1572 40.4658 51.9612 40.4658 51.9612C40.4658 51.9612 44.0159 51.5711 44.2893 51.5964C44.5628 51.6218 44.1421 50.845 43.6652 49.3583C43.1882 47.8717 42.2553 49.5752 42.2553 49.5752Z" fill="white"/>
<path d="M36.8818 29.5889C36.8818 29.5889 36.8869 32.6567 37.6461 35.8561C37.9468 37.1234 39.4898 41.2786 39.5441 41.7125C39.5983 42.1463 42.2553 49.6837 42.2553 49.6837L43.8821 49.4668C43.8821 49.4668 43.5567 45.7252 43.123 44.2069C42.6892 42.6885 42.0385 41.4956 41.9842 40.9533C41.93 40.411 40.8997 30.5419 40.6828 30.1081C40.4659 29.6743 36.8818 29.5889 36.8818 29.5889Z" fill="#D63C24"/>
<path d="M41.9232 51.0433C41.9232 51.0433 41.3198 51.6359 41.9232 51.5816C42.5267 51.5274 43.557 51.3648 43.7739 51.1479C44.1037 50.818 43.9908 50.3345 43.9908 50.3345C43.9908 50.3345 44.3162 50.931 44.3704 51.1479C44.555 51.8862 44.3704 52.2324 43.8823 52.2462C43.3898 52.2602 42.6813 52.1735 41.655 52.3385C40.6288 52.5035 39.6285 52.2791 39.6135 52.1202C39.5985 51.9613 40.4714 51.759 40.7915 51.6359C41.4964 51.3648 41.9232 51.0433 41.9232 51.0433Z" fill="#0F33FD"/>
<path d="M41.9183 49.1888C42.458 49.0283 43.0144 49.0872 43.2855 49.033C43.5566 48.9788 44.0447 48.7618 44.0989 48.8703C44.1531 48.9787 44.5327 49.4218 43.882 49.5256C43.5157 49.5841 42.5464 49.8428 42.0925 49.7379C41.7399 49.6565 41.8285 49.2155 41.9183 49.1888Z" fill="#BE0215"/>
<path d="M39.3998 29.4968C39.3998 29.4968 41.5476 40.2393 42.2201 41.0102C42.8927 41.7811 45.9175 48.794 45.9175 48.794L47.6478 48.0221C47.6478 48.0221 46.8404 44.9897 46.4259 43.663C46.0115 42.3362 44.9782 41.0644 44.8113 40.3313C44.6444 39.5983 44.038 32.9812 43.2403 30.7425C42.4426 28.5039 39.3998 29.4968 39.3998 29.4968Z" fill="#FF5822"/>
<path d="M45.7088 48.5317C46.1315 48.2767 46.7082 48.2918 46.9347 48.1449C47.1797 47.9861 47.3532 47.8475 47.8107 47.8698C48.0358 47.8808 48.3269 48.3451 47.701 48.5513C47.3488 48.6674 46.4331 49.0772 45.9682 49.046C45.6072 49.0218 45.5208 48.6451 45.7088 48.5317Z" fill="#D63C24"/>
<path d="M48.874 16.6358C48.874 16.6358 46.9137 19.9162 46.4209 20.4404C46.0975 20.7843 44.5024 21.8456 43.4436 22.5348C43.1586 22.7204 42.8097 22.7773 42.4795 22.6954C41.7608 22.5171 40.6328 22.3741 40.6328 22.3741C38.909 22.206 37.9396 22.6004 37.9396 22.6004C37.9396 22.6004 37.748 23.8557 37.4916 24.5468C37.2352 25.2379 36.7242 25.4173 37.0211 27.0144C37.141 27.6592 36.8691 31.135 36.8691 31.135C36.8691 31.135 37.2515 31.1073 39.7529 30.9367C42.2543 30.7661 43.3036 30.8442 43.3036 30.8442C43.3036 30.8442 42.9728 29.6466 42.9175 27.8061C42.9054 27.404 42.9357 26.6472 42.9992 25.855C44.3623 24.8989 47.814 22.2037 48.0576 21.9135C48.5318 21.3486 50.1571 17.1721 50.1571 17.1721L48.874 16.6358Z" fill="#4D68F7"/>
<path d="M42.9454 25.851C42.9882 26.017 42.9641 26.4181 42.7693 26.8171C42.6333 27.0959 42.4146 27.2273 42.4146 27.2273L43.0579 30.8331C43.2242 30.8381 43.3039 30.844 43.3039 30.844C43.3039 30.844 42.9731 29.6464 42.9178 27.8059C42.9057 27.4038 43.0498 25.9126 42.9454 25.851Z" fill="#795DE0"/>
<path d="M41.5132 27.3473C41.3042 27.3328 41.1896 27.3059 41.1815 27.304C41.167 27.3005 41.1581 27.2859 41.1616 27.2714C41.1651 27.257 41.1791 27.2481 41.1941 27.2516C41.1975 27.2524 41.5419 27.3327 42.1344 27.2899C42.3116 27.277 42.4779 27.1849 42.6153 27.0232C42.8451 26.7531 42.9819 26.2992 42.9479 25.9196C42.899 25.3711 42.8073 24.936 42.8064 24.9316C42.8034 24.9171 42.8127 24.9028 42.8272 24.8997C42.842 24.8964 42.856 24.9059 42.8592 24.9204C42.8601 24.9248 42.9524 25.3629 43.0016 25.9149C43.0367 26.3077 42.8948 26.7778 42.6564 27.0581C42.5094 27.231 42.3303 27.3297 42.1383 27.3436C41.8802 27.3623 41.67 27.3583 41.5132 27.3473Z" fill="#795DE0"/>
<path d="M37.9245 27.4285C37.6234 27.4075 37.3718 27.2868 37.2116 27.1874C37.0748 27.1025 36.982 26.9594 36.9571 26.7951C36.8016 25.7634 37.0159 25.388 37.2427 24.9906C37.3214 24.8527 37.4028 24.7101 37.4668 24.5376C37.7193 23.8569 37.9115 22.609 37.9134 22.5965C37.9156 22.5817 37.9295 22.5718 37.9441 22.5739C37.9588 22.5761 37.9689 22.59 37.9667 22.6047C37.9647 22.6172 37.7717 23.8706 37.5173 24.5563C37.4518 24.7331 37.3693 24.8776 37.2895 25.0173C37.0675 25.4064 36.8577 25.7739 37.0105 26.787C37.033 26.9358 37.1166 27.065 37.24 27.1416C37.5116 27.3101 38.056 27.5423 38.6507 27.204C38.6636 27.1967 38.6801 27.2011 38.6875 27.2141C38.6948 27.2271 38.6903 27.2436 38.6774 27.2509C38.4103 27.4029 38.1531 27.4444 37.9245 27.4285Z" fill="#795DE0"/>
<path d="M39.8696 20.7641L41.5899 21.016L41.4943 23.0463C40.8222 23.8064 39.45 23.2802 39.2658 22.5764L39.8696 20.7641Z" fill="white"/>
<path d="M39.5166 21.8233C39.9138 21.9133 40.447 21.9588 40.9263 21.8113C41.1909 21.7299 41.4005 21.6097 41.5681 21.4763L41.5897 21.0159L39.8695 20.764L39.5166 21.8233Z" fill="#795DE0"/>
<path d="M40.5187 23.4436C40.4309 23.4374 40.3408 23.4236 40.2492 23.4018C39.7497 23.2827 39.3344 22.946 39.2395 22.5832L39.2375 22.5757L39.754 20.9466C39.7585 20.9323 39.7735 20.9245 39.788 20.9289C39.8023 20.9334 39.8101 20.9486 39.8056 20.9629L39.294 22.5771C39.3878 22.9185 39.7843 23.2352 40.2618 23.349C40.7455 23.4643 41.1846 23.3499 41.4677 23.0352L41.5812 21.1401C41.5821 21.1251 41.5949 21.1137 41.6098 21.1146C41.6099 21.1146 41.6101 21.1146 41.6101 21.1146C41.625 21.1157 41.6362 21.1284 41.6353 21.1433L41.5207 23.0572L41.5146 23.0642C41.2714 23.3392 40.9177 23.4714 40.5187 23.4436Z" fill="#795DE0"/>
<path d="M36.2722 23.3202C36.315 23.4863 36.3292 23.7471 36.3427 23.8687C36.388 24.2781 36.3326 24.6936 36.3282 25.3828C36.7495 25.4035 37.558 25.1493 37.558 25.1493L38.7535 22.4061C38.7535 22.4061 37.0786 22.6698 36.2722 23.3202Z" fill="#4D68F7"/>
<path d="M42.0881 17.2733C41.9224 17.7863 41.3723 18.0678 40.8593 17.9022C40.3463 17.7366 40.0647 17.1865 40.2304 16.6735C40.396 16.1605 40.9461 15.8789 41.4591 16.0445C41.9721 16.2102 42.2537 16.7603 42.0881 17.2733Z" fill="#FFB925"/>
<path d="M41.0959 17.8377C40.9041 17.7758 40.5426 17.5974 40.3806 17.1093C40.3021 16.8727 40.3598 16.5781 40.5352 16.3213C40.672 16.1208 40.849 15.9915 40.997 15.9837C41.0118 15.9829 41.0246 15.9943 41.0255 16.0094C41.0263 16.0243 41.0148 16.037 40.9998 16.0378C40.8704 16.0446 40.7056 16.1679 40.5799 16.3519C40.4141 16.5948 40.3589 16.8716 40.4321 17.0922C40.6458 17.7361 41.2217 17.814 41.2275 17.8146C41.2425 17.8166 41.2529 17.83 41.2512 17.8448C41.2494 17.8597 41.2358 17.8703 41.221 17.8685C41.2193 17.8682 41.1704 17.8618 41.0959 17.8377Z" fill="#FF5822"/>
<path d="M41.2674 17.8359C41.0756 17.774 40.7141 17.5955 40.5521 17.1074C40.4473 16.7916 40.549 16.4323 40.6964 16.2165C40.7991 16.066 40.9266 15.9761 41.0462 15.9699C41.0611 15.969 41.0739 15.9805 41.0747 15.9955C41.0755 16.0105 41.0639 16.0233 41.049 16.024C40.9465 16.0294 40.8343 16.1107 40.7412 16.247C40.6013 16.4518 40.5045 16.7921 40.6036 17.0904C40.8173 17.7342 41.3933 17.8121 41.399 17.8128C41.4141 17.8148 41.4244 17.8282 41.4227 17.843C41.4208 17.8579 41.4073 17.8685 41.3925 17.8667C41.3908 17.8664 41.3419 17.8599 41.2674 17.8359Z" fill="#FF5822"/>
<path d="M42.6142 18.4689C42.4485 18.9819 42.7301 19.532 43.2431 19.6976C43.7561 19.8633 44.3062 19.5817 44.4719 19.0687C44.6375 18.5557 44.3559 18.0056 43.8429 17.8399C43.3299 17.6743 42.7798 17.9559 42.6142 18.4689Z" fill="#FFB925"/>
<path d="M43.0894 19.5071C43.0149 19.483 42.9715 19.4596 42.9699 19.4588C42.9569 19.4516 42.952 19.4351 42.9593 19.422C42.9665 19.4089 42.9828 19.4042 42.9961 19.4114C43.0012 19.4142 43.5139 19.6879 44.0639 19.2905C44.2523 19.1543 44.3693 18.8974 44.3768 18.6034C44.3825 18.3807 44.3209 18.1844 44.2199 18.1032C44.2082 18.0938 44.2063 18.0767 44.2157 18.0651C44.2252 18.0534 44.2422 18.0517 44.2538 18.0609C44.3693 18.1538 44.4373 18.3622 44.431 18.6049C44.4231 18.9157 44.2977 19.1884 44.0956 19.3344C43.6788 19.6356 43.2812 19.569 43.0894 19.5071Z" fill="#FF5822"/>
<path d="M42.9509 19.4055C42.8764 19.3814 42.8329 19.3581 42.8314 19.3573C42.8183 19.3501 42.8136 19.3336 42.8208 19.3205C42.8281 19.3075 42.8442 19.3027 42.8576 19.3098C42.8626 19.3126 43.3754 19.5864 43.9254 19.1889C44.1801 19.0049 44.3006 18.6722 44.3069 18.4243C44.3111 18.2593 44.2676 18.1277 44.1876 18.0634C44.176 18.0541 44.1741 18.037 44.1835 18.0253C44.193 18.0137 44.2101 18.0119 44.2216 18.0212C44.315 18.0962 44.3658 18.2437 44.3611 18.4257C44.3544 18.687 44.227 19.0379 43.9572 19.2329C43.5404 19.534 43.1427 19.4674 42.9509 19.4055Z" fill="#FF5822"/>
<path d="M40.3566 20.3398C40.3566 20.3398 39.234 20.1411 39.9277 18.797C40.6214 17.4529 41.6671 17.7455 42.1191 17.9591C42.5712 18.1727 43.3956 18.7791 42.9148 20.1284C42.4341 21.4776 41.5429 21.0931 41.522 21.0129C41.5012 20.9326 40.3566 20.3398 40.3566 20.3398Z" fill="#FFB925"/>
<path d="M40.4306 21.4585C39.8646 21.1843 39.628 20.5032 39.9022 19.9372L40.5621 18.575C40.8363 18.009 41.5174 17.7725 42.0834 18.0467C42.6494 18.3208 42.886 19.002 42.6118 19.5679L41.9519 20.9302C41.6777 21.4961 40.9966 21.7327 40.4306 21.4585Z" fill="white"/>
<path d="M40.6692 21.5711C40.5842 21.5518 40.5002 21.5227 40.4185 21.4831C39.84 21.2028 39.5973 20.5041 39.8776 19.9256C39.8841 19.9121 39.9 19.9065 39.9138 19.913C39.9272 19.9195 39.9329 19.9358 39.9263 19.9492C39.6591 20.5009 39.8905 21.1671 40.4421 21.4343C40.9939 21.7015 41.66 21.4702 41.9272 20.9185C41.9337 20.9051 41.9496 20.8995 41.9634 20.9059C41.9768 20.9125 41.9825 20.9287 41.9759 20.9421C41.7353 21.439 41.186 21.6882 40.6692 21.5711Z" fill="#795DE0"/>
<path d="M41.9792 20.0365C41.9208 19.9242 41.8319 19.8301 41.7248 19.7629C41.7073 19.7519 41.6821 19.7613 41.6728 19.7787C41.6624 19.7981 41.6709 19.8196 41.6885 19.8306C41.7841 19.8906 41.8618 19.9767 41.9142 20.0775C41.9238 20.0959 41.9507 20.0999 41.9672 20.0895C41.986 20.0776 41.9889 20.055 41.9792 20.0365Z" fill="#795DE0"/>
<path d="M40.7077 19.5181C40.8174 19.4895 40.9325 19.4915 41.0416 19.5221C41.0616 19.5277 41.0831 19.5127 41.0876 19.4931C41.0923 19.472 41.0786 19.4528 41.0585 19.4472C40.9364 19.4129 40.807 19.4129 40.6845 19.4448C40.6366 19.4573 40.6598 19.5306 40.7077 19.5181Z" fill="#795DE0"/>
<path d="M41.2171 19.9632C41.1172 20.1151 41.1347 20.3004 41.1489 20.4727C41.1523 20.514 41.1585 20.5635 41.1306 20.5983C41.0988 20.638 41.0484 20.6164 41.0091 20.6021C40.9333 20.5745 40.8542 20.5418 40.8058 20.4739C40.7914 20.4539 40.7589 20.4743 40.7733 20.4944C40.8239 20.5653 40.9011 20.6025 40.9807 20.6322C41.0187 20.6464 41.0613 20.6665 41.1028 20.6583C41.138 20.6514 41.1644 20.6248 41.1779 20.5924C41.1948 20.5518 41.1904 20.5071 41.1868 20.4644C41.1823 20.4103 41.1773 20.3562 41.1759 20.3019C41.1731 20.1897 41.1883 20.0768 41.251 19.9813C41.2646 19.9606 41.2306 19.9426 41.2171 19.9632Z" fill="#795DE0"/>
<path d="M40.651 20.8649C40.6302 20.8757 40.6094 20.8865 40.5886 20.8972C40.578 20.9028 40.5743 20.9061 40.5638 20.899C40.5569 20.8944 40.5504 20.889 40.5441 20.8836C40.5183 20.8613 40.4971 20.8345 40.4806 20.8046C40.4478 20.7452 40.4359 20.6747 40.4494 20.6081C40.4543 20.5839 40.4168 20.5754 40.4119 20.5996C40.3956 20.6805 40.4118 20.7656 40.4544 20.836C40.4754 20.8707 40.5032 20.9019 40.5359 20.926C40.5559 20.9407 40.5742 20.9469 40.5974 20.9357C40.6225 20.9237 40.6469 20.9102 40.6716 20.8974C40.6935 20.8859 40.6729 20.8535 40.651 20.8649Z" fill="#795DE0"/>
<path d="M41.5497 20.1466C41.5066 20.2197 41.5111 20.3022 41.5599 20.331C41.6086 20.3598 41.6831 20.3239 41.7262 20.2508C41.7693 20.1776 41.7648 20.0951 41.716 20.0664C41.6673 20.0376 41.5928 20.0735 41.5497 20.1466Z" fill="#795DE0"/>
<path d="M41.8135 20.174C41.7501 20.0633 41.6254 19.9944 41.4981 19.9987C41.4735 19.9996 41.4752 20.0379 41.4999 20.0371C41.6141 20.0333 41.7244 20.0954 41.781 20.1945C41.7933 20.216 41.8257 20.1954 41.8135 20.174Z" fill="#795DE0"/>
<path d="M40.7864 19.8117C40.7572 19.8914 40.7767 19.9717 40.8298 19.9912C40.8829 20.0106 40.9497 19.9618 40.9788 19.8821C41.008 19.8024 40.9886 19.722 40.9355 19.7026C40.8823 19.6831 40.8156 19.7319 40.7864 19.8117Z" fill="#795DE0"/>
<path d="M41.0497 19.7899C40.9671 19.6921 40.8318 19.6489 40.7074 19.6761C40.6833 19.6814 40.695 19.718 40.719 19.7127C40.8307 19.6883 40.95 19.7312 41.0235 19.818C41.0394 19.8368 41.0655 19.8085 41.0497 19.7899Z" fill="#795DE0"/>
<path d="M42.6599 21.5843C42.6587 21.584 42.6575 21.5837 42.6563 21.5832C42.6479 21.5801 42.4491 21.5024 42.4343 21.235C42.4261 21.0895 42.5434 20.9414 42.6792 20.7698C42.93 20.4531 43.2733 20.0193 43.0375 19.3214C43.0327 19.3072 43.0404 19.2918 43.0546 19.287C43.0686 19.2822 43.0841 19.2897 43.089 19.304C43.3342 20.0298 42.9802 20.477 42.7218 20.8035C42.5928 20.9664 42.4814 21.107 42.4884 21.232C42.5012 21.463 42.6684 21.5298 42.6755 21.5325C42.6895 21.5378 42.6964 21.5534 42.6911 21.5674C42.6863 21.5802 42.6729 21.5872 42.6599 21.5843Z" fill="#FF5822"/>
<path d="M42.4587 20.3971C42.5156 20.481 42.4588 20.6189 42.3317 20.7051C42.2047 20.7913 42.0555 20.7931 41.9986 20.7092C41.9417 20.6253 41.9986 20.4874 42.1257 20.4013C42.2527 20.3151 42.4018 20.3132 42.4587 20.3971Z" fill="white"/>
<path d="M40.0129 19.2122C39.9117 19.2196 39.8388 19.3496 39.8499 19.5027C39.861 19.6559 39.952 19.7741 40.0531 19.7667C40.1543 19.7594 40.2272 19.6294 40.2161 19.4762C40.205 19.3231 40.114 19.2049 40.0129 19.2122Z" fill="white"/>
<path d="M42.2873 18.1416C42.2288 18.0947 42.0714 17.9822 42.0014 17.9883C41.9388 17.9937 41.4689 18.7146 41.5954 19.1626C41.7882 19.8453 42.5702 20.262 42.5702 20.262C42.5702 20.262 43.2177 18.8874 42.2873 18.1416Z" fill="#FFB925"/>
<path d="M41.8083 17.8471C41.9494 17.8649 42.0541 17.9884 42.0491 18.1305C42.0401 18.3933 41.9511 18.8359 41.538 19.0505C40.9085 19.3776 40.0694 19.0931 40.0694 19.0931C40.0694 19.0931 40.2968 17.6573 41.8083 17.8471Z" fill="#FFB925"/>
<path d="M42.5641 20.288C42.5618 20.2874 42.5596 20.2866 42.5574 20.2854C42.525 20.2682 41.763 19.8555 41.5693 19.1695C41.5609 19.1396 41.5548 19.1077 41.551 19.0744C41.008 19.371 40.1409 19.1256 40.1042 19.1148C40.0899 19.1107 40.0816 19.0956 40.0858 19.0812C40.09 19.0669 40.1051 19.0577 40.1193 19.0628C40.1282 19.0652 41.002 19.3127 41.5253 19.0267C41.5331 19.0224 41.5406 19.0179 41.5482 19.0135L41.5996 18.9835L41.6018 19.0281C41.6039 19.0734 41.6105 19.116 41.6215 19.1548C41.8088 19.8182 42.5752 20.2335 42.5829 20.2376C42.5961 20.2446 42.6011 20.261 42.594 20.2742C42.5881 20.2853 42.5758 20.2906 42.5641 20.288Z" fill="#FF5822"/>
<path d="M39.0236 19.8431C39.0226 19.8429 39.0216 19.8426 39.0206 19.8423C39.0065 19.8373 38.9991 19.8219 39.004 19.8078C39.0086 19.7947 39.1222 19.485 39.6008 19.4744C39.8162 19.4696 39.9051 19.3869 40.0563 19.2289C40.1732 19.1067 40.3701 19.1211 40.3785 19.1218C40.393 19.1233 40.4045 19.1361 40.4033 19.151C40.4021 19.1659 40.389 19.1771 40.3741 19.1759C40.3723 19.1757 40.1943 19.163 40.0955 19.2664C39.9432 19.4256 39.8378 19.5233 39.602 19.5286C39.1627 19.5383 39.0593 19.8141 39.0551 19.8258C39.0505 19.8389 39.0368 19.8461 39.0236 19.8431Z" fill="#FF5822"/>
<path d="M27.0908 29.9781L23.908 29.75C23.9108 29.8379 23.9147 29.9274 23.9191 30.0174C22.9745 28.9832 21.1793 28.8564 21.0366 29.6935C21.0366 29.6935 21.2933 31.5342 21.0533 33.9582C20.8133 36.3822 20.8906 38.8928 20.3714 40.1464C20.0911 40.8231 19.2096 40.8991 17.637 41.7125C16.0645 42.5259 14.0039 43.8274 14.0039 43.8274L14.492 45.4542C14.492 45.4542 21.6644 42.5006 22.7343 41.3872C23.614 40.4718 23.8404 34.4368 24.1442 31.3554C25.0118 33.6329 25.6828 38.9777 25.6625 39.652C25.6337 40.6073 25.4185 41.3601 25.2287 43.7189C25.0389 46.0778 24.8491 49.1957 24.8491 49.1957L26.7065 49.2482C26.7065 49.2482 28.2654 40.8449 28.2654 38.1336C28.2654 34.988 27.0908 29.9781 27.0908 29.9781Z" fill="white"/>
<path d="M21.4324 27.668L20.9443 30.1623H27.1549C27.1549 30.1623 26.78 29.1047 26.5734 28.4135C26.3669 27.7222 21.4324 27.668 21.4324 27.668Z" fill="white"/>
<path d="M26.7286 49.276L26.7054 49.2753L24.82 49.2221L24.8218 49.1942C24.8237 49.163 25.0136 46.049 25.2013 43.7168C25.3022 42.4628 25.4084 41.6762 25.4938 41.0443C25.5679 40.4947 25.6216 40.0975 25.6351 39.6512C25.6569 38.9284 25.0012 33.7933 24.1594 31.4752C24.0953 32.1452 24.034 32.9469 23.9694 33.7928C23.7345 36.8655 23.4421 40.6895 22.7535 41.4061C21.6919 42.5108 14.795 45.3587 14.5019 45.4793L14.4743 45.4907L13.9717 43.8155L13.9891 43.8045C14.0097 43.7915 16.0687 42.4931 17.6243 41.6886C18.1666 41.408 18.6333 41.2123 19.0083 41.0552C19.7306 40.7524 20.1665 40.5696 20.346 40.1361C20.6943 39.2951 20.7714 37.9105 20.8607 36.3071C20.9035 35.5396 20.9477 34.7459 21.026 33.9556C21.2628 31.563 21.012 29.7158 21.0094 29.6973C21.0074 29.6825 21.0177 29.6688 21.0325 29.6667C21.0472 29.6648 21.061 29.675 21.0631 29.6899C21.0657 29.7083 21.3175 31.5615 21.0799 33.961C21.0018 34.7501 20.9576 35.5432 20.9149 36.3101C20.8253 37.9184 20.7479 39.3074 20.3962 40.1568C20.2081 40.6109 19.7643 40.797 19.0292 41.1052C18.6551 41.262 18.1896 41.4572 17.6492 41.7367C16.1718 42.5009 14.2391 43.7114 14.0354 43.8394L14.509 45.4177C14.9981 45.2152 21.6941 42.4302 22.7144 41.3685C23.3896 40.666 23.6811 36.8527 23.9153 33.7887C23.9838 32.8925 24.0485 32.0461 24.1169 31.3528L24.1282 31.2381L24.1692 31.3458C25.0325 33.6122 25.7115 38.9164 25.6893 39.6529C25.6757 40.102 25.6219 40.5003 25.5475 41.0515C25.4622 41.6828 25.3562 42.4685 25.2554 43.7212C25.0773 45.9347 24.897 48.8528 24.8776 49.1695L26.6837 49.2205C26.7738 48.732 28.2379 40.7424 28.2379 38.1337C28.2379 35.1256 27.1483 30.3489 27.0686 30.0038L23.9058 29.7771C23.8909 29.7761 23.8796 29.7631 23.8807 29.7482C23.8817 29.7332 23.8949 29.7225 23.9096 29.723L27.1122 29.9526L27.1168 29.972C27.1285 30.0221 28.2922 35.021 28.2922 38.1337C28.2922 40.8164 26.7484 49.1691 26.7328 49.2532L26.7286 49.276Z" fill="#795DE0"/>
<path d="M26.9632 29.5117C26.9632 29.5117 27.7766 31.2469 28.0641 36.1743C27.4002 36.2137 26.2049 36.2772 24.9064 36.3104C24.7092 35.3928 24.5034 34.3904 24.3297 33.3876C24.2408 34.2885 24.1426 35.3101 24.0263 36.3274C22.7475 36.3438 21.4621 36.3204 20.5566 36.2083C20.5428 35.5361 20.5486 34.4014 20.5645 33.6871C20.6187 31.2469 20.7843 29.6342 20.8356 29.5659C22.0286 29.6744 26.9632 29.5117 26.9632 29.5117Z" fill="#FFB925"/>
<path d="M28.0505 36.2469L24.9267 36.528C24.7819 36.541 24.6539 36.4342 24.6408 36.2893L24.6095 35.9407C24.5964 35.7958 24.7033 35.6678 24.8482 35.6548L27.972 35.3736C28.1169 35.3606 28.2449 35.4674 28.2579 35.6123L28.2892 35.961C28.3023 36.1058 28.1954 36.2338 28.0505 36.2469Z" fill="#BE0215"/>
<path d="M24.05 30.1624C25.351 30.126 26.4977 29.9919 27.1113 29.9076C27.0214 29.6346 26.9638 29.5117 26.9638 29.5117C26.9638 29.5117 22.0292 29.6744 20.8363 29.5659C20.8223 29.5845 20.7998 29.7185 20.7734 29.9517C21.5515 30.0585 22.8287 30.1966 24.05 30.1624Z" fill="#FF5822"/>
<path d="M23.3176 36.3591C22.1476 36.3591 21.2201 36.3176 20.554 36.2351L20.5307 36.2322L20.5302 36.2088C20.5158 35.5148 20.5232 34.3592 20.5381 33.6865L20.5924 33.6876C20.5776 34.3523 20.5702 35.4886 20.5839 36.1841C21.3724 36.2797 22.5223 36.3189 24.0028 36.3005C24.0907 35.5258 24.2613 33.7541 24.3746 32.5777C24.4139 32.1694 24.4473 31.8229 24.4696 31.5967L24.5236 31.602C24.5013 31.8281 24.468 32.1746 24.4286 32.5829C24.3141 33.7717 24.1412 35.5682 24.0539 36.3304L24.0512 36.3541L24.0273 36.3544C23.7817 36.3576 23.545 36.3591 23.3176 36.3591Z" fill="#FF5822"/>
<path d="M22.6442 30.2169L22.6109 30.2146C22.5752 30.2121 22.5485 30.1812 22.5509 30.1456L22.5914 29.5713C22.5938 29.5357 22.6247 29.5089 22.6603 29.5114L22.6937 29.5138C22.7293 29.5163 22.7561 29.5471 22.7536 29.5827L22.7132 30.157C22.7107 30.1926 22.6798 30.2194 22.6442 30.2169Z" fill="#BE0215"/>
<path d="M26.0089 30.1594L25.9756 30.1624C25.94 30.1656 25.9086 30.1394 25.9054 30.1038L25.8538 29.5304C25.8506 29.4949 25.8768 29.4635 25.9124 29.4603L25.9457 29.4573C25.9812 29.4541 26.0127 29.4803 26.0159 29.5158L26.0675 30.0892C26.0707 30.1248 26.0444 30.1562 26.0089 30.1594Z" fill="#BE0215"/>
<path d="M26.6195 30.1028L26.5864 30.1072C26.551 30.1118 26.5186 30.0869 26.5139 30.0515L26.439 29.4807C26.4344 29.4453 26.4594 29.4128 26.4947 29.4082L26.5279 29.4039C26.5632 29.3993 26.5957 29.4241 26.6003 29.4595L26.6752 30.0304C26.6799 30.0657 26.6549 30.0982 26.6195 30.1028Z" fill="#BE0215"/>
<path d="M22.1341 30.2154L22.1009 30.2109C22.0655 30.2062 22.0408 30.1736 22.0455 30.1383L22.1224 29.5677C22.1271 29.5323 22.1596 29.5076 22.195 29.5123L22.2282 29.5167C22.2636 29.5215 22.2883 29.554 22.2836 29.5894L22.2067 30.1599C22.202 30.1953 22.1695 30.2201 22.1341 30.2154Z" fill="#BE0215"/>
<path d="M21.0738 32.6959L21.0645 32.6425C22.7179 32.3521 22.7448 30.8472 22.7449 30.832L22.7991 30.8323C22.799 30.848 22.7714 32.3977 21.0738 32.6959Z" fill="#BE0215"/>
<path d="M27.7018 32.6959C26.0043 32.3977 25.9766 30.848 25.9766 30.8323L26.0308 30.832C26.0308 30.8472 26.0591 32.3523 27.7112 32.6425L27.7018 32.6959Z" fill="#BE0215"/>
<path d="M23.9598 36.5745L20.7134 36.4756C20.5324 36.4701 20.3902 36.319 20.3957 36.138L20.4034 35.8857C20.4089 35.7047 20.56 35.5625 20.741 35.568L23.9875 35.6669C24.1685 35.6724 24.3106 35.8236 24.3051 36.0045L24.2975 36.2568C24.292 36.4378 24.1408 36.58 23.9598 36.5745Z" fill="#BE0215"/>
<path d="M16.2657 45.2197C16.2657 45.2197 15.7872 44.6976 14.9801 44.5821L14.8708 44.5664C14.5672 44.523 14.3856 44.2016 14.5101 43.9213C14.5818 43.7599 14.6249 43.5929 14.5829 43.4668L13.1094 43.7985C13.1094 43.7985 13.9635 47.8864 14.1331 48.1344C14.2754 48.3425 14.7147 48.8599 15.3432 48.9006C15.5516 48.9141 15.7155 48.7232 15.6677 48.5199C15.6111 48.2797 15.5019 47.9584 15.2949 47.7039C15.2949 47.7039 15.6955 46.3378 15.6456 45.6438C15.6456 45.6438 16.518 45.4112 16.2657 45.2197Z" fill="#795DE0"/>
<path d="M15.0185 48.6182C14.4652 48.4313 14.2934 47.9199 14.2934 47.9199L13.4067 43.7314L13.1094 43.7983C13.1094 43.7983 13.9635 47.8862 14.1331 48.1343C14.2754 48.3423 14.7145 48.8596 15.3429 48.9005C15.4774 48.9092 15.593 48.8326 15.6456 48.7227C15.503 48.7284 15.2927 48.7108 15.0185 48.6182Z" fill="#FFB925"/>
<path d="M15.5806 46.3302C15.4108 46.0624 15.0047 45.8849 14.9665 45.8744L14.9733 45.8491L14.9717 45.8481L14.9494 45.8635L14.9473 45.836L14.9703 45.8208H14.9707C15.0004 45.8208 15.4455 46.0158 15.6264 46.3012L15.5806 46.3302Z" fill="#FFB925"/>
<path d="M15.5581 46.6124C15.3883 46.3447 14.9823 46.1671 14.944 46.1566L14.9509 46.1314L14.9493 46.1303L14.9269 46.1458L14.9248 46.1183L14.9479 46.103H14.9482C14.9779 46.103 15.4231 46.2981 15.6039 46.5834L15.5581 46.6124Z" fill="#FFB925"/>
<path d="M15.5024 46.8566C15.3327 46.5888 14.9266 46.4112 14.8883 46.4007L14.8952 46.3755L14.8936 46.3744L14.8713 46.3899L14.8691 46.3624L14.8922 46.3472H14.8925C14.9222 46.3472 15.3673 46.5421 15.5483 46.8275L15.5024 46.8566Z" fill="#FFB925"/>
<path d="M27.2586 48.2781C27.2586 48.2781 26.5506 48.2976 25.9347 48.8318L25.8512 48.9042C25.6195 49.1051 25.2577 49.0318 25.1275 48.7541C25.0525 48.5942 24.9546 48.4522 24.8318 48.4013L24.1172 49.7321C24.1172 49.7321 27.7655 51.7644 28.064 51.7987C28.3145 51.8275 28.9931 51.8345 29.4355 51.3863C29.5823 51.2377 29.5454 50.9887 29.3604 50.8917C29.1419 50.7771 28.8276 50.6491 28.4998 50.6389C28.4998 50.6389 27.7299 49.4413 27.1728 49.0245C27.1728 49.0245 27.5686 48.213 27.2586 48.2781Z" fill="#795DE0"/>
<path d="M29.0096 51.4465C28.5059 51.7422 28.007 51.537 28.007 51.537L24.2614 49.4634L24.1172 49.7319C24.1172 49.7319 27.7654 51.7642 28.064 51.7985C28.3144 51.8273 28.9929 51.8343 29.4354 51.3863C29.53 51.2904 29.5479 51.1529 29.4993 51.0412C29.4102 51.1527 29.2592 51.3001 29.0096 51.4465Z" fill="#FFB925"/>
<path d="M26.8835 49.6941L26.8613 49.6777L26.8649 49.6502C26.8812 49.6292 27.3221 49.4186 27.6577 49.4693L27.6496 49.5229C27.3368 49.4759 26.9359 49.6662 26.9029 49.6884L26.8884 49.6665L26.8865 49.667L26.8835 49.6941Z" fill="#FFB925"/>
<path d="M27.0817 49.8962L27.0596 49.8798L27.0632 49.8524C27.0795 49.8313 27.521 49.6208 27.8559 49.6714L27.8478 49.725C27.5351 49.6781 27.1341 49.8683 27.1011 49.8904L27.0866 49.8687L27.0847 49.8692L27.0817 49.8962Z" fill="#FFB925"/>
<path d="M27.2302 50.098L27.208 50.0815L27.2116 50.0541C27.2279 50.033 27.6687 49.8224 28.0043 49.8731L27.9963 49.9266C27.6828 49.8794 27.2826 50.0701 27.2495 50.0922L27.235 50.0704L27.2331 50.0709L27.2302 50.098Z" fill="#FFB925"/>
<path d="M27.8548 11.9838C27.8548 11.9838 27.7988 11.9532 27.6518 12.3186C27.5902 12.4717 27.465 12.6204 27.3992 12.7076C27.28 12.8657 27.2937 12.9851 27.3115 13.1567L27.3638 13.6594C27.3638 13.6594 27.6219 13.5785 27.6955 13.4563C27.8785 13.152 27.6249 12.834 27.7441 12.6758C27.8886 12.4841 28.0413 12.154 27.8548 11.9838Z" fill="white"/>
<path d="M27.3407 13.6955L27.2849 13.1597C27.2664 12.9816 27.2534 12.8566 27.3779 12.6914C27.3878 12.6783 27.399 12.6637 27.4113 12.6479C27.4808 12.5582 27.5761 12.4353 27.627 12.3087C27.7127 12.0957 27.7828 11.978 27.8354 11.9592C27.8524 11.9531 27.8639 11.9579 27.8681 11.9602L27.8734 11.964C28.0799 12.1527 27.9032 12.5106 27.7661 12.6924C27.7209 12.7524 27.7396 12.8477 27.7613 12.9579C27.7905 13.1064 27.8269 13.2913 27.719 13.4705C27.6411 13.6 27.3832 13.6822 27.3723 13.6856L27.3407 13.6955ZM27.8472 12.0141C27.8295 12.0274 27.7754 12.085 27.6773 12.3289C27.6235 12.4625 27.5256 12.5889 27.4541 12.6812C27.4421 12.6967 27.4309 12.7111 27.4211 12.7241C27.3095 12.8722 27.321 12.9823 27.3384 13.149L27.3876 13.6229C27.4568 13.5975 27.6197 13.5303 27.6726 13.4425C27.7696 13.2812 27.7369 13.115 27.7081 12.9684C27.6839 12.8453 27.663 12.739 27.7228 12.6597C27.8462 12.496 28.0079 12.1796 27.8472 12.0141Z" fill="#795DE0"/>
<path d="M26.2565 19.07C26.2899 18.0387 26.7001 13.7984 26.7001 13.7984C26.7756 13.3674 27.0789 13.0112 27.4923 12.8678C27.4923 12.8678 27.967 12.7369 28.2151 12.2911L28.6064 11.6306C28.63 11.5907 28.6751 11.5688 28.721 11.5748C28.7956 11.5845 28.8412 11.6618 28.8137 11.7319L28.6345 12.2843L29.2878 11.6166C29.3097 11.5924 29.3421 11.5805 29.3744 11.5847C29.4503 11.5946 29.487 11.683 29.4404 11.7438L28.9346 12.4276L29.8776 11.7786C29.932 11.7435 30.3113 11.7334 30.0127 11.9463L28.3457 13.3444C28.1781 13.4786 27.906 13.6664 27.9204 13.8807C27.9204 13.8807 28.0667 18.8503 28.0494 19.2249C28.0149 19.9717 28.0201 21.1421 26.9478 21.4245L26.2565 19.07Z" fill="white"/>
<path d="M26.9288 21.4576L26.2289 19.0735L26.2291 19.0692C26.262 18.0488 26.6687 13.8383 26.6728 13.7959C26.7501 13.3534 27.0604 12.9888 27.483 12.8423C27.4892 12.8405 27.9516 12.7081 28.1911 12.2781L28.5828 11.6168C28.6119 11.5676 28.6675 11.5406 28.7242 11.548C28.768 11.5538 28.8061 11.5789 28.8286 11.617C28.8511 11.6551 28.8548 11.7007 28.8386 11.7419L28.6955 12.1828L29.2681 11.5977C29.2952 11.5677 29.3363 11.5525 29.3776 11.5579C29.423 11.5638 29.4605 11.5927 29.4781 11.6349C29.4955 11.6772 29.4894 11.7241 29.4615 11.7604L29.0525 12.3133L29.8618 11.7563C29.908 11.7264 30.0954 11.7122 30.1418 11.7806C30.1906 11.8526 30.0682 11.9398 30.0281 11.9684L28.3628 13.3653C28.3454 13.3792 28.3274 13.3933 28.3088 13.4079C28.1511 13.5314 27.9351 13.7006 27.947 13.879C27.9531 14.0829 28.0933 18.8549 28.0761 19.2263L28.0712 19.3392C28.0402 20.0711 27.9933 21.1772 26.9543 21.4509L26.9288 21.4576ZM26.2834 19.0666L26.9659 21.3915C27.9415 21.1172 27.9851 20.0892 28.017 19.3369L28.022 19.2238C28.039 18.8545 27.8943 13.9313 27.8929 13.8816C27.879 13.6756 28.1081 13.4962 28.2754 13.3652C28.2939 13.3507 28.3117 13.3367 28.3284 13.3233L29.9949 11.9256C30.0911 11.8569 30.1035 11.8208 30.0969 11.811C30.0736 11.7766 29.9198 11.7836 29.8919 11.8014L28.8159 12.542L29.4182 11.7278C29.4344 11.7067 29.4379 11.6798 29.4279 11.6557C29.4179 11.6315 29.3965 11.615 29.3705 11.6117C29.3471 11.6086 29.3235 11.6173 29.3076 11.6349L28.5727 12.386L28.7875 11.7237C28.7981 11.6966 28.7959 11.6683 28.7819 11.6446C28.7679 11.621 28.7443 11.6053 28.7171 11.6018C28.6819 11.5973 28.6475 11.614 28.6294 11.6445L28.2381 12.3051C27.9877 12.7549 27.519 12.8886 27.4991 12.8941C27.0968 13.0336 26.8002 13.3822 26.7265 13.8032C26.7227 13.8435 26.3173 18.0405 26.2834 19.0666Z" fill="#795DE0"/>
<path d="M24.3581 23.6134L26.2557 19.0702L28.0259 19.6821C28.0259 19.6821 27.8164 23.913 25.8204 24.7745C23.8245 25.6361 24.3581 23.6134 24.3581 23.6134Z" fill="#FF5822"/>
<path d="M22.3616 23.0273C22.3616 23.0273 21.23 21.4564 21.099 20.3098C20.968 19.1633 21.4562 17.7942 22.2971 17.9583C23.138 18.1223 22.3616 23.0273 22.3616 23.0273Z" fill="#0F33FD"/>
<path d="M20.3997 22.7135C20.3997 22.7135 24.1568 21.8268 25.0248 22.1394C25.8929 22.4519 26.2649 23.1893 26.0433 25.3799C25.9755 26.0495 26.9513 28.96 26.9513 28.96C26.9513 28.96 25.8317 28.8669 24.1776 29.1332C22.5235 29.3995 20.8523 29.96 20.8523 29.96L20.3997 22.7135Z" fill="#ADCCFA"/>
<path d="M21.1774 28.6153C21.7581 28.3911 22.5697 28.1134 23.4364 27.927C25.5505 27.4722 26.8412 27.7034 26.8412 27.7034L26.9301 28.2777C26.9301 28.2777 25.017 28.0158 22.8091 28.5564C22.133 28.7219 21.6532 28.8597 21.3128 28.9712C20.5418 29.2239 20.6381 28.8235 21.1774 28.6153Z" fill="#4D68F7"/>
<path d="M21.0658 27.1997C21.6442 26.9776 22.4425 26.7064 23.2938 26.5233C24.6098 26.2402 25.6756 26.2186 26.2927 26.2427C26.6669 26.2572 26.7424 26.8518 26.387 26.8325C25.6213 26.7908 24.1745 26.7835 22.6665 27.1527C21.8967 27.3412 21.3814 27.4936 21.0367 27.6124C20.3927 27.8341 20.5087 27.4135 21.0658 27.1997Z" fill="#4D68F7"/>
<path d="M21.2176 25.9467C21.7527 25.7536 22.4158 25.5439 23.1147 25.3936C24.4649 25.1031 25.5516 25.0879 26.1607 25.1148C26.3378 25.1227 26.224 25.28 26.22 25.4303C26.2161 25.5725 26.3321 25.7086 26.139 25.6991C25.3574 25.6609 23.9513 25.6645 22.4875 26.023C21.9809 26.147 21.5844 26.2554 21.2744 26.3489C20.2331 26.6629 20.473 26.2155 21.2176 25.9467Z" fill="#4D68F7"/>
<path d="M20.9656 25.1606C21.5007 24.9228 22.1828 24.6517 22.9091 24.4442C24.3887 24.0214 26.1197 23.9618 26.1197 23.9618L26.1576 24.5464C26.1576 24.5464 23.9019 24.6146 22.325 25.1138C21.7827 25.2855 21.3701 25.4299 21.056 25.5501C20.1149 25.91 20.2895 25.4611 20.9656 25.1606Z" fill="#4D68F7"/>
<path d="M19.9624 24.6925C19.9624 24.6925 21.3797 23.8976 23.0236 23.4279C24.2684 23.0722 25.2983 22.9732 25.9244 22.9511C26.0448 23.2408 26.0077 23.3618 26.0638 23.532C25.2819 23.5456 23.8778 23.6423 22.4395 24.0976C20.2724 24.7836 20.1742 25.0353 20.1742 25.0353L19.9624 24.6925Z" fill="#4D68F7"/>
<path d="M23.1192 22.8422C22.4348 22.885 21.8429 22.6688 21.6477 22.3365C21.6171 22.4076 21.6026 22.4813 21.6073 22.5563C21.6353 23.0047 22.3243 23.3265 23.1463 23.2752C23.9683 23.2238 24.6119 22.8188 24.5839 22.3704C24.5792 22.2954 24.5556 22.2241 24.5164 22.1573C24.3641 22.5114 23.8037 22.7995 23.1192 22.8422Z" fill="#4D68F7"/>
<path d="M22.1184 22.69C22.1184 22.69 21.5761 22.0696 21.894 21.9411C22.2119 21.8126 23.3428 22.0587 23.3428 22.0587L22.1184 22.69Z" fill="#BE0215"/>
<path d="M22.3633 20.7584L23.8995 20.779L24.0519 22.5685C23.5516 23.3124 22.2884 23.0112 22.0453 22.4161L22.3633 20.7584Z" fill="white"/>
<path d="M25.3086 23.5732C25.3086 23.5732 25.7561 24.6215 25.8664 25.5175C25.9767 26.4134 26.5828 28.8025 26.8801 28.9559C27.1774 29.1094 27.5021 29.0891 27.6035 28.9741C27.705 28.8591 27.9081 28.7412 27.7271 28.3976C27.5461 28.054 27.4243 28.7136 26.9542 27.276C26.4841 25.8384 25.985 23.9001 25.985 23.9001L25.3086 23.5732Z" fill="#FF5822"/>
<path d="M24.6593 22.0494L24.1605 21.5777C24.1605 21.5777 24.3289 22.2799 24.0162 22.5157C23.7034 22.7516 23.8527 23.1901 23.8527 23.1901C23.8527 23.1901 24.3081 23.026 24.455 22.853C24.6019 22.68 24.6593 22.0494 24.6593 22.0494Z" fill="#FF5822"/>
<path d="M22.2615 23.067C22.2615 23.067 21.5291 23.4748 21.5761 23.8083C21.7318 24.9142 21.674 25.9431 22.1036 27.0353C22.6 28.2968 21.9445 28.8381 21.6841 29.0174C21.4237 29.1966 20.0407 29.2287 19.9187 29.2363C19.7966 29.2439 20.2128 27.2077 20.2297 26.609C20.2466 26.0103 20.0165 23.5433 19.9525 23.0404C19.8776 22.4524 20.8173 22.3832 21.6116 22.2654C22.0192 22.205 22.2615 23.067 22.2615 23.067Z" fill="#FF5822"/>
<path d="M22.1777 21.7274C22.5361 21.76 23.0084 21.7379 23.4111 21.553C23.6334 21.4509 23.8031 21.3213 23.9343 21.185L23.8997 20.7792L22.3637 20.7586L22.1777 21.7274Z" fill="#795DE0"/>
<path d="M21.8945 21.9412C21.8945 21.9412 21.6375 22.1745 22.5947 22.7124C22.9845 22.9315 23.1059 23.3175 23.1059 23.3175C23.1059 23.3175 22.5572 23.3824 22.3188 23.2808C22.1609 23.2134 21.8757 22.9187 21.7014 22.7277C21.6808 22.7051 21.6583 22.6643 21.6358 22.6142C21.5203 22.3578 21.6379 22.0561 21.8945 21.9412Z" fill="#FF5822"/>
<path d="M13.1554 14.8167C13.1062 14.8221 12.8733 14.8428 12.7593 14.7654C12.5864 14.6478 12.5421 14.4647 12.5065 14.3176C12.48 14.2083 12.4572 14.1139 12.3911 14.0784C12.1905 13.9706 11.8801 13.7195 11.9888 13.4618L11.992 13.4561C11.9948 13.4523 12.0025 13.4439 12.0213 13.4415C12.077 13.4366 12.1899 13.5141 12.3569 13.6717C12.4561 13.7653 12.5939 13.8371 12.6945 13.8895C12.7123 13.8988 12.7287 13.9073 12.7433 13.9151C12.9255 14.013 12.966 14.1321 13.022 14.2969L13.1972 14.8114L13.1643 14.8157C13.1633 14.8159 13.1602 14.8162 13.1554 14.8167ZM12.0335 13.4963C11.9568 13.7138 12.236 13.9336 12.4167 14.0306C12.5042 14.0776 12.5297 14.1829 12.5592 14.3048C12.5943 14.45 12.6342 14.6147 12.7899 14.7206C12.8745 14.7782 13.0506 14.7711 13.1241 14.7651L12.9723 14.319C12.9167 14.1556 12.881 14.0506 12.7176 13.9629C12.7032 13.9551 12.687 13.9468 12.6695 13.9376C12.566 13.8837 12.4244 13.81 12.3196 13.7111C12.1284 13.5306 12.0552 13.501 12.0335 13.4963Z" fill="#795DE0"/>
<path d="M13.1554 14.8167C13.1062 14.8221 12.8733 14.8428 12.7593 14.7654C12.5864 14.6478 12.5421 14.4647 12.5065 14.3176C12.48 14.2083 12.4572 14.1139 12.3911 14.0784C12.1905 13.9706 11.8801 13.7195 11.9888 13.4618L11.992 13.4561C11.9948 13.4523 12.0025 13.4439 12.0213 13.4415C12.077 13.4366 12.1899 13.5141 12.3569 13.6717C12.4561 13.7653 12.5939 13.8371 12.6945 13.8895C12.7123 13.8988 12.7287 13.9073 12.7433 13.9151C12.9255 14.013 12.966 14.1321 13.022 14.2969L13.1972 14.8114L13.1643 14.8157C13.1633 14.8159 13.1602 14.8162 13.1554 14.8167ZM12.0335 13.4963C11.9568 13.7138 12.236 13.9336 12.4167 14.0306C12.5042 14.0776 12.5297 14.1829 12.5592 14.3048C12.5943 14.45 12.6342 14.6147 12.7899 14.7206C12.8745 14.7782 13.0506 14.7711 13.1241 14.7651L12.9723 14.319C12.9167 14.1556 12.881 14.0506 12.7176 13.9629C12.7032 13.9551 12.687 13.9468 12.6695 13.9376C12.566 13.8837 12.4244 13.81 12.3196 13.7111C12.1284 13.5306 12.0552 13.501 12.0335 13.4963Z" fill="#795DE0"/>
<path d="M16.1756 19.6925C15.7138 18.7698 13.5668 15.0903 13.5668 15.0903C13.3179 14.7304 12.8935 14.5337 12.458 14.5766C12.458 14.5766 11.972 14.6563 11.5601 14.3553L10.9315 13.9213C10.8985 13.8985 10.8555 13.8915 10.8185 13.9072C10.7392 13.9408 10.7235 14.0412 10.7825 14.0978L11.1763 14.5246L10.3035 14.1915C10.2736 14.1787 10.2392 14.1815 10.2116 14.1988C10.1468 14.2396 10.1505 14.3353 10.2183 14.3709L10.9637 14.7803L9.8357 14.5854C9.77157 14.5763 9.42282 14.7259 9.78316 14.7943L11.8822 15.3666C12.0907 15.4182 12.4164 15.475 12.493 15.6756C12.493 15.6756 14.4396 20.2505 14.6121 20.5835C14.9559 21.2473 15.441 22.3124 16.5331 22.1202L16.1756 19.6925Z" fill="white"/>
<path d="M16.4375 22.1613C15.4471 22.2703 14.9632 21.3273 14.6395 20.6963L14.5878 20.5959C14.4168 20.2658 12.5473 15.8731 12.4678 15.6862C12.4036 15.5183 12.1367 15.455 11.9418 15.4088C11.9188 15.4033 11.8965 15.398 11.8754 15.3929L9.77584 14.8204C9.72939 14.8117 9.58172 14.7836 9.59594 14.6978C9.60945 14.6163 9.78555 14.5513 9.83929 14.5586L10.8082 14.7259L10.205 14.3946C10.1649 14.3735 10.1396 14.3335 10.1378 14.2877C10.1361 14.242 10.1582 14.2002 10.1969 14.1758C10.232 14.1537 10.2758 14.1502 10.314 14.1666L11.0778 14.4581L10.7623 14.1162C10.7287 14.0841 10.7132 14.0358 10.7219 13.9884C10.7307 13.9403 10.762 13.9016 10.8077 13.8822C10.8514 13.8636 10.9047 13.87 10.9467 13.899L11.5753 14.333C11.9733 14.6238 12.4488 14.5506 12.4533 14.5498C12.9001 14.5058 13.3346 14.7071 13.5889 15.0748C13.6115 15.1134 15.7427 18.7674 16.1996 19.6804L16.2022 19.6885L16.5636 22.1424L16.5376 22.147C16.5037 22.1529 16.4702 22.1576 16.4375 22.1613ZM9.82064 14.6123C9.77582 14.6172 9.65568 14.6691 9.64945 14.7067C9.6475 14.7183 9.67404 14.746 9.78803 14.7676L11.8892 15.3404C11.9095 15.3454 11.9314 15.3506 11.9543 15.356C12.1609 15.405 12.444 15.4721 12.5181 15.6659C12.5371 15.7107 14.4659 20.2427 14.636 20.571L14.6877 20.6716C15.0315 21.3415 15.5024 22.2569 16.5022 22.0979L16.1492 19.7008C15.6889 18.7829 13.5646 15.1407 13.5432 15.1039C13.3011 14.7542 12.8858 14.5617 12.4604 14.6035C12.4418 14.6067 11.9602 14.6815 11.5439 14.3772L10.9158 13.9436C10.889 13.9251 10.8558 13.9207 10.8289 13.9321C10.8002 13.9443 10.7806 13.9683 10.7752 13.9982C10.7698 14.0276 10.7794 14.0575 10.801 14.0782L11.2743 14.5911L10.2937 14.2168C10.2708 14.207 10.2459 14.2091 10.2258 14.2217C10.2036 14.2356 10.1911 14.2596 10.192 14.2856C10.1931 14.3118 10.2075 14.3347 10.2306 14.3468L11.1187 14.8346L9.83082 14.6121C9.82815 14.6117 9.82471 14.6118 9.82064 14.6123Z" fill="#795DE0"/>
<path d="M20.5169 25.77C20.5169 25.77 15.0286 21.9018 14.9457 21.2042C14.8628 20.5066 16.1738 19.6925 16.1738 19.6925C16.1738 19.6925 19.5857 22.2569 20.187 22.774C20.7883 23.2911 20.5169 25.77 20.5169 25.77Z" fill="#FF5822"/>
<path d="M22.5049 18.2483C22.5049 18.2483 21.934 17.4028 23.1949 17.4651C24.4558 17.5275 24.7253 18.9082 24.9086 19.9515C25.0919 20.9948 25.6509 21.4812 26.1656 21.6654C26.761 21.8784 27.4772 21.8995 27.608 22.5389C27.7492 23.2296 27.442 24.3023 26.228 24.1965C24.8774 24.0787 24.4836 23.0469 24.1364 22.1865C23.7624 21.2599 23.7396 20.0422 23.725 19.6886C23.7104 19.335 22.5049 18.2483 22.5049 18.2483Z" fill="#0F33FD"/>
<path d="M21.5709 19.6744C21.5526 19.4908 21.7013 19.5101 21.8128 19.549L21.752 19.1993C21.6521 18.6254 22.0364 18.0794 22.6102 17.9796L22.6282 17.9764C23.202 17.8765 23.7481 18.2608 23.848 18.8346L24.0608 20.0579C24.1607 20.6317 23.7765 21.1777 23.2026 21.2776L23.1846 21.2807C22.6108 21.3806 22.0647 20.9963 21.9648 20.4226L21.8964 20.0295C21.7617 19.9652 21.5883 19.8496 21.5709 19.6744Z" fill="white"/>
<path d="M23.4306 19.5906C23.448 19.6736 23.507 19.7316 23.5624 19.72C23.6178 19.7084 23.6486 19.6317 23.6312 19.5487C23.6138 19.4656 23.5548 19.4076 23.4994 19.4192C23.444 19.4308 23.4132 19.5075 23.4306 19.5906Z" fill="#795DE0"/>
<path d="M23.6453 19.4335C23.524 19.3945 23.3853 19.4262 23.2939 19.5154C23.2762 19.5325 23.3017 19.5614 23.3194 19.544C23.4012 19.4644 23.524 19.4348 23.6328 19.4698C23.6564 19.4774 23.6689 19.4411 23.6453 19.4335Z" fill="#795DE0"/>
<path d="M22.6204 19.7338C22.6416 19.8159 22.7032 19.871 22.758 19.8569C22.8128 19.8428 22.84 19.7647 22.8187 19.6825C22.7975 19.6003 22.7359 19.5452 22.6811 19.5593C22.6264 19.5735 22.5992 19.6516 22.6204 19.7338Z" fill="#795DE0"/>
<path d="M22.8281 19.5673C22.7052 19.534 22.568 19.5711 22.4807 19.6645C22.4639 19.6824 22.4893 19.7114 22.5062 19.6933C22.584 19.6101 22.7052 19.5737 22.8156 19.6037C22.8393 19.6101 22.852 19.5738 22.8281 19.5673Z" fill="#795DE0"/>
<path d="M23.638 19.1508C23.5197 19.1054 23.3908 19.0929 23.2658 19.1134C23.217 19.1214 23.2321 19.1967 23.2809 19.1887C23.3928 19.1704 23.5072 19.1828 23.613 19.2234C23.6593 19.2412 23.6841 19.1685 23.638 19.1508Z" fill="#795DE0"/>
<path d="M22.4892 19.3532C22.5766 19.2922 22.6832 19.2608 22.7895 19.2618C22.8116 19.262 22.8315 19.247 22.8332 19.2241C22.8347 19.2031 22.8176 19.1806 22.7954 19.1804C22.6653 19.1791 22.5416 19.2178 22.435 19.2922C22.4169 19.3048 22.4182 19.3347 22.4316 19.3498C22.4476 19.3679 22.4711 19.3659 22.4892 19.3532Z" fill="#795DE0"/>
<path d="M23.0462 19.6238C23.0601 19.7982 23.1799 19.9314 23.2932 20.054C23.3207 20.0838 23.3568 20.116 23.3658 20.1573C23.3781 20.2137 23.3339 20.2355 23.2887 20.2506C23.2076 20.2776 23.1201 20.304 23.0352 20.2789C23.0115 20.2719 22.9989 20.3083 23.0226 20.3153C23.1132 20.342 23.2037 20.3185 23.2907 20.29C23.3256 20.2787 23.364 20.2675 23.3872 20.2369C23.4092 20.2076 23.4108 20.1687 23.399 20.1349C23.3843 20.0928 23.3516 20.0605 23.3219 20.0285C23.2854 19.989 23.2487 19.9496 23.215 19.9077C23.1467 19.8229 23.0927 19.7265 23.0838 19.6163C23.0818 19.5917 23.0442 19.5994 23.0462 19.6238Z" fill="#795DE0"/>
<path d="M23.1206 20.6412C23.1075 20.6595 23.0943 20.6777 23.0812 20.696C23.075 20.7046 23.072 20.7129 23.0606 20.7121C23.0522 20.7115 23.0436 20.7095 23.0354 20.7075C23.0021 20.6994 22.9708 20.6853 22.9424 20.6661C22.886 20.6281 22.8427 20.5705 22.8245 20.5047C22.818 20.481 22.7803 20.4884 22.7869 20.5122C22.8089 20.5921 22.8614 20.6615 22.9319 20.7051C22.9666 20.7265 23.0045 20.7411 23.0446 20.7484C23.0686 20.7528 23.0878 20.7503 23.1037 20.7302C23.1209 20.7085 23.1363 20.685 23.1526 20.6625C23.167 20.6424 23.1351 20.6212 23.1206 20.6412Z" fill="#795DE0"/>
<path d="M21.9501 17.871C22.1078 17.7617 22.3267 17.7726 22.4625 17.9083C22.5358 17.9816 22.9042 18.3349 22.5956 18.7282C22.401 18.9762 22.205 19.0835 22.0955 19.2702C21.964 19.4945 21.9385 19.7751 21.9385 19.7751C21.9385 19.7751 20.9829 18.542 21.9501 17.871Z" fill="#0F33FD"/>
<path d="M22.593 17.7425C22.593 17.7425 22.4497 17.6613 22.4848 18.1469C22.5199 18.6324 22.7822 18.7 23.2146 18.8579C23.6469 19.0158 24.1297 19.3009 24.1433 19.6052C24.1517 19.7917 24.1043 19.3091 24.0665 18.9076C24.018 18.3928 23.6796 17.94 23.1879 17.7803C23.0126 17.7233 22.8131 17.701 22.593 17.7425Z" fill="#0F33FD"/>
<path d="M21.9426 19.8019C21.9401 19.8024 21.9375 19.8025 21.9348 19.8023C21.9199 19.801 21.9089 19.7878 21.9102 19.7729C21.9113 19.7612 21.9378 19.4836 22.0708 19.2567C22.1308 19.1543 22.2137 19.0772 22.3095 18.9879C22.3908 18.9123 22.4828 18.8266 22.573 18.7116C22.7044 18.5442 22.7891 18.2731 22.4466 17.9322L22.4421 17.9277C22.4314 17.9171 22.4314 17.8999 22.442 17.8893C22.4527 17.8788 22.4697 17.8787 22.4803 17.8893L22.4848 17.8937C22.8555 18.2628 22.7606 18.5604 22.6157 18.7451C22.5229 18.8634 22.4292 18.9507 22.3465 19.0276C22.2537 19.114 22.1736 19.1886 22.1176 19.2841C21.9909 19.5003 21.9645 19.775 21.9643 19.7778C21.9632 19.79 21.9541 19.7996 21.9426 19.8019Z" fill="#795DE0"/>
<path d="M25.2458 22.7336C25.2422 22.7343 25.2386 22.7343 25.2349 22.7335C24.7959 22.6409 24.5485 22.1484 24.47 21.7548C24.4408 21.6085 24.4482 21.4031 24.4566 21.1653C24.4858 20.3391 24.5259 19.2077 23.2086 18.8843C22.9545 18.8219 22.7718 18.7585 22.6467 18.6353C22.636 18.6248 22.6359 18.6077 22.6464 18.597C22.6568 18.5864 22.674 18.5861 22.6847 18.5967C22.801 18.7112 22.9764 18.7715 23.2215 18.8317C24.5817 19.1655 24.539 20.3701 24.5108 21.1671C24.5025 21.4016 24.4953 21.6042 24.5232 21.7442C24.5984 22.1216 24.8329 22.5933 25.246 22.6805C25.2607 22.6836 25.2701 22.698 25.267 22.7126C25.2647 22.7235 25.256 22.7316 25.2458 22.7336Z" fill="#795DE0"/>
</g>
</g>
</g>
<defs>
<clipPath id="clip0_90_466">
<rect width="64" height="64" fill="white" transform="translate(0 0.523438)"/>
</clipPath>
</defs>
</svg>
