<svg width="64" height="53" viewBox="0 0 64 53" fill="none" xmlns="http://www.w3.org/2000/svg">
<g clip-path="url(#clip0_90_464)">
<mask id="mask0_90_464" style="mask-type:luminance" maskUnits="userSpaceOnUse" x="0" y="0" width="64" height="53">
<path d="M64 0.286133H0V52.7612H64V0.286133Z" fill="white"/>
</mask>
<g mask="url(#mask0_90_464)">
<path d="M59.2617 49.5368H3.98554C3.96008 49.5368 3.93945 49.5078 3.93945 49.4719C3.93945 49.436 3.96008 49.407 3.98554 49.407H59.2617C59.2871 49.407 59.3077 49.436 59.3077 49.4719C59.3077 49.5078 59.2871 49.5368 59.2617 49.5368Z" fill="#9CB591"/>
<path d="M14.6894 48.8325C14.6629 48.8547 14.6355 48.8766 14.6085 48.8976C14.5766 48.9226 14.5443 48.9465 14.5116 48.9694C14.1372 49.2358 13.7139 49.395 13.282 49.451C12.9807 49.4899 12.6754 49.4781 12.3792 49.4174C12.3574 49.4134 12.336 49.4085 12.3149 49.4033C12.1283 49.361 11.9459 49.2984 11.7706 49.2165C11.4194 49.0531 11.0976 48.812 10.8322 48.4958C10.6068 48.2273 10.4417 47.9284 10.336 47.6152C10.3296 47.5976 10.3239 47.5802 10.3188 47.5622C10.1657 47.0798 10.1517 46.5657 10.2707 46.0806C10.2746 46.064 10.2791 46.0474 10.2835 46.0309C10.4231 45.5051 10.7203 45.0153 11.1686 44.6389C11.2422 44.5771 11.3183 44.5198 11.396 44.4669C11.8939 44.1297 12.4724 43.9769 13.0413 44.0004C13.6135 44.0239 14.1768 44.2261 14.641 44.599C14.7789 44.7095 14.9077 44.835 15.0254 44.9753C15.3038 45.3069 15.49 45.6846 15.5868 46.0783C15.6926 46.5057 15.6925 46.9511 15.591 47.3753C15.4659 47.8989 15.1852 48.39 14.7566 48.7738C14.7348 48.7937 14.7122 48.8133 14.6894 48.8325Z" fill="white"/>
<path d="M10.6215 46.4065C10.6213 46.4062 10.621 46.4059 10.621 46.4059L10.4448 46.2093L10.2843 46.0308C10.2798 46.0473 10.2753 46.0639 10.2715 46.0805L10.4129 46.2378L10.4132 46.2381L10.5891 46.4343C10.5971 46.4432 10.6104 46.4438 10.6196 46.4361C10.6281 46.4284 10.6286 46.4151 10.6215 46.4065Z" fill="#431207"/>
<path d="M11.9041 48.7913L11.9038 48.791L11.1527 47.7809L10.9437 47.4993C10.942 47.4973 10.9398 47.4953 10.9372 47.4936L10.5311 47.2582C10.5213 47.2525 10.5082 47.2556 10.5022 47.2657L10.4309 47.3818L10.3203 47.5623C10.3254 47.5803 10.3311 47.5977 10.3375 47.6152L10.5275 47.3058L10.9121 47.5281L11.1223 47.811L11.1225 47.8113L11.8687 48.8143L11.9877 48.9747L12.3165 49.4034C12.3375 49.4085 12.3589 49.4134 12.3807 49.4175L12.0215 48.9491L11.9041 48.7913Z" fill="#431207"/>
<path d="M13.572 49.1945L13.4278 49.2358L12.8859 48.9516L12.9792 48.7713L13.4483 47.8679L13.5791 47.6153C13.5813 47.6113 13.582 47.6068 13.5815 47.6028C13.5792 47.5835 13.5197 47.1329 13.258 46.9406C13.1574 46.8667 13.0405 46.8417 12.9103 46.8652C12.8577 46.8748 12.8006 46.8825 12.7407 46.8888C12.3338 46.9321 11.7965 46.9056 11.5464 46.8893C11.4839 46.8854 11.4394 46.882 11.4196 46.8803L11.0248 46.1253C11.0375 46.0873 11.0527 46.0483 11.0701 46.0086C11.2286 45.6397 11.5617 45.209 11.7555 44.975C11.8273 44.8879 11.8801 44.828 11.8972 44.8085L12.7994 44.7876L12.8718 44.9402L13.3727 45.9976C13.3735 45.9985 13.3743 46.0001 13.3751 46.0011L13.3789 46.0063L14.4971 47.4551L14.4973 47.4554L14.5009 47.4603C14.502 47.4616 14.5033 47.4632 14.5048 47.4642L15.1006 47.929L15.2227 48.0239C15.2321 48.031 15.2455 48.0292 15.2527 48.0198C15.2599 48.0104 15.258 47.997 15.249 47.9901L15.1292 47.8966L14.533 47.4322L14.5159 47.4098L13.4261 45.9968L13.4105 45.977L12.9092 44.9189L12.8321 44.7567C12.8285 44.7491 12.8208 44.7439 12.8123 44.7444L11.8867 44.7661C11.8809 44.7665 11.8755 44.7688 11.8715 44.7733C11.8695 44.7756 11.8112 44.8401 11.7251 44.9441L11.7254 44.9445C11.5323 45.1774 11.1988 45.6074 11.0353 45.981C11.0142 46.0283 10.9961 46.0752 10.9813 46.1205C10.9799 46.1262 10.9803 46.1319 10.9829 46.137L11.3869 46.9105C11.3903 46.9166 11.3969 46.9211 11.4041 46.9217C11.4065 46.9219 11.4546 46.9261 11.5342 46.9312C11.7819 46.9479 12.3334 46.9755 12.7497 46.9308C12.8091 46.9245 12.8655 46.9167 12.9178 46.9074C13.0364 46.8859 13.142 46.9087 13.2326 46.9748C13.4633 47.144 13.5297 47.5459 13.5382 47.6018L13.4092 47.8505L12.9382 48.7583L12.8384 48.9508C12.833 48.9609 12.837 48.9743 12.8474 48.9795L13.4154 49.2775C13.4203 49.2801 13.426 49.2808 13.4313 49.2792L13.5171 49.2545L14.5126 48.9695C14.5452 48.9466 14.5776 48.9227 14.6095 48.8977L13.572 49.1945Z" fill="#431207"/>
<path d="M13.1705 44.3482C13.1795 44.3479 14.0793 44.3221 14.7211 44.7535L15.0908 45.5184C15.038 45.5975 14.674 46.1271 14.2103 46.4259C14.2004 46.4323 14.1975 46.4455 14.2039 46.4555C14.2044 46.4563 14.2049 46.457 14.2056 46.4577C14.2124 46.4658 14.2243 46.4677 14.2334 46.4618C14.7407 46.1349 15.1293 45.5376 15.1332 45.5316C15.1372 45.5253 15.1377 45.5174 15.1345 45.5107L14.757 44.7298C14.7554 44.7264 14.7529 44.7235 14.7498 44.7214C14.096 44.2788 13.1782 44.3053 13.169 44.3056C13.1572 44.306 13.148 44.3159 13.1485 44.3276C13.1488 44.3393 13.1586 44.3485 13.1705 44.3482Z" fill="#431207"/>
<path d="M14.4574 46.2649L13.3906 45.9883L12.7285 46.9037L13.4258 47.8762L14.5163 47.4474L14.4574 46.2649Z" fill="#431207"/>
<path d="M12.889 44.9399L12.8714 44.9401L11.755 44.9749L11.7462 44.9751L11.7246 44.944L11.3965 44.4669C11.8944 44.1297 12.4729 43.9769 13.0418 44.0004L13.4046 44.3124L13.443 44.3454L13.4322 44.3572L12.9087 44.9188L12.889 44.9399Z" fill="#431207"/>
<path d="M11.053 45.9731C11.053 45.9731 11.3212 46.6122 11.5503 46.8969C11.5503 46.8969 11.1448 47.6446 11.1455 47.8229C11.1455 47.8229 10.6411 47.594 10.4366 47.4046C10.4366 47.4046 10.238 46.8958 10.4157 46.22L11.053 45.9731Z" fill="#431207"/>
<path d="M15.5867 46.0784C15.3844 45.8826 15.1422 45.695 15.0609 45.634C15.0433 45.6203 15.033 45.6128 15.033 45.6128C15.0324 45.6094 15.0318 45.606 15.0312 45.6026C14.9787 45.2704 14.7034 44.837 14.5958 44.6777C14.5692 44.638 14.5527 44.6151 14.5527 44.6151L14.5657 44.6126L14.6408 44.5991C14.7788 44.7097 14.9075 44.8351 15.0253 44.9754C15.3036 45.307 15.4898 45.6847 15.5867 46.0784Z" fill="#431207"/>
<path d="M15.5903 47.3755C15.4652 47.8991 15.1845 48.3902 14.7559 48.774L15.0889 47.9403L15.0989 47.9291L15.1275 47.8967L15.5903 47.3755Z" fill="#431207"/>
<path d="M13.5818 49.1999L13.2829 49.4509C12.9816 49.4897 12.6763 49.478 12.38 49.4173C12.3583 49.4132 12.3369 49.4083 12.3158 49.4032C12.1292 49.3608 11.9467 49.2983 11.7715 49.2163L11.868 48.8141L11.8751 48.7847C11.8843 48.787 11.8937 48.7888 11.9032 48.7908L11.9034 48.7911C12.2843 48.871 12.8208 48.7796 12.9381 48.758C12.9535 48.7551 12.9616 48.7534 12.9616 48.7534C12.9671 48.7594 12.9733 48.7654 12.9791 48.771C13.1946 48.9837 13.5117 49.1617 13.5719 49.1942C13.5783 49.1979 13.5818 49.1999 13.5818 49.1999Z" fill="#431207"/>
<path d="M9.31039 44.4741L9.48208 44.7694L9.79531 44.7605L9.9158 44.3767L10.1997 44.8031L10.4903 44.7563L10.5939 44.2677L10.7809 44.7096L11.1522 44.6499L11.2639 44.16L11.4348 44.6045L11.6204 44.5746L11.7583 44.0804L12.8451 43.8477L12.9282 44.3644L13.1623 44.3268L13.3134 43.7724L13.3964 44.2891L13.6305 44.2515L13.725 43.7063L13.905 44.2074L14.0745 44.1801L14.1131 43.5445L9.68705 44.1899L9.31039 44.4741Z" fill="#431207"/>
<path d="M10.2961 32.7458C10.2961 32.7458 9.73926 31.457 10.4472 30.5844C11.1551 29.7118 12.9547 28.5837 12.9547 28.5837L14.9388 31.8205L12.9544 33.2063L10.2961 32.7458Z" fill="#431207"/>
<path d="M13.5929 42.0037C13.0923 42.1688 12.6448 42.3438 12.1959 42.5179C11.969 41.8571 11.84 41.2258 11.7102 40.5945C11.6783 40.4398 11.6458 40.2837 11.5742 40.1421C11.5081 40.0119 11.4104 39.9002 11.3365 39.7743C11.2157 39.5672 11.1621 39.3282 11.1108 39.0949C10.9322 38.285 10.7536 37.4751 10.575 36.6651C10.4885 36.2748 10.4142 35.8267 10.6553 35.5076C10.5858 34.9123 10.5079 34.3101 10.426 33.7049L10.3838 33.3915C10.3546 33.177 10.3256 32.9618 10.2957 32.7466C10.0278 31.9614 10.635 31.4258 10.5185 30.725C11.7655 30.5308 11.9914 30.2706 13.0325 30.1592C12.7862 30.8215 12.8559 31.5604 13.0274 32.245C13.082 32.4606 13.1456 32.6748 13.2122 32.8878C13.2483 33.0027 13.2851 33.1177 13.3219 33.2327C13.433 33.5778 13.5413 33.9234 13.6186 34.2772C14.1704 36.8041 13.0916 39.4652 13.5929 42.0037Z" fill="#795DE0"/>
<path d="M11.874 35.7176C11.8003 35.7124 11.6312 35.6708 11.1994 35.5385C11.1658 35.5282 11.1465 35.493 11.1559 35.4592C11.1653 35.4253 11.1999 35.405 11.2341 35.4136L11.8815 35.5748C11.9248 35.5856 11.9497 35.6052 11.9576 35.6347C11.9637 35.6575 11.9566 35.6833 11.9396 35.6997C11.928 35.7109 11.9179 35.7206 11.874 35.7176Z" fill="#795DE0"/>
<path d="M12.2575 39.8611C12.2374 39.8597 12.2182 39.8489 12.2068 39.8305C12.188 39.8 12.1974 39.76 12.2278 39.7412C12.4523 39.6024 12.4774 39.2782 12.4743 39.0113C12.4666 38.3469 12.4082 37.6776 12.3009 37.0219C12.2951 36.9865 12.3191 36.9532 12.3544 36.9474C12.3899 36.9415 12.4231 36.9656 12.4289 37.0009C12.5373 37.663 12.5962 38.3389 12.6041 39.0098C12.6076 39.3109 12.5757 39.6786 12.2961 39.8515C12.2841 39.859 12.2706 39.862 12.2575 39.8611Z" fill="#795DE0"/>
<path d="M13.593 42.0028C13.593 42.0028 12.9823 42.302 12.6322 42.0974C12.282 41.8929 12.0789 41.7889 11.6925 42.0125C11.3062 42.2361 10.8843 43.012 10.0913 43.4873C9.29816 43.9626 9.03243 44.2413 9.03697 44.5014C9.04152 44.7616 11.7805 44.2591 12.3301 44.0465C12.8797 43.8339 13.4186 43.9375 13.9769 43.7817C14.397 43.6645 14.3317 43.3354 14.0722 42.8803C13.8127 42.4252 13.593 42.0028 13.593 42.0028Z" fill="#EDAE63"/>
<path d="M13.7946 42.3805L11.9559 43.0574L11.3758 43.8274L12.6746 43.66L12.1903 43.3818L13.9153 42.6008L13.7946 42.3805Z" fill="white"/>
<path d="M12.6116 43.4017C12.396 43.3866 12.1346 43.106 12.0842 42.8285C12.0139 42.4417 11.9186 42.103 11.9177 42.0996C11.9079 42.0651 11.928 42.0293 11.9625 42.0195C11.9969 42.0098 12.0329 42.0299 12.0426 42.0643C12.0436 42.0678 12.1404 42.4125 12.2118 42.8052C12.2558 43.0475 12.4853 43.2737 12.6307 43.2726C12.6515 43.2724 12.715 43.2719 12.7365 43.1404C12.7874 42.8285 12.3037 42.3461 12.1129 42.1865C12.0854 42.1635 12.0818 42.1226 12.1048 42.0951C12.1278 42.0677 12.1687 42.064 12.1962 42.087C12.2265 42.1123 12.9377 42.7133 12.8646 43.1613C12.8293 43.3773 12.6901 43.4018 12.6319 43.4024C12.6252 43.4025 12.6184 43.4022 12.6116 43.4017Z" fill="#431207"/>
<path d="M13.3219 33.2327C13.3219 33.2327 12.0996 33.5867 10.426 33.7049L10.3838 33.3915C10.3546 33.177 10.3256 32.9618 10.2957 32.7466C10.0278 31.9614 10.635 31.4258 10.5185 30.725C11.7655 30.5308 11.9914 30.2706 13.0325 30.1592C12.7862 30.8215 12.8559 31.5604 13.0274 32.245C13.082 32.4606 13.1456 32.6748 13.2122 32.8878C13.2483 33.0027 13.2851 33.1177 13.3219 33.2327Z" fill="#431207"/>
<path d="M19.9198 30.2252L13.5997 33.602L10.4922 29.6293C10.4922 29.6293 13.5075 27.5608 15.4746 25.9029C17.4417 24.2451 21.2087 22.69 21.2087 22.69L24.4757 27.2366L19.9198 30.2252Z" fill="#39A08F"/>
<path d="M21.3496 35.9402C21.3496 35.9402 21.5787 37.481 21.8093 38.123C21.8251 38.1671 21.841 38.207 21.8568 38.2422C22.1017 38.7858 22.0529 40.2736 22.0529 40.2736C22.0529 40.2736 21.8567 40.4133 21.9221 41.4387C21.9875 42.4647 22.1671 44.3619 22.1671 44.3619L22.3632 44.9338V47.7408L23.8517 47.6507C23.8517 47.6507 24.6039 43.5768 24.7346 42.645C24.8654 41.7125 25.0615 40.2735 24.8984 39.2269C24.8358 38.8256 24.7656 38.4603 24.7147 38.123C24.6314 37.5808 24.597 37.1094 24.7181 36.6759C24.9142 35.9733 24.9604 35.5645 24.9604 35.5645L21.3496 35.9402Z" fill="#795DE0"/>
<path d="M23.8182 42.1873C23.8169 42.1873 23.8157 42.1873 23.8145 42.1872C23.7787 42.1852 23.7514 42.1545 23.7534 42.1187C23.7539 42.1101 23.8015 41.2528 23.7538 40.887C23.7224 40.6465 22.9964 40.4121 22.5461 40.3208C22.511 40.3137 22.4883 40.2795 22.4954 40.2444C22.5026 40.2093 22.5368 40.1866 22.5719 40.1937C22.7004 40.2197 23.829 40.46 23.8825 40.8703C23.9318 41.248 23.8849 42.0904 23.8829 42.1261C23.8809 42.1606 23.8523 42.1873 23.8182 42.1873Z" fill="#795DE0"/>
<path d="M23.1547 44.9206C23.1374 44.9206 23.1201 44.9138 23.1073 44.9001C23.0829 44.8739 23.0842 44.8329 23.1104 44.8084L23.4636 44.478C23.4897 44.4535 23.5308 44.4548 23.5553 44.481C23.5797 44.5071 23.5784 44.5482 23.5522 44.5727L23.199 44.9031C23.1865 44.9148 23.1706 44.9206 23.1547 44.9206Z" fill="#795DE0"/>
<path d="M21.3496 35.9402C21.3496 35.9402 21.5787 37.481 21.8093 38.123H24.7147C24.6314 37.5808 24.597 37.1094 24.7181 36.6759C24.9142 35.9733 24.9604 35.5645 24.9604 35.5645L21.3496 35.9402Z" fill="#431207"/>
<path d="M22.166 49.0877L22.2151 49.472H22.534L22.6729 48.9896L22.8773 49.472H23.134V49.0386L23.3303 49.0632V49.472H23.5396L23.6786 49.055L23.7849 49.0877V49.472H24.0056L24.2182 49.0632L23.7931 48.7852L22.2069 48.8343L22.166 49.0877Z" fill="#431207"/>
<path d="M21.9094 49.169C22.1667 49.2138 24.0799 49.2226 24.0799 49.2226C24.5829 49.2268 24.4742 48.703 24.3022 48.4822C24.1308 48.2613 23.8734 47.5325 23.8734 47.5325L23.6635 47.2848C23.6635 47.2848 23.4915 46.905 23.0744 46.885C22.8763 46.876 22.7056 46.9518 22.5639 47.068C22.4077 47.1954 22.2872 47.3708 22.2039 47.5325C22.045 47.8415 21.652 49.1243 21.9094 49.169Z" fill="#EDAE63"/>
<path d="M22.5645 47.068C22.7647 46.9786 22.8789 47.7548 22.8707 48.0535C22.8624 48.3522 23.0262 48.4912 23.1934 48.4829C23.3613 48.4746 23.4755 48.1395 23.435 47.741C23.3936 47.3426 23.6641 47.2848 23.6641 47.2848C23.6641 47.2848 23.4921 46.905 23.075 46.885C22.8769 46.876 22.7062 46.9518 22.5645 47.068Z" fill="#DC6C54"/>
<path d="M26.2236 27.2327L26.0274 36.6517C26.0274 36.6517 22.7651 37.0687 20.4594 37.0687L19.9197 30.2252L19.0254 26.0952L26.2236 27.2327Z" fill="#39A08F"/>
<path d="M19.919 30.2899C19.8889 30.2899 19.862 30.2689 19.8557 30.2383L19.4877 28.4805C19.4804 28.4454 19.5029 28.4111 19.5379 28.4037C19.5731 28.3964 19.6074 28.4189 19.6147 28.4539L19.9826 30.2117C19.99 30.2468 19.9675 30.2812 19.9324 30.2885C19.9279 30.2895 19.9235 30.2899 19.919 30.2899Z" fill="#1D7D6A"/>
<path d="M24.502 26.9722L24.6366 33.9781L25.1436 33.6511V27.0693L24.502 26.9722Z" fill="white"/>
<path d="M23.041 35.5976L23.875 34.731L24.6382 35.7611H24.1039L23.8396 35.336L23.041 35.5976Z" fill="#EDAE63"/>
<path d="M19.1196 11.1237C19.1196 11.1237 16.5572 11.5446 15.5719 12.1435C14.5865 12.7424 15.8576 17.8644 15.8576 17.8644L16.2636 24.1048L14.8865 25.9036C14.8865 25.9036 17.2704 27.1621 20.5631 27.2762C23.8559 27.3902 26.3131 27.4681 27.0165 27.9344C27.0165 27.9344 26.2904 25.8817 26.1337 24.6764C25.9771 23.4711 25.5723 19.3782 25.6169 16.906C25.6169 16.906 26.0774 11.8175 25.6118 11.6047C25.1463 11.3919 22.4521 11.0851 21.4362 11.0429C20.4203 11.0006 19.1196 11.1237 19.1196 11.1237Z" fill="#795DE0"/>
<path d="M22.5746 26.9845C22.5708 26.9846 22.567 26.9845 22.5631 26.9839C20.7583 26.7286 19.519 25.8102 19.5067 25.801C19.478 25.7795 19.4722 25.7388 19.4937 25.7101C19.5153 25.6815 19.5559 25.6757 19.5846 25.6972C19.5966 25.7062 20.811 26.605 22.5814 26.8554C22.6168 26.8604 22.6415 26.8933 22.6365 26.9287C22.632 26.9603 22.6055 26.9834 22.5746 26.9845Z" fill="#795DE0"/>
<path d="M25.6193 16.9709C25.6173 16.9709 25.6154 16.9709 25.6135 16.9708C25.5777 16.9689 25.5502 16.9383 25.5521 16.9025L25.6416 15.2468C25.6435 15.211 25.6746 15.1836 25.7099 15.1855C25.7457 15.1875 25.7731 15.218 25.7712 15.2538L25.6818 16.9095C25.6799 16.9433 25.6525 16.9697 25.6193 16.9709Z" fill="#795DE0"/>
<path d="M15.8608 17.9292C15.827 17.9304 15.7976 17.9052 15.794 17.8711L15.5729 15.7558C15.5692 15.7202 15.5951 15.6883 15.6307 15.6845C15.6664 15.6811 15.6982 15.7067 15.702 15.7423L15.923 17.8576C15.9267 17.8932 15.9009 17.9251 15.8653 17.9289C15.8638 17.929 15.8623 17.9292 15.8608 17.9292Z" fill="#795DE0"/>
<path d="M15.4507 13.9551C15.4206 13.9562 15.3929 13.936 15.3855 13.9057L15.2424 13.3216C15.2339 13.2868 15.2552 13.2517 15.2899 13.2432C15.3248 13.2347 15.3599 13.256 15.3684 13.2908L15.5115 13.8748C15.52 13.9096 15.4987 13.9448 15.4639 13.9533C15.4595 13.9544 15.4551 13.9549 15.4507 13.9551Z" fill="#795DE0"/>
<path d="M21.699 10.7396L20.6069 11.5433L20.2177 12.1133L19.8873 11.5522L18.7391 11.0032C18.7391 11.0032 20.1533 10.2666 21.699 10.7396Z" fill="#795DE0"/>
<path d="M21.6988 10.7393L22.0191 11.0802L21.1728 12.4069L20.6068 11.543L21.6988 10.7393Z" fill="#39A08F"/>
<path d="M18.7381 11.0032L18.4229 11.3794L19.3947 12.4692L19.8863 11.5522L18.7381 11.0032Z" fill="#39A08F"/>
<path d="M20.3416 14.3911C20.3064 14.3923 20.2766 14.3651 20.2746 14.3298L20.1527 12.1169C20.1507 12.0812 20.1782 12.0506 20.2139 12.0486C20.2499 12.0462 20.2803 12.074 20.2823 12.1098L20.4042 14.3226C20.4062 14.3584 20.3787 14.389 20.343 14.391C20.3425 14.391 20.342 14.3911 20.3416 14.3911Z" fill="#795DE0"/>
<path d="M24.5267 15.6102C24.5432 16.0818 24.1742 16.4774 23.7026 16.4939C23.231 16.5103 22.8353 16.1415 22.8189 15.6698C22.8024 15.1982 23.1714 14.8026 23.643 14.7861C24.1146 14.7696 24.5102 15.1386 24.5267 15.6102Z" fill="#EDAE63"/>
<path d="M16.9834 16.017L17.7866 15.1218L18.5853 16.1247L18.0513 16.1434L17.7723 15.7277L16.9834 16.017Z" fill="#EDAE63"/>
<path d="M31.6116 16.1548C31.6116 16.1548 32.132 16.4986 32.2213 17.1826C32.3107 17.8667 30.0906 19.8913 29.3577 20.4569C28.6249 21.0225 26.9167 22.2438 26.9167 22.2438C26.9167 22.2438 26.8664 22.7937 26.5085 23.0885C26.1506 23.3832 25.7852 23.8132 25.7852 23.8132C25.7852 23.8132 25.5007 24.0993 25.3963 24.0968C25.2919 24.0943 25.2149 23.9988 25.2149 23.9988C25.2149 23.9988 24.9374 24.3092 24.8026 24.3139C24.6677 24.3186 24.5879 24.3152 24.5882 24.1495C24.5885 23.9838 24.9736 23.4121 24.9736 23.4121L25.3472 22.8652L24.6947 23.1579C24.6947 23.1579 24.2319 23.6098 24.0796 23.6396C23.9272 23.6695 23.8185 23.5444 23.8047 23.502C23.791 23.4595 23.8573 23.2486 23.8573 23.2486C23.8573 23.2486 23.6454 23.1578 23.6169 23.0422C23.5883 22.9266 24.0069 22.4395 24.0069 22.4395L24.6985 21.6852L25.9194 21.3297L28.3264 18.2774C28.3264 18.2774 28.6137 17.8869 28.9565 17.5729C28.7423 17.3994 28.3465 17.1894 28.3465 17.1894C28.3465 17.1894 30.3213 15.752 30.6587 15.5543C30.8582 15.631 31.4557 16.0548 31.6116 16.1548Z" fill="#A0564F"/>
<path d="M23.8588 23.3136C23.8419 23.3142 23.8249 23.3083 23.8117 23.2958C23.7858 23.271 23.7848 23.23 23.8096 23.204L24.3324 22.656C24.3344 22.6539 24.3366 22.652 24.3389 22.6501L24.8324 22.2565C24.8604 22.2342 24.9013 22.2388 24.9236 22.2668C24.9459 22.2948 24.9413 22.3356 24.9133 22.3579L24.4233 22.7488L23.9034 23.2936C23.8912 23.3064 23.8751 23.3131 23.8588 23.3136Z" fill="#63201B"/>
<path d="M25.2171 24.0634C25.2061 24.0638 25.195 24.0614 25.1846 24.0559C25.1529 24.0392 25.1409 23.9999 25.1576 23.9682L25.4454 23.4244C25.4481 23.4193 25.4514 23.4147 25.4553 23.4105L25.8417 22.9961C25.8661 22.9699 25.9072 22.9685 25.9334 22.9929C25.9595 23.0173 25.961 23.0584 25.9366 23.0846L25.556 23.4927L25.2723 24.0289C25.261 24.0502 25.2395 24.0626 25.2171 24.0634Z" fill="#63201B"/>
<path d="M25.0063 16.5669L28.6394 18.4366L31.7543 16.2662L28.7778 13.9648C28.7778 13.9648 28.692 13.6161 28.5838 13.5626C28.4755 13.5091 27.8657 13.3831 27.8657 13.3831C27.8657 13.3831 26.0767 11.8175 25.6111 11.6047C25.5468 11.7832 25.0063 16.5669 25.0063 16.5669Z" fill="#795DE0"/>
<path d="M28.3068 13.8375C28.3011 13.8377 28.2952 13.8371 28.2893 13.8357C27.0087 13.5264 26.0205 12.9936 26.0107 12.9882C25.9793 12.9711 25.9676 12.9317 25.9847 12.9003C26.0018 12.8687 26.0412 12.8571 26.0727 12.8742C26.0824 12.8795 27.0565 13.4044 28.3198 13.7096C28.3546 13.718 28.376 13.753 28.3676 13.7878C28.3606 13.8168 28.3352 13.8365 28.3068 13.8375Z" fill="#795DE0"/>
<path d="M28.4468 17.8457C28.4267 17.8464 28.4065 17.8378 28.3932 17.8206C28.3713 17.7922 28.3765 17.7515 28.4049 17.7296L30.6991 15.9559C30.7275 15.934 30.7682 15.9393 30.7901 15.9676C30.812 15.9959 30.8068 16.0367 30.7785 16.0586L28.4842 17.8322C28.473 17.8408 28.4599 17.8453 28.4468 17.8457Z" fill="#795DE0"/>
<path d="M11.4581 17.4002C11.4581 17.4002 10.4942 18.5546 10.6136 19.164C10.733 19.7735 11.9497 21.2281 12.373 21.7533C12.7963 22.2785 14.5625 24.0085 14.5625 24.0085C14.5625 24.0085 14.7048 24.4535 15.0552 24.6458C15.4055 24.8381 15.9739 24.9491 15.9739 24.9491L16.364 25.3446C16.364 25.3446 16.5781 25.8525 16.7497 25.8465C16.9213 25.8405 16.8916 25.6943 16.8916 25.6943L16.6373 25.2041C16.6373 25.2041 16.9846 25.5438 17.1821 25.5778C17.3796 25.6118 17.4074 25.4717 17.4074 25.4717L16.9787 24.9059L16.6919 24.425L17.1919 24.6857C17.1919 24.6857 17.633 25.1367 17.7649 25.1647C17.8968 25.1928 17.9756 25.1083 17.9291 24.9463C17.8825 24.7843 17.8394 24.7204 17.8394 24.7204C17.8394 24.7204 18.027 24.7056 18.0625 24.5489C18.0979 24.3923 17.6705 23.8672 17.6705 23.8672L16.8711 23.2325L15.4755 23.093L13.4908 19.6772C13.4908 19.6772 13.351 19.46 13.1334 19.1699C13.0629 19.0759 13.9105 18.5518 13.8435 18.3653C13.6146 17.7277 12.6352 16.8829 12.2884 16.6575L11.7167 17.1834L11.4581 17.4002Z" fill="#A0564F"/>
<path d="M17.8409 24.7852C17.8236 24.7858 17.8061 24.7795 17.7928 24.7664L17.2953 24.2709L16.8353 23.9049C16.8073 23.8825 16.8026 23.8417 16.8249 23.8137C16.8473 23.7856 16.8881 23.781 16.9161 23.8033L17.3789 24.1717C17.3808 24.1732 17.3826 24.1748 17.3843 24.1765L17.8844 24.6744C17.9098 24.6997 17.9099 24.7408 17.8846 24.7662C17.8725 24.7783 17.8568 24.7847 17.8409 24.7852Z" fill="#63201B"/>
<path d="M16.639 25.2689C16.6147 25.2698 16.5909 25.2569 16.579 25.2339L16.4248 24.9356L16.2 24.6796C16.1763 24.6527 16.179 24.6117 16.2059 24.588C16.2328 24.5644 16.2738 24.5671 16.2975 24.594L16.5275 24.856C16.531 24.86 16.5339 24.8643 16.5364 24.869L16.6943 25.1743C16.7107 25.2061 16.6983 25.2453 16.6665 25.2617C16.6577 25.2663 16.6483 25.2686 16.639 25.2689Z" fill="#63201B"/>
<path d="M15.5718 12.1433C14.5865 12.7422 13.5524 14.0545 13.5524 14.0545C13.5524 14.0545 12.9206 14.3548 12.9687 14.7949C12.9687 14.7949 12.2254 15.9989 11.8107 16.3079C11.3961 16.6169 11.0262 16.9162 11.0262 16.9162L13.491 19.6771L16.3792 17.4319C16.3792 17.4319 15.8487 13.7779 15.5718 12.1433Z" fill="#795DE0"/>
<path d="M13.2636 14.5715C13.2352 14.5725 13.2085 14.5546 13.1995 14.5262C13.1887 14.4921 13.2076 14.4556 13.2418 14.4448L14.7226 13.9759C14.7566 13.9651 14.7931 13.984 14.804 14.0181C14.8148 14.0523 14.7959 14.0888 14.7617 14.0996L13.2809 14.5685C13.2751 14.5703 13.2694 14.5713 13.2636 14.5715Z" fill="#795DE0"/>
<path d="M13.5891 18.9623C13.5709 18.9629 13.5526 18.956 13.5392 18.9416L11.7285 16.9895C11.7042 16.9632 11.7057 16.9222 11.7319 16.8979C11.7582 16.8735 11.7992 16.875 11.8236 16.9013L13.6344 18.8533C13.6588 18.8796 13.6572 18.9207 13.6309 18.945C13.6191 18.9561 13.6041 18.9618 13.5891 18.9623Z" fill="#795DE0"/>
<path d="M17.4011 7.72092C17.0439 7.50318 16.9129 6.9836 17.1243 6.6226C17.3428 6.2495 17.8335 6.08815 18.0174 5.69683C18.0672 5.79955 18.09 5.91523 18.0829 6.02921C18.2909 5.78554 18.5935 5.63647 18.9061 5.56636C19.2187 5.49625 19.543 5.49952 19.8627 5.51939C20.3101 5.5472 20.7624 5.60887 21.1732 5.7883C21.5522 5.95387 21.9051 6.22113 22.3182 6.24094C22.2523 6.31905 22.1864 6.39723 22.0399 6.62943C22.2947 6.83976 22.4043 7.1803 22.4424 7.50848C22.4903 7.9208 22.4445 8.34368 22.3094 8.73613C22.2007 9.05171 22.022 9.36086 21.734 9.52978C21.4461 9.69871 21.0331 9.68283 20.8193 9.42641C20.7229 9.31065 20.6747 9.15991 20.5749 9.04703C20.4412 8.89577 20.2359 8.83387 20.0417 8.7787C19.6814 8.67639 19.3176 8.57341 18.9438 8.55126C18.6673 8.53485 18.3614 8.55418 18.1463 8.37951C18.067 8.31517 18.0083 8.22975 17.9507 8.14558C17.8238 7.96004 17.6577 7.87727 17.4011 7.72092Z" fill="#431207"/>
<path d="M17.3448 7.45513C17.2961 8.14567 17.3082 8.84048 17.3809 9.52888C17.4036 9.74394 17.4336 9.9631 17.5304 10.1564C17.6678 10.4308 17.9235 10.6232 18.1704 10.8053C18.431 10.9976 18.6958 11.1922 18.9991 11.3057C19.1423 11.3593 19.296 11.3943 19.4481 11.3777C19.6322 11.3576 19.7994 11.2643 19.9571 11.1672C20.5585 10.797 21.1077 10.3424 21.5809 9.80226C21.6995 9.7342 21.8363 9.69857 21.9462 9.61726C22.1768 9.44678 22.2306 9.11673 22.1755 8.83532C22.1512 8.71128 22.1032 8.58175 21.9979 8.51182C21.8926 8.44189 21.7198 8.46854 21.6464 8.60979C21.5943 8.90475 21.5139 9.19476 21.4067 9.47447C21.2175 9.17873 21.3533 8.78865 21.3034 8.44112C21.2995 8.41403 21.2941 8.3863 21.2791 8.36339C21.2649 8.34162 21.2432 8.32594 21.2221 8.31079C21.1582 8.26512 21.0942 8.21944 21.0303 8.17377C20.9975 8.15026 20.9639 8.1261 20.9409 8.09292C20.9157 8.05638 20.9052 8.01191 20.8953 7.96864C20.8474 7.76041 20.7995 7.55211 20.7056 7.45099C20.3835 7.4147 20.0578 7.4105 19.7349 7.43846C19.7113 7.44051 19.6859 7.44348 19.6684 7.45955C19.6483 7.47804 19.645 7.50797 19.6422 7.53512C19.6147 7.80407 19.5234 8.06624 19.3779 8.29411C19.4433 8.02487 19.3874 7.72853 19.2282 7.50173C19.1861 7.61091 19.1439 7.72004 19.1018 7.82922C19.1276 7.67239 18.9919 7.52728 18.8407 7.47827C18.6895 7.42927 18.5261 7.44908 18.3673 7.45457C18.0832 7.46436 17.7976 7.42594 17.3448 7.45513Z" fill="#A0564F"/>
<path d="M18.7089 10.1709C19.2311 10.1253 19.743 9.967 20.1997 9.70999C20.1805 9.96528 20.0564 10.2111 19.8622 10.3779C19.6681 10.5447 19.4064 10.6306 19.1512 10.6111C19.0188 10.601 18.8848 10.5616 18.7836 10.4758C18.6824 10.3899 18.6196 10.2522 18.7089 10.1709Z" fill="white"/>
<mask id="mask1_90_464" style="mask-type:luminance" maskUnits="userSpaceOnUse" x="0" y="-7" width="67" height="67">
<path d="M0 -6.8252H66.2069V59.3817H0V-6.8252Z" fill="white"/>
</mask>
<g mask="url(#mask1_90_464)">
<path d="M46.2534 35.9405C46.2534 35.9405 46.0242 37.4812 45.7937 38.1233C45.7778 38.1673 45.762 38.2073 45.7462 38.2424C45.5012 38.786 45.55 40.2738 45.55 40.2738C45.55 40.2738 45.7462 40.4136 45.6808 41.4389C45.6154 42.4649 45.4358 44.3622 45.4358 44.3622L45.2397 44.9341V47.7411L43.7512 47.651C43.7512 47.651 42.9991 43.577 42.8683 42.6452C42.7375 41.7127 42.5414 40.2738 42.7045 39.2271C42.7671 38.8259 42.8373 38.4605 42.8883 38.1233C42.9715 37.581 43.0059 37.1096 42.8848 36.6761C42.6887 35.9735 42.6426 35.5647 42.6426 35.5647L46.2534 35.9405Z" fill="#795DE0"/>
<path d="M43.784 42.1875C43.7499 42.1875 43.7212 42.1608 43.7193 42.1263C43.7172 42.0907 43.6705 41.2483 43.7198 40.8705C43.7732 40.4603 44.9018 40.22 45.0303 40.1939C45.0654 40.1868 45.0997 40.2095 45.1068 40.2446C45.1139 40.2798 45.0912 40.314 45.0561 40.3211C44.6058 40.4124 43.8798 40.647 43.8484 40.8873C43.8007 41.2531 43.8484 42.1103 43.8489 42.119C43.8509 42.1548 43.8235 42.1854 43.7877 42.1875C43.7865 42.1875 43.7852 42.1875 43.784 42.1875Z" fill="#795DE0"/>
<path d="M44.4473 44.9209C44.4315 44.9209 44.4156 44.9151 44.4031 44.9034L44.0499 44.5729C44.0237 44.5485 44.0223 44.5074 44.0468 44.4812C44.0712 44.4551 44.1123 44.4537 44.1385 44.4782L44.4917 44.8087C44.5179 44.8331 44.5192 44.8742 44.4947 44.9004C44.482 44.914 44.4647 44.9209 44.4473 44.9209Z" fill="#795DE0"/>
<path d="M46.2534 35.9405C46.2534 35.9405 46.0242 37.4812 45.7937 38.1233H42.8883C42.9715 37.581 43.0059 37.1096 42.8848 36.6761C42.6887 35.9735 42.6426 35.5647 42.6426 35.5647L46.2534 35.9405Z" fill="#431207"/>
<path d="M45.435 49.0879L45.3859 49.4722H45.0671L44.9281 48.9898L44.7237 49.4722H44.467V49.0389L44.2707 49.0634V49.4722H44.0614L43.9224 49.0553L43.8161 49.0879V49.4722H43.5953L43.3828 49.0634L43.8079 48.7854L45.3942 48.8345L45.435 49.0879Z" fill="#431207"/>
<path d="M45.6928 49.1693C45.4354 49.214 43.5224 49.2229 43.5224 49.2229C43.0193 49.227 43.1281 48.7033 43.3001 48.4824C43.4714 48.2615 43.7288 47.5328 43.7288 47.5328L43.9387 47.2851C43.9387 47.2851 44.1107 46.9052 44.5277 46.8852C44.7259 46.8763 44.8966 46.952 45.0384 47.0683C45.1946 47.1956 45.315 47.3711 45.3983 47.5328C45.5573 47.8417 45.9501 49.1245 45.6928 49.1693Z" fill="#EDAE63"/>
<path d="M45.0392 47.0683C44.8389 46.9788 44.7246 47.7551 44.7329 48.0537C44.7412 48.3524 44.5774 48.4914 44.4101 48.4832C44.2422 48.4749 44.128 48.1397 44.1686 47.7413C44.2099 47.3428 43.9395 47.2851 43.9395 47.2851C43.9395 47.2851 44.1115 46.9052 44.5285 46.8852C44.7267 46.8763 44.8974 46.952 45.0392 47.0683Z" fill="#DC6C54"/>
<path d="M51.3357 49.4665L51.1647 49.7623L50.8514 49.7541L50.73 49.3706L50.4471 49.7977L50.1564 49.7517L50.0517 49.2632L49.8657 49.7056L49.4942 49.6468L49.3814 49.157L49.2116 49.602L49.0258 49.5726L48.8868 49.0787L47.7995 48.8486L47.7176 49.3654L47.4834 49.3283L47.3311 48.7744L47.2492 49.2912L47.015 49.2541L46.9192 48.7091L46.7405 49.2106L46.5709 49.1838L46.5308 48.5482L50.9584 49.1833L51.3357 49.4665Z" fill="#431207"/>
<path d="M50.0516 41.6603C49.8751 42.4705 49.6982 43.2807 49.5217 44.0909C49.4708 44.3246 49.4176 44.5636 49.2977 44.771C49.224 44.8973 49.1268 45.0093 49.0609 45.1397C48.9897 45.281 48.9573 45.4375 48.9259 45.5921C48.7979 46.224 48.67 46.8552 48.4447 47.5169C47.9956 47.3434 47.5472 47.17 47.0465 47.0056C47.542 44.4664 46.4568 41.8079 47.0028 39.2795C47.1047 38.8079 47.2622 38.3501 47.4056 37.8892C47.4721 37.6761 47.5353 37.4618 47.589 37.2459C47.7589 36.5607 47.827 35.8218 47.5793 35.1604C48.6204 35.2689 49.6609 35.3773 50.9085 35.5686C50.7933 36.2694 50.5878 36.9551 50.3219 37.7407C50.2927 37.9563 50.2642 38.1713 50.2351 38.3861C50.1407 39.0965 50.0488 39.8045 49.9688 40.5031C50.211 40.8216 50.1371 41.2698 50.0516 41.6603Z" fill="#795DE0"/>
<path d="M48.7165 40.7154C48.6993 40.7127 48.6921 40.7058 48.6843 40.6983C48.6672 40.6819 48.6601 40.6563 48.6661 40.6335C48.6739 40.6039 48.6988 40.5843 48.7421 40.5734L49.3892 40.4105C49.4232 40.402 49.458 40.4221 49.4675 40.456C49.4769 40.4898 49.4577 40.5251 49.4241 40.5355C48.9088 40.6948 48.7679 40.7236 48.7165 40.7154Z" fill="#795DE0"/>
<path d="M48.3623 44.8598C48.354 44.8585 48.346 44.8556 48.3385 44.851C48.0584 44.6787 48.0256 44.311 48.0285 44.0099C48.0347 43.339 48.0921 42.663 48.1989 42.0007C48.2046 41.9653 48.2378 41.9413 48.2731 41.9469L48.2733 41.947C48.3087 41.9527 48.3328 41.986 48.327 42.0213C48.2212 42.6772 48.1644 43.3468 48.1582 44.0111C48.1558 44.2781 48.1817 44.6022 48.4064 44.7404C48.4369 44.7592 48.4465 44.7992 48.4277 44.8297C48.4136 44.8527 48.3874 44.8638 48.3623 44.8598Z" fill="#795DE0"/>
<path d="M47.0469 47.0053C47.0469 47.0053 47.6583 47.3031 48.0079 47.0977C48.3576 46.8924 48.5604 46.7879 48.9474 47.0106C49.3343 47.2333 49.7579 48.0082 50.5521 48.4816C51.3463 48.9551 51.6127 49.2332 51.6087 49.4934C51.6048 49.7535 48.8647 49.2574 48.3146 49.0461C47.7644 48.8348 47.2258 48.9397 46.6671 48.7852C46.2468 48.6689 46.3113 48.3397 46.5698 47.884C46.8282 47.4283 47.0469 47.0053 47.0469 47.0053Z" fill="#EDAE63"/>
<path d="M46.845 47.3835L48.6852 48.0561L49.2671 48.8248L47.9679 48.6604L48.4516 48.3811L46.7247 47.6042L46.845 47.3835Z" fill="white"/>
<path d="M47.975 48.4C47.9083 48.3894 47.8059 48.343 47.7759 48.1623C47.7017 47.7144 48.4115 47.1118 48.4418 47.0864C48.4692 47.0634 48.5101 47.0669 48.5332 47.0943C48.5563 47.1217 48.5527 47.1626 48.5253 47.1857C48.3349 47.3459 47.8524 47.8296 47.904 48.141C47.9258 48.2724 47.9891 48.2729 48.01 48.273C48.1556 48.274 48.3844 48.0471 48.4278 47.8047C48.4983 47.4118 48.5944 47.0668 48.5954 47.0634C48.605 47.0289 48.6406 47.0088 48.6753 47.0184C48.7098 47.028 48.7299 47.0638 48.7203 47.0984C48.7193 47.1017 48.6249 47.4411 48.5556 47.8276C48.5042 48.114 48.2285 48.4042 48.0092 48.4028C47.9997 48.4028 47.988 48.402 47.975 48.4Z" fill="#431207"/>
<path d="M50.3219 37.7407C50.2927 37.9563 50.2642 38.1713 50.2351 38.3861C50.2043 38.3826 49.1879 38.2579 47.4056 37.8892C47.4721 37.6761 47.5353 37.4618 47.589 37.2459C47.7589 36.5607 47.827 35.8218 47.5793 35.1604C48.6204 35.2689 49.6609 35.3773 50.9085 35.5686C50.7933 36.2694 50.5878 36.9551 50.3219 37.7407Z" fill="#431207"/>
<path d="M51.5185 26.4726L51.2241 35.5236C51.2241 35.5236 49.0656 36.0878 47.0052 35.8425V36.2395C47.0052 36.2395 43.3995 36.3331 42.1486 36.0633C42.1486 36.0633 42.1731 33.684 42.1486 31.9916C42.1241 30.2991 41.7806 28.0424 42.0014 26.3745L51.5185 26.4726Z" fill="#39A08F"/>
<path d="M49.3789 34.7187L50.2129 33.8521L50.976 34.8822H50.4418L50.1774 34.4571L49.3789 34.7187Z" fill="#EDAE63"/>
<path d="M47.0044 35.9073C47.0039 35.9073 47.0033 35.9073 47.0029 35.9073C46.9671 35.9066 46.9387 35.8769 46.9395 35.8411L47.0867 29.0385C47.0869 29.0262 47.0907 29.0143 47.0974 29.0041L47.8006 27.9412C47.8203 27.9113 47.8606 27.9031 47.8905 27.9229C47.9204 27.9426 47.9285 27.9829 47.9088 28.0128L47.216 29.06L47.0692 35.8439C47.0685 35.8793 47.0396 35.9073 47.0044 35.9073Z" fill="#1D7D6A"/>
<path d="M43.1299 26.3745V34.2073L42.6426 33.9456V26.3745H43.1299Z" fill="white"/>
<path d="M47.9801 10.3319C47.9801 10.3319 50.5977 10.8071 52.1411 11.4592C52.2955 11.5244 52.4683 11.5836 52.5878 11.7129C53.1773 12.3505 51.8137 17.7339 51.8137 17.7339C51.8137 17.7339 51.381 22.3989 51.4525 23.8332C51.524 25.2676 51.6685 27.2746 51.6685 27.2746C51.6685 27.2746 47.9335 28.0312 41.7966 26.411L42.8363 21.282L43.1701 16.9038C43.1701 16.9038 42.8045 11.2333 43.3263 10.8973C43.8481 10.5613 46.2559 10.2467 46.7502 10.2243C47.2446 10.2019 47.9801 10.3319 47.9801 10.3319Z" fill="#795DE0"/>
<path d="M51.8082 17.7986C51.8057 17.7984 51.8031 17.798 51.8005 17.7974C51.7655 17.7901 51.743 17.7557 51.7503 17.7207C51.7531 17.707 52.0367 16.3523 52.1481 15.8585C52.258 15.3711 52.3029 14.0916 52.3034 14.0787C52.3046 14.0428 52.3345 14.0148 52.3704 14.0161C52.4061 14.0175 52.4342 14.0473 52.433 14.0831C52.4312 14.1362 52.3873 15.3878 52.2747 15.8871C52.1635 16.3799 51.8801 17.7336 51.8773 17.7472C51.8704 17.7797 51.8405 17.8014 51.8082 17.7986Z" fill="#795DE0"/>
<path d="M43.1642 16.9688C43.1284 16.9657 43.1021 16.9342 43.1052 16.8985L43.2463 15.2858C43.2494 15.2501 43.2808 15.2237 43.3166 15.2268C43.3523 15.23 43.3786 15.2614 43.3755 15.2971L43.2344 16.9098C43.2313 16.9456 43.1999 16.972 43.1642 16.9688Z" fill="#795DE0"/>
<path d="M48.1918 27.1587C48.1916 27.1587 48.1914 27.1587 48.1912 27.1587C46.2185 26.9698 44.195 26.1396 44.1748 26.1313C44.1417 26.1176 44.126 26.0796 44.1397 26.0465C44.1533 26.0133 44.1913 25.9977 44.2244 26.0113C44.2444 26.0196 46.2505 26.8425 48.2036 27.0295C48.2393 27.033 48.2654 27.0646 48.262 27.1003C48.2586 27.1358 48.2272 27.1618 48.1918 27.1587Z" fill="#795DE0"/>
<path d="M51.6454 14.8755C51.6043 15.3457 51.1899 15.6934 50.7198 15.6523C50.2497 15.6111 49.902 15.1967 49.9431 14.7266C49.9842 14.2565 50.3987 13.9088 50.8688 13.95C51.3389 13.9911 51.6866 14.4054 51.6454 14.8755Z" fill="#EDAE63"/>
<path d="M44.1081 14.3594L45.0144 13.5688L45.6848 14.6616L45.1526 14.615L44.9264 14.1684L44.1081 14.3594Z" fill="#EDAE63"/>
<path d="M46.6526 9.94015L47.7011 10.8L48.0599 11.3895L48.4193 10.8464L49.5947 10.3583C49.5947 10.3583 48.221 9.5487 46.6526 9.94015Z" fill="#795DE0"/>
<path d="M46.6527 9.94043L46.315 10.2641L47.0907 11.6332L47.7012 10.8003L46.6527 9.94043Z" fill="#39A08F"/>
<path d="M49.5947 10.3586L49.8898 10.7507L48.8623 11.7883L48.4194 10.8467L49.5947 10.3586Z" fill="#39A08F"/>
<path d="M47.8182 13.6577C47.8178 13.6577 47.8173 13.6576 47.8169 13.6576C47.7813 13.6537 47.7555 13.6217 47.7594 13.5861L47.9969 11.3827C48.0008 11.347 48.0328 11.3206 48.0684 11.3251C48.104 11.329 48.1298 11.361 48.1259 11.3966L47.8884 13.6C47.8845 13.6352 47.8533 13.6608 47.8182 13.6577Z" fill="#795DE0"/>
<path d="M39.0861 15.1596C39.0861 15.1596 37.8716 16.0466 37.84 16.6669C37.8085 17.2871 38.6371 18.9928 38.9207 19.6048C39.2044 20.2168 40.4997 22.3227 40.4997 22.3227C40.4997 22.3227 40.5301 22.789 40.8235 23.0603C41.1169 23.3316 41.6415 23.5768 41.6415 23.5768L41.9244 24.0549C41.9244 24.0549 42.0092 24.5995 42.1772 24.6352C42.3452 24.6709 42.3518 24.5219 42.3518 24.5219L42.2235 23.9848C42.2235 23.9848 42.4783 24.3983 42.6617 24.4791C42.8452 24.5599 42.9061 24.4307 42.9061 24.4307L42.6269 23.778L42.465 23.242L42.887 23.6159C42.887 23.6159 43.206 24.1602 43.3272 24.2194C43.4484 24.2785 43.5454 24.2155 43.5394 24.0471C43.5334 23.8787 43.507 23.8062 43.507 23.8062C43.507 23.8062 43.6926 23.8373 43.7649 23.6938C43.8372 23.5504 43.5495 22.9375 43.5495 22.9375L42.9274 22.1282L41.6069 21.6553L40.5077 17.8608C40.5077 17.8608 42.0399 16.8054 41.421 16.1411L39.8614 14.5872L39.0861 15.1596Z" fill="#FFC2A0"/>
<path d="M43.4936 23.8697C43.4766 23.8661 43.4612 23.8557 43.4515 23.8397L43.0887 23.2387L42.7309 22.7722C42.7091 22.7437 42.7145 22.703 42.7429 22.6812C42.7714 22.6594 42.8121 22.6648 42.8339 22.6932L43.1938 23.1626C43.1953 23.1645 43.1966 23.1665 43.1979 23.1686L43.5627 23.7727C43.5812 23.8034 43.5713 23.8432 43.5406 23.8618C43.526 23.8706 43.5091 23.873 43.4936 23.8697Z" fill="#F79B78"/>
<path d="M42.2093 24.0485C42.1856 24.0434 42.1656 24.0251 42.1596 23.9999L42.0821 23.6732L41.9259 23.3704C41.9095 23.3385 41.922 23.2994 41.9538 23.283C41.9856 23.2665 42.0248 23.279 42.0412 23.3109L42.201 23.6207C42.2035 23.6254 42.2053 23.6304 42.2065 23.6355L42.2859 23.97C42.2942 24.0049 42.2726 24.0398 42.2377 24.0481C42.2281 24.0503 42.2184 24.0504 42.2093 24.0485Z" fill="#F79B78"/>
<path d="M44.2526 15.5776L42.4415 16.8368L40.7223 18.0433L39.0076 15.0203L40.2535 13.5631C40.2535 13.5631 40.3249 13.2273 40.4304 13.1243C40.5359 13.0213 40.8791 13.019 40.8791 13.019C40.8791 13.019 42.7696 11.164 43.3285 10.8941C43.6566 10.7356 44.2526 15.5776 44.2526 15.5776Z" fill="#795DE0"/>
<path d="M40.7394 13.3233C40.7108 13.3172 40.689 13.2921 40.6882 13.2616C40.6872 13.2258 40.7153 13.196 40.7512 13.1949C40.7611 13.1946 41.7518 13.1599 42.5885 12.5765C42.6179 12.5561 42.6583 12.5633 42.6788 12.5926C42.6993 12.6221 42.6921 12.6624 42.6627 12.6829C41.7932 13.2892 40.7968 13.3235 40.7548 13.3247C40.7495 13.3248 40.7443 13.3243 40.7394 13.3233Z" fill="#795DE0"/>
<path d="M54.8409 17.8736L54.603 19.2999C54.603 19.2999 54.5193 21.664 54.0026 22.4523C53.2427 23.6116 51.2473 25.9722 51.2473 25.9722L50.1745 27.3214C50.1745 27.3214 49.4505 27.855 49.3182 27.8408C49.1858 27.8266 49.1453 27.7854 49.1453 27.7854C49.1453 27.7854 48.864 27.9241 48.8072 27.8745C48.7504 27.825 48.7216 27.6755 48.8647 27.57C49.0444 27.4376 49.3559 27.2081 49.3559 27.2081C49.3559 27.2081 48.4596 27.3055 48.3749 27.2257C48.2902 27.146 48.3159 27.0458 48.4344 26.9585C48.5529 26.8712 48.6741 26.8427 48.6741 26.8427C48.6741 26.8427 48.1578 26.9003 48.1358 26.8291C48.1139 26.758 48.225 26.5643 48.4152 26.5053C48.6054 26.4464 49.0185 26.3959 49.0185 26.3959L49.5339 26.204L49.8652 25.9281C49.8652 25.9281 49.3845 25.9738 49.1908 25.8627C48.9971 25.7515 48.9747 25.5141 49.2986 25.4989C49.6225 25.4836 49.874 25.3287 50.0773 25.2601C50.2807 25.1915 50.6063 25.1025 50.6063 25.1025C50.6063 25.1025 51.4767 22.9351 52.2798 21.2147C52.537 20.6638 52.3081 20.4186 52.3234 19.9892L52.0314 18.4907L54.8409 17.8736Z" fill="#FFC2A0"/>
<path d="M54.8409 17.8736L54.6448 19.0494L52.3234 19.9892L52.0314 18.4907L54.8409 17.8736Z" fill="#F79B78"/>
<path d="M52.5908 11.7082C53.78 12.7662 54.3004 15.0937 54.3004 15.0937C54.3004 15.0937 54.8819 15.5433 54.6548 16.0216L55.0547 18.2298L52.174 19.6591L51.0854 17.5951L50.2633 15.3821C50.2633 15.3821 52.4702 11.6009 52.5908 11.7082Z" fill="#795DE0"/>
<path d="M54.3246 15.7671C54.3164 15.7653 54.3083 15.7619 54.301 15.7569C53.7417 15.3677 53.0292 14.0956 52.9991 14.0416C52.9817 14.0103 52.993 13.9708 53.0242 13.9534C53.0556 13.9359 53.0951 13.9472 53.1125 13.9785C53.1197 13.9914 53.8404 15.2782 54.3751 15.6503C54.4045 15.6708 54.4118 15.7113 54.3913 15.7407C54.376 15.7628 54.3494 15.7723 54.3246 15.7671Z" fill="#795DE0"/>
<path d="M49.3088 25.4613C49.2742 25.4613 49.2392 25.4605 49.2051 25.4592C49.1646 25.458 49.1244 25.4554 49.0847 25.452C48.6266 25.4154 48.2 25.2652 47.8332 25.0305C47.5774 24.8666 47.351 24.6613 47.1631 24.4244C47.1491 24.4074 47.1359 24.3899 47.123 24.3724C47.0073 24.22 46.9077 24.0547 46.8262 23.8793C46.6621 23.5284 46.5706 23.1369 46.5705 22.7241C46.5704 22.3736 46.6361 22.0384 46.7564 21.7305C46.7628 21.713 46.7696 21.6959 46.7773 21.6788C46.9702 21.2109 47.2898 20.8082 47.6928 20.513C47.7064 20.5028 47.7205 20.493 47.7346 20.4832C48.1794 20.1701 48.722 19.986 49.3073 19.9858C49.4034 19.9857 49.4986 19.9908 49.5921 20.0002C50.1903 20.062 50.7317 20.3167 51.1524 20.7004C51.5756 21.0863 51.8771 21.6032 51.993 22.1872C52.0276 22.3605 52.0456 22.5395 52.0457 22.7226C52.0458 23.1555 51.9456 23.5646 51.7668 23.9284C51.573 24.3238 51.2867 24.6649 50.9362 24.9247C50.5038 25.2454 49.9731 25.4411 49.3981 25.4596C49.3686 25.4609 49.3387 25.4613 49.3088 25.4613Z" fill="white"/>
<path d="M47.7513 20.9875C47.7513 20.9871 47.7513 20.9866 47.7513 20.9866L47.7426 20.7228L47.7344 20.4828C47.7204 20.4926 47.7062 20.5025 47.6926 20.5127L47.7 20.7241L47.6999 20.7245L47.7086 20.9879C47.709 20.9999 47.7188 21.0089 47.7308 21.0089C47.7423 21.0085 47.7512 20.9986 47.7513 20.9875Z" fill="#431207"/>
<path d="M47.2006 23.6385L47.2006 23.6381L47.2745 22.3816L47.2953 22.0315C47.2953 22.0289 47.2949 22.0259 47.2941 22.0229L47.1343 21.5815C47.1304 21.5708 47.1184 21.5649 47.1073 21.5687L46.978 21.6119L46.7774 21.6789C46.7697 21.696 46.7629 21.7131 46.7565 21.7306L47.101 21.6157L47.2527 22.0332L47.2318 22.385L47.2318 22.3854L47.1587 23.6334L47.1468 23.8328L47.1231 24.3725C47.1359 24.39 47.1491 24.4074 47.1632 24.4245L47.1891 23.8349L47.2006 23.6385Z" fill="#431207"/>
<path d="M48.2186 25.0196L48.0815 24.9586L47.8491 24.3926L48.0365 24.3143L48.9766 23.9239L49.2391 23.8145C49.2433 23.8128 49.2467 23.8098 49.2489 23.8064C49.2595 23.7902 49.5036 23.4067 49.4267 23.0913C49.3973 22.97 49.3237 22.8757 49.2089 22.8099C49.1624 22.7835 49.1137 22.7527 49.0637 22.719C48.7243 22.4907 48.3297 22.1249 48.1486 21.9516C48.1033 21.9085 48.0713 21.8774 48.0572 21.8633L48.2401 21.0311C48.2742 21.0102 48.311 20.9902 48.3498 20.9709C48.7084 20.7902 49.2404 20.6743 49.5392 20.6196C49.6502 20.5991 49.7292 20.5871 49.7548 20.5833L50.4594 21.1471L50.4167 21.3106L50.1208 22.4425C50.1207 22.4438 50.1204 22.4455 50.1204 22.4468L50.1199 22.4532L50.0453 24.2818L50.0453 24.2822L50.0448 24.2882C50.0448 24.2899 50.0449 24.2921 50.0453 24.2938L50.203 25.0328L50.2355 25.1839C50.2381 25.1955 50.2496 25.2027 50.2611 25.2001C50.2726 25.1976 50.2799 25.186 50.2773 25.1749L50.2457 25.0263L50.0875 24.2874L50.0888 24.2591L50.1622 22.4762L50.163 22.4511L50.459 21.3183L50.5043 21.1445C50.5064 21.1364 50.5038 21.1274 50.497 21.1223L49.774 20.544C49.7693 20.5406 49.7638 20.5389 49.7578 20.5398C49.7548 20.5402 49.6686 20.5521 49.5358 20.5765L49.5358 20.577C49.2382 20.6313 48.7063 20.7462 48.3408 20.9274C48.2943 20.95 48.2503 20.9743 48.2098 20.9995C48.2051 21.0029 48.2017 21.0076 48.2004 21.0132L48.0128 21.8654C48.0115 21.8723 48.0136 21.88 48.0187 21.8851C48.0205 21.8867 48.0546 21.9209 48.1123 21.976C48.2912 22.148 48.6961 22.5236 49.0437 22.757C49.0932 22.7903 49.1414 22.8206 49.1876 22.8471C49.2922 22.9069 49.3584 22.9922 49.3853 23.1011C49.4533 23.379 49.2459 23.7295 49.2165 23.7778L48.9578 23.8855L48.0135 24.2781L47.8132 24.3614C47.8025 24.3656 47.797 24.3785 47.8017 24.3891L48.0452 24.9825C48.0473 24.9877 48.0512 24.9919 48.0563 24.9941L48.1379 25.0303L49.0837 25.4519C49.1234 25.4553 49.1635 25.4579 49.2041 25.4591L48.2186 25.0196Z" fill="#431207"/>
<path d="M51.0263 21.0491C51.0335 21.0547 51.7393 21.6133 51.9536 22.3563L51.7452 23.1798C51.6539 23.2065 51.0346 23.3783 50.4874 23.3091C50.4757 23.3077 50.465 23.316 50.4635 23.3277C50.4633 23.3286 50.4633 23.3294 50.4633 23.3304C50.4633 23.3409 50.4712 23.3502 50.482 23.3515C51.0808 23.4272 51.7624 23.2194 51.7692 23.2173C51.7763 23.2151 51.7818 23.2093 51.7836 23.2021L51.9964 22.3613C51.9974 22.3576 51.9973 22.3538 51.9963 22.3502C51.7799 21.5909 51.0599 21.0212 51.0526 21.0155C51.0434 21.0083 51.0299 21.0099 51.0227 21.0192C51.0154 21.0284 51.017 21.0418 51.0263 21.0491Z" fill="#431207"/>
<path d="M50.7814 23.3457L50.1419 22.448L49.0463 22.7237L48.9554 23.9168L50.0664 24.2894L50.7814 23.3457Z" fill="#431207"/>
<path d="M50.4305 21.3219L50.4168 21.3108L49.5393 20.6198L49.5325 20.6143L49.5358 20.5767L49.5912 20.0003C50.1893 20.062 50.7308 20.3168 51.1514 20.7005L51.2288 21.1727L51.2369 21.2226L51.2212 21.2247L50.4591 21.3185L50.4305 21.3219Z" fill="#431207"/>
<path d="M48.3612 20.9341C48.3612 20.9341 48.1559 21.5962 48.1484 21.9614C48.1484 21.9614 47.3571 22.2736 47.2431 22.4106C47.2431 22.4106 47.0039 21.911 46.969 21.6345C46.969 21.6345 47.1438 21.1171 47.7144 20.7137L48.3612 20.9341Z" fill="#431207"/>
<path d="M51.767 23.9286C51.7379 23.6486 51.6729 23.3493 51.6498 23.2502C51.6452 23.2284 51.6421 23.216 51.6421 23.216C51.6438 23.2131 51.6455 23.21 51.6472 23.2071C51.8205 22.9188 51.8883 22.41 51.9083 22.2187C51.9134 22.1713 51.9155 22.1431 51.9155 22.1431L51.9271 22.1495L51.9932 22.1874C52.0278 22.3608 52.0458 22.5397 52.0459 22.7228C52.046 23.1558 51.9458 23.5648 51.767 23.9286Z" fill="#431207"/>
<path d="M50.9361 24.9246C50.5037 25.2453 49.973 25.441 49.3979 25.4595L50.189 25.0349L50.2039 25.0328L50.2466 25.0264L50.9361 24.9246Z" fill="#431207"/>
<path d="M48.2228 25.0305L47.8326 25.0306C47.5768 24.8667 47.3504 24.6615 47.1625 24.4246C47.1484 24.4075 47.1353 24.3901 47.1224 24.3726C47.0067 24.2202 46.9071 24.0549 46.8255 23.8795L47.158 23.6335L47.1824 23.6155C47.188 23.6232 47.1939 23.6305 47.1999 23.6381L47.1999 23.6386C47.4404 23.9447 47.9101 24.2195 48.0138 24.2784C48.0275 24.2861 48.0347 24.2899 48.0347 24.2899C48.0351 24.298 48.036 24.3065 48.0369 24.3146C48.0652 24.616 48.1938 24.9563 48.219 25.0199C48.2216 25.0268 48.2228 25.0305 48.2228 25.0305Z" fill="#431207"/>
<path d="M51.107 7.38138C51.3316 7.29014 51.5673 7.19045 51.7129 6.99667C51.9724 6.65108 51.8917 6.07924 52.2569 5.84806C51.9156 5.90318 51.587 5.71948 51.283 5.55497C50.6062 5.18869 49.8745 4.88148 49.1055 4.85248C48.3364 4.82347 47.5214 5.11566 47.0528 5.87581C46.8552 5.96468 46.584 5.93007 46.4618 6.10891C46.4026 6.19554 46.4002 6.30776 46.4033 6.41264C46.4149 6.80713 46.4746 7.20015 46.5967 7.68393C46.6677 7.92103 46.7386 8.15812 46.8096 8.39521C46.8361 8.48387 46.8686 8.58056 46.9482 8.62788C47.0063 8.66244 47.0785 8.66297 47.1454 8.65357C47.556 8.59596 47.8392 8.23126 48.1502 7.95713C48.8979 7.29814 50.0268 7.10768 51.107 7.38138Z" fill="#751648"/>
<path d="M51.4616 7.03371C51.2396 7.81728 50.9672 8.58659 50.6466 9.33527C50.4666 9.75563 50.2389 10.2028 49.8213 10.389C49.5116 10.5271 49.1534 10.4931 48.8218 10.4221C48.3139 10.3131 47.8162 10.1186 47.412 9.79226C47.0078 9.46595 46.9062 9.08217 46.7762 8.53574C46.4535 8.68806 46.1758 8.12605 46.1227 7.88547C46.079 7.68719 46.162 7.46234 46.3339 7.35418C46.5058 7.24603 46.7563 7.27495 46.9747 7.46582C46.8836 7.79125 46.9432 8.15566 47.1334 8.43505C47.2202 8.15897 47.307 7.88282 47.3939 7.60673C47.4131 7.54576 47.4333 7.48286 47.4759 7.4352C47.5718 7.32791 47.7438 7.33359 47.8615 7.25085C48.1303 7.06213 47.9669 6.56292 48.2328 6.37013C48.2908 6.32813 48.3616 6.30829 48.4309 6.2906C48.9669 6.15412 49.5312 6.10066 50.0746 6.2037C50.618 6.30675 51.1398 6.57547 51.4616 7.03371Z" fill="#FFC2A0"/>
<path d="M48.4805 8.92676C48.9838 9.14279 49.5334 9.24995 50.0809 9.23884C49.9705 9.42148 49.8394 9.61394 49.6362 9.67936C49.4947 9.72489 49.338 9.69967 49.2016 9.6406C49.0651 9.58152 48.9452 9.49091 48.8267 9.4011C48.7514 9.34405 48.6748 9.28566 48.6202 9.20857C48.5655 9.13148 48.5353 9.03125 48.4805 8.92676Z" fill="white"/>
</g>
<path d="M33.5143 34.9696C33.5143 34.9696 33.2687 36.6209 33.0217 37.309C33.0047 37.3562 32.9878 37.399 32.9708 37.4367C32.7083 38.0193 32.7606 39.6138 32.7606 39.6138C32.7606 39.6138 32.9708 39.7636 32.9007 40.8625C32.8307 41.9621 32.6382 43.9956 32.6382 43.9956L32.428 44.6085V47.6168L30.8327 47.5202C30.8327 47.5202 30.0266 43.154 29.8864 42.1554C29.7463 41.156 29.5361 39.6138 29.7109 38.492C29.778 38.0621 29.8533 37.6704 29.9078 37.309C29.9971 36.7279 30.0339 36.2227 29.9041 35.758C29.6939 35.005 29.6445 34.5669 29.6445 34.5669L33.5143 34.9696Z" fill="#39A08F"/>
<path d="M30.8676 41.6602C30.8335 41.6602 30.8049 41.6335 30.8029 41.599C30.8008 41.5608 30.7506 40.6584 30.8034 40.254C30.8603 39.8175 32.0669 39.5606 32.2042 39.5328C32.2393 39.5257 32.2736 39.5484 32.2807 39.5835C32.2879 39.6186 32.2652 39.6529 32.2301 39.66C31.7462 39.7581 30.9659 40.0108 30.932 40.2708C30.8808 40.6632 30.932 41.5825 30.9325 41.5917C30.9345 41.6275 30.9071 41.6581 30.8713 41.6601C30.8701 41.6602 30.8688 41.6602 30.8676 41.6602Z" fill="#1D7D6A"/>
<path d="M31.5801 44.5894C31.5642 44.5894 31.5484 44.5836 31.5358 44.5719L31.1572 44.2177C31.1311 44.1933 31.1298 44.1522 31.1542 44.126C31.1787 44.0998 31.2198 44.0985 31.2459 44.123L31.6245 44.4772C31.6507 44.5016 31.652 44.5426 31.6275 44.5688C31.6147 44.5825 31.5975 44.5894 31.5801 44.5894Z" fill="#1D7D6A"/>
<path d="M33.5143 34.9696C33.5143 34.9696 33.2687 36.6209 33.0217 37.309H29.9078C29.9971 36.7279 30.0339 36.2227 29.9041 35.758C29.6939 35.005 29.6445 34.5669 29.6445 34.5669L33.5143 34.9696Z" fill="#431207"/>
<path d="M32.637 49.0603L32.5844 49.4721H32.2427L32.0937 48.9551L31.8746 49.4721H31.5995V49.0077L31.3892 49.034V49.4721H31.1649L31.0159 49.0252L30.9019 49.0603V49.4721H30.6654L30.4375 49.034L30.8932 48.7361L32.5931 48.7886L32.637 49.0603Z" fill="#431207"/>
<path d="M32.9139 49.1471C32.6381 49.1951 30.5877 49.2046 30.5877 49.2046C30.0486 49.209 30.1651 48.6478 30.3495 48.4111C30.5332 48.1743 30.809 47.3933 30.809 47.3933L31.0339 47.1278C31.0339 47.1278 31.2183 46.7206 31.6653 46.6992C31.8777 46.6897 32.0606 46.7708 32.2125 46.8954C32.38 47.0319 32.509 47.22 32.5983 47.3933C32.7686 47.7244 33.1898 49.0992 32.9139 49.1471Z" fill="#EDAE63"/>
<path d="M32.2118 46.8954C31.9972 46.7995 31.8747 47.6315 31.8836 47.9515C31.8924 48.2716 31.7169 48.4206 31.5377 48.4118C31.3577 48.403 31.2353 48.0437 31.2788 47.6167C31.323 47.1897 31.0332 47.1278 31.0332 47.1278C31.0332 47.1278 31.2176 46.7206 31.6646 46.6992C31.877 46.6897 32.0599 46.7708 32.2118 46.8954Z" fill="#DC6C54"/>
<path d="M36.0449 34.9696C36.0449 34.9696 36.2905 36.6209 36.5376 37.309C36.5545 37.3562 36.5715 37.399 36.5884 37.4367C36.851 38.0193 36.7986 39.6138 36.7986 39.6138C36.7986 39.6138 36.5884 39.7636 36.6585 40.8625C36.7286 41.9621 36.9211 43.9956 36.9211 43.9956L37.1313 44.6085V47.6168L38.7265 47.5202C38.7265 47.5202 39.5327 43.154 39.6728 42.1554C39.813 41.156 40.0232 39.6138 39.8484 38.492C39.7813 38.0621 39.706 37.6704 39.6514 37.309C39.5622 36.7279 39.5253 36.2227 39.6551 35.758C39.8653 35.005 39.9147 34.5669 39.9147 34.5669L36.0449 34.9696Z" fill="#39A08F"/>
<path d="M38.6917 41.66C38.6905 41.66 38.6893 41.6599 38.688 41.6599C38.6523 41.6579 38.6249 41.6273 38.6269 41.5915C38.6275 41.5823 38.6786 40.663 38.6274 40.2705C38.5934 40.0105 37.8132 39.7579 37.3293 39.6598C37.2942 39.6526 37.2715 39.6184 37.2786 39.5833C37.2858 39.5481 37.32 39.5254 37.3552 39.5326C37.4925 39.5604 38.6991 39.8173 38.756 40.2538C38.8088 40.6582 38.7586 41.5606 38.7565 41.5988C38.7545 41.6333 38.7259 41.66 38.6917 41.66Z" fill="#1D7D6A"/>
<path d="M37.9789 44.5894C37.9616 44.5894 37.9443 44.5825 37.9316 44.5688C37.9071 44.5427 37.9084 44.5017 37.9346 44.4772L38.3132 44.123C38.3393 44.0985 38.3804 44.0999 38.4048 44.1261C38.4293 44.1522 38.428 44.1933 38.4018 44.2178L38.0233 44.5719C38.0108 44.5836 37.9948 44.5894 37.9789 44.5894Z" fill="#1D7D6A"/>
<path d="M36.0449 34.9696C36.0449 34.9696 36.2905 36.6209 36.5376 37.309H39.6514C39.5622 36.7279 39.5253 36.2227 39.6551 35.758C39.8653 35.005 39.9147 34.5669 39.9147 34.5669L36.0449 34.9696Z" fill="#431207"/>
<path d="M36.9219 49.0603L36.9745 49.4721H37.3162L37.4651 48.9551L37.6842 49.4721H37.9594V49.0077L38.1697 49.034V49.4721H38.394L38.543 49.0252L38.6569 49.0603V49.4721H38.8935L39.1214 49.034L38.6657 48.7361L36.9657 48.7886L36.9219 49.0603Z" fill="#431207"/>
<path d="M36.646 49.1474C36.9219 49.1953 38.9722 49.2049 38.9722 49.2049C39.5113 49.2093 39.3948 48.6481 39.2104 48.4113C39.0267 48.1746 38.7509 47.3935 38.7509 47.3935L38.526 47.128C38.526 47.128 38.3416 46.7209 37.8946 46.6995C37.6822 46.6899 37.4993 46.771 37.3474 46.8957C37.1799 47.0321 37.0509 47.2202 36.9616 47.3935C36.7913 47.7247 36.3701 49.0994 36.646 49.1474Z" fill="#EDAE63"/>
<path d="M37.3477 46.8957C37.5623 46.7998 37.6848 47.6317 37.6759 47.9518C37.667 48.2718 37.8426 48.4209 38.0218 48.412C38.2018 48.4032 38.3242 48.044 38.2807 47.617C38.2364 47.1899 38.5263 47.128 38.5263 47.128C38.5263 47.128 38.3419 46.7209 37.8949 46.6995C37.6825 46.6899 37.4996 46.771 37.3477 46.8957Z" fill="#DC6C54"/>
<path d="M40.9771 35.6951C38.475 36.1858 35.679 36.0957 35.679 36.0957L34.8532 30.7239L34.0349 35.9649C31.3373 36.2588 28.9336 35.9649 28.9336 35.9649L29.2253 30.1885L29.3994 26.7435V26.7422H29.4105L29.8653 26.7538L39.9979 27.0043L40.3144 27.0119L40.633 31.187L40.9771 35.6951Z" fill="#1D7D6A"/>
<path d="M35.4085 30.7887H34.8525C34.8376 30.7887 34.8231 30.7835 34.8115 30.774L34.1411 30.2265C34.1133 30.2038 34.1091 30.163 34.1318 30.1352C34.1545 30.1074 34.1954 30.1033 34.2232 30.1259L34.8757 30.6589H35.4085C35.4444 30.6589 35.4734 30.6879 35.4734 30.7238C35.4734 30.7596 35.4444 30.7887 35.4085 30.7887Z" fill="#0F5E4F"/>
<path d="M40.6332 31.1871V33.352L40.126 33.6789L39.998 27.0044L40.3146 27.012L40.6332 31.1871Z" fill="white"/>
<path d="M29.866 26.6729L29.8646 26.754L29.7311 33.679L29.2246 33.3521V30.1887L29.3987 26.7437L29.4084 26.7424H29.4097L29.866 26.6729Z" fill="white"/>
<path d="M38.7148 34.9997L39.5488 34.1331L40.312 35.1632H39.7777L39.5134 34.7381L38.7148 34.9997Z" fill="#EDAE63"/>
<path d="M28.9336 27.3201C28.9336 27.3201 30.8632 27.9115 34.5915 27.9769C38.3199 28.0423 40.7727 27.4864 40.7727 27.4864C40.7727 27.4864 39.8243 23.2021 39.8243 21.5014C39.8243 19.8007 39.5954 15.3202 39.5954 15.3202L39.0886 10.0708C39.0886 10.0708 37.306 9.40062 34.8532 9.33521C32.4003 9.2698 30.1234 10.1 30.1234 10.1L30.2418 15.4837C30.2418 15.4837 29.9147 21.6649 29.5223 23.6926C29.1298 25.7203 28.9336 27.3201 28.9336 27.3201Z" fill="#39A08F"/>
<path d="M33.1191 8.90727L34.3599 9.75539L34.8131 10.3717L35.1574 9.73724L36.408 9.08474C36.408 9.08474 34.8131 8.32354 33.1191 8.90727Z" fill="#1D7D6A"/>
<path d="M33.1191 8.90723L32.7246 9.4462L33.7663 10.7341L34.3599 9.75535L33.1191 8.90723Z" fill="#795DE0"/>
<path d="M36.4069 9.08496L36.7707 9.4895L35.7363 10.7344L35.1562 9.73747L36.4069 9.08496Z" fill="#795DE0"/>
<path d="M34.7642 12.8924C34.7637 12.8924 34.7632 12.8923 34.7628 12.8923C34.727 12.8916 34.6985 12.862 34.6992 12.8262L34.7487 10.3702C34.7494 10.3343 34.7793 10.3052 34.8148 10.3067C34.8507 10.3074 34.8792 10.337 34.8784 10.3728L34.8289 12.8288C34.8282 12.8642 34.7994 12.8924 34.7642 12.8924Z" fill="#1D7D6A"/>
<path d="M38.4882 13.5991C38.4882 13.9987 38.1643 14.3227 37.7646 14.3227C37.365 14.3227 37.041 13.9987 37.041 13.5991C37.041 13.1995 37.365 12.8755 37.7646 12.8755C38.1643 12.8755 38.4882 13.1995 38.4882 13.5991Z" fill="#EDAE63"/>
<path d="M31.1875 13.7198L31.8938 12.9858L32.5401 13.8583H32.0877L31.8638 13.4983L31.1875 13.7198Z" fill="#EDAE63"/>
<path d="M32.7242 27.3847C32.7158 27.3847 32.7071 27.383 32.6989 27.3795C31.8903 27.038 31.2311 26.2691 30.8204 25.684C30.3774 25.0529 30.1198 24.4934 30.1172 24.4878C30.1023 24.4552 30.1167 24.4168 30.1493 24.4019C30.1819 24.387 30.2203 24.4013 30.2352 24.4339C30.2452 24.4558 31.2529 26.628 32.7494 27.2601C32.7824 27.274 32.7979 27.3121 32.7839 27.345C32.7735 27.3698 32.7495 27.3847 32.7242 27.3847Z" fill="#1D7D6A"/>
<path d="M36.9458 27.5184C36.9217 27.5184 36.8986 27.505 36.8874 27.4818C36.8717 27.4496 36.8852 27.4108 36.9174 27.3952L39.3048 26.2341C39.3371 26.2184 39.3759 26.2319 39.3915 26.2641C39.4072 26.2963 39.3938 26.3352 39.3616 26.3508L36.9742 27.5118C36.965 27.5163 36.9553 27.5184 36.9458 27.5184Z" fill="#1D7D6A"/>
<path d="M32.6033 17.9996C32.582 17.9723 32.5613 17.9441 32.5413 17.9164C32.5174 17.8836 32.4947 17.8504 32.473 17.817C32.2205 17.433 32.077 17.0041 32.0369 16.5705C32.009 16.268 32.032 15.9633 32.1035 15.6695C32.1083 15.6479 32.114 15.6267 32.1199 15.6058C32.1691 15.4209 32.2383 15.2408 32.3266 15.0687C32.5028 14.7237 32.7555 14.411 33.0812 14.1574C33.3578 13.942 33.6626 13.7879 33.9794 13.6937C33.9972 13.688 34.0148 13.6829 34.033 13.6785C34.5207 13.5432 35.0349 13.5481 35.5153 13.6848C35.5318 13.6893 35.5482 13.6943 35.5646 13.6994C36.0849 13.858 36.5635 14.1731 36.9232 14.6349C36.9822 14.7107 37.0367 14.789 37.0867 14.8685C37.4054 15.3784 37.5369 15.9622 37.4926 16.5298C37.4481 17.1008 37.2254 17.6562 36.8357 18.1064C36.7202 18.2402 36.5901 18.3643 36.4456 18.4768C36.1041 18.7429 35.7197 18.915 35.3228 18.9974C34.8918 19.0874 34.4466 19.071 34.0264 18.954C33.5077 18.8098 33.0274 18.5113 32.6595 18.0689C32.6404 18.0465 32.6217 18.0232 32.6033 17.9996Z" fill="white"/>
<path d="M35.1769 14.0229C35.1772 14.0227 35.1775 14.0224 35.1775 14.0224L35.3804 13.8535L35.5648 13.6996C35.5484 13.6946 35.532 13.6895 35.5155 13.6851L35.3532 13.8206L35.3529 13.8209L35.1503 13.9895C35.1411 13.9972 35.1401 14.0104 35.1474 14.0198C35.1548 14.0287 35.1681 14.0297 35.1769 14.0229Z" fill="#B21D1D"/>
<path d="M32.7467 15.2164L32.7471 15.2161L33.784 14.5026L34.073 14.304C34.0751 14.3024 34.0772 14.3003 34.079 14.2977L34.3292 13.9005C34.3352 13.8909 34.3326 13.8778 34.3227 13.8714L34.2092 13.7959L34.033 13.6787C34.0148 13.6831 33.9972 13.6883 33.9794 13.694L34.2817 13.8952L34.0455 14.2714L33.7551 14.471L33.7547 14.4713L32.7251 15.1802L32.5604 15.2933L32.1199 15.6061C32.114 15.6269 32.1083 15.6481 32.1035 15.6697L32.5847 15.3279L32.7467 15.2164Z" fill="#431207"/>
<path d="M32.2833 16.869L32.2472 16.7234L32.5512 16.1922L32.728 16.2921L33.6136 16.794L33.8611 16.934C33.8651 16.9363 33.8696 16.9372 33.8735 16.9368C33.8929 16.9352 34.3455 16.8923 34.5471 16.6378C34.6247 16.54 34.654 16.4241 34.6353 16.2931C34.6276 16.2401 34.6219 16.1829 34.6178 16.1227C34.5894 15.7146 34.6357 15.1785 34.6612 14.9292C34.6674 14.8669 34.6724 14.8226 34.6748 14.8028L35.4439 14.436C35.4814 14.4501 35.5197 14.4668 35.5588 14.4856C35.9216 14.6575 36.3398 15.0062 36.5666 15.2083C36.651 15.2833 36.7089 15.3383 36.7277 15.3561L36.7156 16.2584L36.5604 16.3252L35.4854 16.7869C35.4844 16.7877 35.4827 16.7885 35.4817 16.7893L35.4764 16.7928L33.9876 17.8572L33.9873 17.8575L33.9823 17.8608C33.9809 17.8619 33.9793 17.8632 33.9782 17.8646L33.4919 18.443L33.3926 18.5615C33.3851 18.5706 33.3864 18.5841 33.3956 18.5916C33.4046 18.5992 33.4182 18.5978 33.4254 18.5889L33.5232 18.4727L34.0092 17.8939L34.0322 17.8776L35.4842 16.8403L35.5046 16.8256L36.5802 16.3633L36.7451 16.2922C36.7529 16.2889 36.7583 16.2814 36.7582 16.2729L36.7705 15.3471C36.7703 15.3413 36.7682 15.3358 36.7638 15.3317C36.7617 15.3296 36.6992 15.2689 36.5984 15.1791L36.5981 15.1794C36.3725 14.978 35.955 14.6288 35.5876 14.4517C35.5412 14.4289 35.4949 14.4091 35.4501 14.3926C35.4445 14.391 35.4387 14.3912 35.4336 14.3936L34.6458 14.7691C34.6396 14.7723 34.6349 14.7787 34.634 14.7858C34.6337 14.7882 34.6277 14.8362 34.6197 14.9155C34.5939 15.1624 34.5462 15.7125 34.5755 16.1302C34.5797 16.1897 34.5855 16.2464 34.5929 16.2991C34.61 16.4183 34.5833 16.523 34.5139 16.6111C34.3364 16.8355 33.9323 16.8872 33.8762 16.8936L33.6323 16.7555L32.7424 16.2516L32.5537 16.1448C32.5438 16.139 32.5303 16.1425 32.5248 16.1528L32.2061 16.7094C32.2034 16.7143 32.2023 16.7199 32.2038 16.7253L32.2253 16.8119L32.4736 17.8172C32.4953 17.8506 32.518 17.8838 32.5419 17.9166L32.2833 16.869Z" fill="#431207"/>
<path d="M37.1405 16.6453C37.1405 16.6544 37.1332 17.5545 36.6786 18.18L35.9008 18.5214C35.8237 18.4657 35.3076 18.0826 35.026 17.6083C35.02 17.5982 35.007 17.5948 34.9968 17.6008C34.996 17.6013 34.9953 17.6018 34.9945 17.6024C34.9862 17.6089 34.9838 17.6207 34.9893 17.6301C35.2974 18.1491 35.8801 18.5593 35.886 18.5633C35.8921 18.5676 35.9 18.5684 35.9068 18.5654L36.701 18.2169C36.7045 18.2153 36.7074 18.2129 36.7096 18.2099C37.1759 17.5727 37.1832 16.6546 37.1832 16.6454C37.1832 16.6336 37.1736 16.624 37.1619 16.624C37.1502 16.624 37.1405 16.6335 37.1405 16.6453Z" fill="#B21D1D"/>
<path d="M35.1778 17.8625L35.4934 16.8066L34.6029 16.1113L33.6055 16.7725L33.994 17.878L35.1778 17.8625Z" fill="#431207"/>
<path d="M36.5586 16.3427L36.559 16.3251L36.5652 15.2083L36.5653 15.1994L36.597 15.179L37.0859 14.8687C37.4046 15.3786 37.5361 15.9624 37.4917 16.53L37.1667 16.8811L37.1323 16.9182L37.1209 16.907L36.5788 16.3632L36.5586 16.3427Z" fill="#431207"/>
<path d="M35.5941 14.4715C35.5941 14.4715 34.9456 14.7162 34.6528 14.9347C34.6528 14.9347 33.9204 14.5021 33.7422 14.4962C33.7422 14.4962 33.9895 14.0005 34.1862 13.8031C34.1862 13.8031 34.7019 13.6233 35.3708 13.8257L35.5941 14.4715Z" fill="#431207"/>
<path d="M35.3223 18.9976C35.5254 18.8026 35.7216 18.5676 35.7856 18.4885C35.7999 18.4714 35.8078 18.4614 35.8078 18.4614C35.8112 18.4609 35.8146 18.4604 35.8181 18.4599C36.1519 18.4196 36.5951 18.1605 36.7583 18.0588C36.7989 18.0337 36.8225 18.0181 36.8225 18.0181L36.8245 18.0311L36.8352 18.1066C36.7197 18.2404 36.5896 18.3645 36.4451 18.477C36.1035 18.7431 35.7191 18.9152 35.3223 18.9976Z" fill="#431207"/>
<path d="M34.0271 18.9539C33.5083 18.8098 33.028 18.5113 32.6602 18.0688L33.4811 18.4322L33.492 18.4427L33.5232 18.4724L34.0271 18.9539Z" fill="#431207"/>
<path d="M32.2766 16.8785L32.0369 16.5706C32.009 16.2681 32.032 15.9634 32.1035 15.6696C32.1083 15.648 32.114 15.6268 32.1199 15.606C32.1691 15.421 32.2383 15.241 32.3266 15.0688L32.7251 15.1801L32.7541 15.1883C32.7515 15.1974 32.7495 15.2066 32.7471 15.216L32.7467 15.2163C32.6529 15.594 32.7246 16.1335 32.7419 16.2516C32.7442 16.2671 32.7456 16.2751 32.7456 16.2751C32.7395 16.2804 32.7333 16.2864 32.7274 16.292C32.5069 16.4995 32.3174 16.81 32.2827 16.8689C32.2789 16.8752 32.2766 16.8785 32.2766 16.8785Z" fill="#431207"/>
<path d="M38.961 10.022C38.961 10.022 39.7622 10.2591 40.4 11.2157C41.0377 12.1723 41.2585 12.7447 41.2585 12.7447C41.2585 12.7447 41.749 12.9777 41.7613 13.3906C41.7735 13.8035 41.7736 13.8035 41.7736 13.8035L43.4905 17.6422L40.1974 18.2967L39.4025 16.8082L38.2578 15.222L38.961 10.022Z" fill="#39A08F"/>
<path d="M41.4178 13.2552C41.4098 13.2552 41.4017 13.2537 41.3939 13.2506C41.3467 13.2318 40.2327 12.7842 39.7133 12.1906C39.6897 12.1636 39.6925 12.1226 39.7194 12.099C39.7464 12.0754 39.7873 12.0783 39.811 12.1052C40.3097 12.6751 41.4305 13.1256 41.4418 13.1301C41.4751 13.1433 41.4913 13.181 41.4781 13.2143C41.468 13.2398 41.4436 13.2552 41.4178 13.2552Z" fill="#1D7D6A"/>
<path d="M39.5333 16.3827C39.5143 16.3827 39.4956 16.3745 39.4828 16.3586L38.6316 15.3039C38.6091 15.276 38.6134 15.2352 38.6413 15.2127C38.6693 15.1901 38.71 15.1945 38.7325 15.2224L39.5837 16.2771C39.6062 16.305 39.6019 16.3458 39.574 16.3683C39.562 16.378 39.5476 16.3827 39.5333 16.3827Z" fill="#1D7D6A"/>
<path d="M43.4908 17.6418C43.4908 17.6418 43.8465 18.6475 43.8587 19.089C43.871 19.5305 43.1965 20.2051 42.2276 20.0579C41.2587 19.9107 37.837 17.9239 37.837 17.9239L37.7266 15.8145L42.62 17.1758C42.62 17.1758 43.2578 17.2616 43.4908 17.6418Z" fill="#39A08F"/>
<path d="M42.6205 17.2406C42.6147 17.2406 42.6089 17.2399 42.6031 17.2383L37.7096 15.8769C37.6751 15.8673 37.6549 15.8315 37.6645 15.797C37.6741 15.7625 37.7099 15.7423 37.7444 15.7519L42.6378 17.1132C42.6723 17.1229 42.6926 17.1586 42.6829 17.1931C42.675 17.2218 42.6488 17.2406 42.6205 17.2406Z" fill="#1D7D6A"/>
<path d="M39.5283 18.9263C39.518 18.9263 39.5075 18.9238 39.4978 18.9187C38.5904 18.4361 37.8116 17.9844 37.8039 17.9799C37.7729 17.9619 37.7622 17.9222 37.7803 17.8912C37.7983 17.8602 37.8381 17.8497 37.869 17.8677C37.8767 17.8721 38.6536 18.3228 39.5588 18.8041C39.5904 18.821 39.6025 18.8602 39.5856 18.8918C39.574 18.9138 39.5515 18.9263 39.5283 18.9263Z" fill="#1D7D6A"/>
<path d="M42.2797 19.5712C42.2482 19.5712 42.2205 19.5482 42.2156 19.5161C42.2102 19.4807 42.2345 19.4476 42.27 19.4422L42.9936 19.3318C43.0291 19.3263 43.0621 19.3507 43.0675 19.3861C43.0729 19.4216 43.0486 19.4547 43.0131 19.4601L42.2895 19.5705C42.2862 19.571 42.283 19.5712 42.2797 19.5712Z" fill="#1D7D6A"/>
<path d="M36.9852 15.3914L36.6969 14.9377C36.6969 14.9377 35.9917 14.6004 35.8998 14.4532C35.8078 14.306 35.8446 14.0914 35.8998 14.0669C35.9445 14.047 36.7467 14.3414 37.049 14.4536C37.1227 14.481 37.1839 14.5336 37.2224 14.6022L37.8437 15.7103L36.9852 15.3914Z" fill="#DC6C54"/>
<path d="M38.2577 17.1021C38.2577 17.1021 38.2046 18.2305 37.8612 18.3164C37.5178 18.4022 37.0885 17.9465 37.0885 17.9465H36.7328C36.7328 17.9465 36.181 18.1937 36.0338 18.0588C35.8866 17.9238 35.7762 17.654 36.1441 17.5682C36.5121 17.4824 37.2357 17.1021 37.2357 17.1021C37.2357 17.1021 36.4263 16.8753 35.9786 16.8201C35.531 16.7649 35.4574 16.6913 35.4574 16.5135C35.4574 16.3357 35.4328 16.2007 35.8008 16.164C36.1687 16.1272 36.6225 16.164 36.6225 16.164L37.1253 16.1762L36.5229 15.8635C36.5229 15.8635 35.7272 15.7347 35.6107 15.6488C35.4942 15.563 35.5678 15.2073 35.6046 15.1338C35.6413 15.0602 36.6654 15.1338 36.6654 15.1338L37.8513 15.6192C37.941 15.6559 38.01 15.7294 38.0412 15.8212C38.0944 15.9772 38.1597 16.2307 38.12 16.4521C38.12 16.4521 38.2251 16.6361 38.2577 17.1021Z" fill="#EDAE63"/>
<path d="M37.7264 16.3822C37.7215 16.3822 37.7166 16.3816 37.7116 16.3804L37.1106 16.2394C37.0757 16.2312 37.0541 16.1963 37.0623 16.1614C37.0705 16.1265 37.1054 16.1049 37.1403 16.113L37.7412 16.2541C37.7761 16.2623 37.7978 16.2972 37.7896 16.3321C37.7825 16.362 37.7559 16.3822 37.7264 16.3822Z" fill="#DC6C54"/>
<path d="M37.6519 17.2164C37.6493 17.2164 37.6468 17.2163 37.6442 17.216L37.2272 17.167C37.1917 17.1628 37.1662 17.1305 37.1704 17.0949C37.1745 17.0593 37.2068 17.0339 37.2424 17.038L37.6593 17.0871C37.6949 17.0913 37.7204 17.1236 37.7162 17.1591C37.7124 17.1921 37.6843 17.2164 37.6519 17.2164Z" fill="#DC6C54"/>
<path d="M30.3148 10.022C30.3148 10.022 29.5135 10.2591 28.8757 11.2157C28.238 12.1723 28.0172 12.7447 28.0172 12.7447C28.0172 12.7447 27.5266 12.9777 27.5144 13.3906C27.5021 13.8035 27.5021 13.8035 27.5021 13.8035L25.7852 17.6422L28.9067 18.5448L29.8732 16.8082L31.0179 15.222L30.3148 10.022Z" fill="#39A08F"/>
<path d="M27.8579 13.2552C27.8321 13.2552 27.8077 13.2398 27.7976 13.2143C27.7843 13.181 27.8006 13.1433 27.8339 13.1301C27.8452 13.1256 28.966 12.6751 29.4647 12.1052C29.4883 12.0782 29.5293 12.0755 29.5562 12.0991C29.5832 12.1227 29.586 12.1637 29.5624 12.1906C29.0429 12.7842 27.929 13.2319 27.8818 13.2506C27.874 13.2538 27.8659 13.2552 27.8579 13.2552Z" fill="#1D7D6A"/>
<path d="M29.7426 16.3827C29.7283 16.3827 29.7139 16.378 29.7019 16.3683C29.674 16.3458 29.6696 16.305 29.6921 16.2771L30.5433 15.2224C30.5658 15.1945 30.6066 15.1901 30.6345 15.2126C30.6624 15.2351 30.6668 15.276 30.6443 15.3039L29.7931 16.3586C29.7803 16.3744 29.7615 16.3827 29.7426 16.3827Z" fill="#1D7D6A"/>
<path d="M25.7861 17.6418C25.7861 17.6418 25.4304 18.6475 25.4181 19.089C25.4059 19.5305 26.0804 20.2051 27.0493 20.0579C28.0182 19.9107 31.4399 17.9239 31.4399 17.9239L31.5503 15.8145L26.6568 17.1758C26.6568 17.1758 26.0191 17.2616 25.7861 17.6418Z" fill="#39A08F"/>
<path d="M26.6567 17.2406C26.6283 17.2406 26.6022 17.2218 26.5942 17.1931C26.5846 17.1586 26.6048 17.1229 26.6393 17.1132L31.5328 15.7519C31.5673 15.7423 31.6031 15.7625 31.6127 15.797C31.6223 15.8315 31.6021 15.8673 31.5676 15.8769L26.6741 17.2383C26.6683 17.2399 26.6624 17.2406 26.6567 17.2406Z" fill="#1D7D6A"/>
<path d="M29.7485 18.9263C29.7253 18.9263 29.7028 18.9138 29.6912 18.8918C29.6744 18.8602 29.6864 18.821 29.718 18.8041C30.6232 18.3228 31.4001 17.8721 31.4078 17.8676C31.4388 17.8497 31.4785 17.8602 31.4965 17.8912C31.5145 17.9221 31.5039 17.9619 31.4729 17.9799C31.4652 17.9844 30.6864 18.4361 29.779 18.9187C29.7693 18.9238 29.7588 18.9263 29.7485 18.9263Z" fill="#1D7D6A"/>
<path d="M26.9956 19.5712C26.9923 19.5712 26.9891 19.571 26.9858 19.5705L26.2622 19.4601C26.2267 19.4547 26.2024 19.4216 26.2078 19.3861C26.2132 19.3507 26.2462 19.3263 26.2817 19.3318L27.0053 19.4422C27.0408 19.4476 27.065 19.4807 27.0596 19.5161C27.0547 19.5482 27.0271 19.5712 26.9956 19.5712Z" fill="#1D7D6A"/>
<path d="M32.2921 15.3914L32.5803 14.9377C32.5803 14.9377 33.2855 14.6004 33.3775 14.4532C33.4695 14.306 33.4327 14.0914 33.3775 14.0669C33.3328 14.047 32.5306 14.3414 32.2283 14.4536C32.1545 14.481 32.0933 14.5336 32.0548 14.6022L31.4336 15.7103L32.2921 15.3914Z" fill="#DC6C54"/>
<path d="M31.0195 17.1021C31.0195 17.1021 31.0727 18.2305 31.4161 18.3164C31.7595 18.4022 32.1888 17.9465 32.1888 17.9465H32.5444C32.5444 17.9465 33.0963 18.1937 33.2435 18.0588C33.3907 17.9238 33.501 17.654 33.1331 17.5682C32.7651 17.4824 32.0416 17.1021 32.0416 17.1021C32.0416 17.1021 32.851 16.8753 33.2986 16.8201C33.7463 16.7649 33.8199 16.6913 33.8199 16.5135C33.8199 16.3357 33.8444 16.2007 33.4765 16.164C33.1085 16.1272 32.6548 16.164 32.6548 16.164L32.152 16.1762L32.7544 15.8635C32.7544 15.8635 33.55 15.7347 33.6666 15.6488C33.7831 15.563 33.7095 15.2073 33.6727 15.1338C33.6359 15.0602 32.6119 15.1338 32.6119 15.1338L31.426 15.6192C31.3363 15.6559 31.2673 15.7294 31.236 15.8212C31.1828 15.9772 31.1176 16.2307 31.1572 16.4521C31.1572 16.4521 31.0522 16.6361 31.0195 17.1021Z" fill="#EDAE63"/>
<path d="M31.5512 16.3822C31.5218 16.3822 31.4951 16.362 31.4881 16.3321C31.4799 16.2972 31.5016 16.2623 31.5364 16.2541L32.1374 16.1131C32.1724 16.1049 32.2071 16.1266 32.2154 16.1614C32.2236 16.1963 32.2019 16.2312 32.167 16.2394L31.566 16.3805C31.5611 16.3816 31.5561 16.3822 31.5512 16.3822Z" fill="#DC6C54"/>
<path d="M31.6234 17.2164C31.591 17.2164 31.5629 17.1921 31.559 17.1591C31.5549 17.1236 31.5803 17.0913 31.6159 17.0871L32.0328 17.038C32.068 17.0339 32.1007 17.0593 32.1049 17.0949C32.1091 17.1305 32.0836 17.1628 32.0481 17.167L31.631 17.216C31.6284 17.2163 31.6259 17.2164 31.6234 17.2164Z" fill="#DC6C54"/>
<path d="M32.4302 7.25807C32.4302 7.25807 32.6432 8.26276 33.2642 8.74202C33.9536 9.27419 35.0297 9.45846 35.9241 8.85365C36.6193 8.38358 36.7822 7.956 36.9741 7.34389C36.9741 7.34389 37.201 7.37454 37.4524 7.12927C37.7038 6.884 37.8388 6.36274 37.7529 6.13586C37.6671 5.90898 37.4033 5.99486 37.3052 6.08682C37.2071 6.17877 37.0906 6.38726 37.0906 6.38726L36.9987 4.80516L34.7543 4.33301L32.4976 5.19149L32.4302 6.19103C32.4302 6.19103 32.1236 5.88446 31.9151 6.0623C31.7066 6.24014 32.0377 7.1354 32.1481 7.22735C32.2586 7.31931 32.4302 7.25807 32.4302 7.25807Z" fill="#FFC2A0"/>
<path d="M32.4308 6.19105L32.5779 7.13952H32.7497L32.8069 6.15016L33.0358 5.99482L33.2647 5.07092C33.2647 5.07092 35.3333 4.81744 36.3962 5.09545L36.6088 6.043L36.805 6.142L36.8541 7.13952H37.0095L37.0912 6.38728C37.0912 6.38728 37.1596 6.21207 37.3282 6.06826C37.3282 6.06826 37.5123 4.94415 37.5205 4.63347C37.5286 4.32279 36.4698 3.2967 35.3252 3.23945C34.1805 3.18219 33.0931 3.33759 32.7742 3.99984C32.7742 3.99984 32.071 4.20429 31.9974 4.58038C31.9238 4.95647 32.145 6.01805 32.145 6.01805C32.145 6.01805 32.349 6.06838 32.4308 6.19105Z" fill="#431207"/>
<path d="M33.8691 7.87487C33.8691 7.87487 35.0956 7.85029 35.6434 7.73584C35.6434 7.73584 35.3408 8.32453 34.7563 8.36542C34.1717 8.40631 33.8691 7.87487 33.8691 7.87487Z" fill="white"/>
</g>
</g>
<defs>
<clipPath id="clip0_90_464">
<rect width="64" height="52.4751" fill="white" transform="translate(0 0.286133)"/>
</clipPath>
</defs>
</svg>
