<svg width="64" height="65" viewBox="0 0 64 65" fill="none" xmlns="http://www.w3.org/2000/svg">
<g clip-path="url(#clip0_90_465)">
<mask id="mask0_90_465" style="mask-type:luminance" maskUnits="userSpaceOnUse" x="0" y="0" width="64" height="65">
<path d="M64 0.523438H0V64.5234H64V0.523438Z" fill="white"/>
</mask>
<g mask="url(#mask0_90_465)">
<path d="M26.8666 16.4684C28.4607 20.5234 26.4657 25.1031 22.4107 26.6972C18.3557 28.2913 13.776 26.2963 12.1819 22.2413C10.5878 18.1863 12.5827 13.6066 16.6378 12.0125C20.6928 10.4184 25.2724 12.4133 26.8666 16.4684Z" fill="#FFDD00"/>
<path d="M25.6465 16.9479C26.9758 20.3294 25.3123 24.1482 21.9309 25.4775C18.5494 26.8068 14.7306 25.1434 13.4012 21.7619C12.0719 18.3804 13.7354 14.5616 17.1169 13.2323C20.4983 11.903 24.3172 13.5665 25.6465 16.9479Z" fill="#F8A818"/>
<path d="M25.0867 17.168C26.2945 20.2403 24.783 23.71 21.7107 24.9177C18.6384 26.1256 15.1688 24.6141 13.961 21.5418C12.7531 18.4695 14.2646 14.9998 17.3369 13.792C20.4092 12.5842 23.8789 14.0957 25.0867 17.168Z" fill="#F7B836"/>
<path d="M21.6924 18.1675L21.6847 18.1628C22.0053 17.6366 22.107 17.1028 21.925 16.6399C21.6203 15.8649 20.9377 15.3767 19.401 15.7295L19.0098 14.7344L18.0043 15.1297L18.3955 16.1248L17.701 16.3978L17.3098 15.4027L16.2422 15.8224L16.6334 16.8175L15.3584 17.3187L15.7102 18.2137L16.225 18.0112L16.3794 18.0183L16.7043 18.1549L18.2548 22.0989L18.1022 22.4513L17.6789 22.6177L17.855 23.6694L19.13 23.1681L19.5266 24.1771L20.5942 23.7574L20.1976 22.7485L20.8921 22.4754L21.2887 23.4843L22.2943 23.0891L21.9019 22.0911C23.1772 21.5898 23.8838 20.351 23.4801 19.3241C23.2096 18.636 22.509 18.2177 21.6924 18.1675ZM19.2991 16.8706C19.7398 16.6973 20.2459 16.935 20.4293 17.4016C20.6128 17.8682 20.4041 18.3869 19.9632 18.5602L18.7401 19.041L18.0759 17.3515L19.2991 16.8706ZM21.0391 21.2967L19.8159 21.7775L19.0824 19.9117L20.3056 19.4309C20.9239 19.1878 21.5893 19.4085 21.7918 19.9237C21.9944 20.4389 21.6574 21.0536 21.0391 21.2967Z" fill="#F7B836"/>
<path d="M42.5376 17.5311C42.7606 21.8964 39.4025 25.616 35.0371 25.8389C30.6717 26.0618 26.9522 22.7037 26.7292 18.3383C26.5063 13.973 29.8644 10.2534 34.2298 10.0305C38.5951 9.80758 42.3147 13.1657 42.5376 17.5311Z" fill="#FFDD00"/>
<path d="M41.2243 17.5983C41.4102 21.2385 38.6099 24.3402 34.9697 24.5261C31.3295 24.7119 28.2278 21.9117 28.0419 18.2715C27.8561 14.6313 30.6563 11.5297 34.2966 11.3437C37.9368 11.1578 41.0385 13.9581 41.2243 17.5983Z" fill="#F8A818"/>
<path d="M40.6219 17.6287C40.7908 20.9361 38.2465 23.7543 34.9391 23.9232C31.6317 24.0921 28.8136 21.5478 28.6447 18.2404C28.4758 14.933 31.02 12.1149 34.3275 11.9459C37.6349 11.7771 40.453 14.3213 40.6219 17.6287Z" fill="#F7B836"/>
<path d="M31.8418 17.2414L36.1353 13.5713L37.2785 19.0645L34.0365 19.7143L31.8418 17.2414Z" fill="#F7B836"/>
<path d="M31.6484 17.8198L33.8291 20.3349L37.0852 19.643L33.0973 22.6329L31.6484 17.8198Z" fill="#F7B836"/>
<path d="M52.8166 54.6262H9.94559C9.75449 54.6262 9.59961 54.4714 9.59961 54.2804V21.7072C9.59961 21.5162 9.75449 21.3613 9.94559 21.3613H52.8166C53.0076 21.3613 53.1625 21.5162 53.1625 21.7072V54.2804C53.1625 54.4714 53.0076 54.6262 52.8166 54.6262Z" fill="#795DE0"/>
<path d="M51.3403 53.4806H11.4227C11.2448 53.4806 11.1006 53.3363 11.1006 53.1585V22.8295C11.1006 22.6516 11.2448 22.5073 11.4227 22.5073H51.3403C51.5181 22.5073 51.6623 22.6516 51.6623 22.8295V53.1585C51.6623 53.3363 51.5181 53.4806 51.3403 53.4806Z" stroke="#F8F9FD" stroke-width="0.374" stroke-miterlimit="10" stroke-dasharray="2.62 2.62"/>
<path d="M52.8985 30.3649H36.4225L33.951 27.7876H30.8864L28.514 30.3649L19.6973 30.3576" fill="#795DE0"/>
<path d="M52.8985 30.3649H36.4225L33.951 27.7876H30.8864L28.514 30.3649L19.6973 30.3576" stroke="#464E5E" stroke-width="1.466" stroke-miterlimit="10"/>
<g opacity="0.893831">
<path d="M19.7156 30.3648C19.7156 31.3707 18.9337 32.1861 17.9691 32.1861C17.0046 32.1861 16.2227 31.3707 16.2227 30.3648C16.2227 29.3589 17.0046 28.5435 17.9691 28.5435C18.9337 28.5435 19.7156 29.3589 19.7156 30.3648Z" fill="#795DE0"/>
</g>
<path d="M53.1624 33.6636L34.2803 33.6681L53.1624 33.6636Z" fill="#795DE0"/>
<path d="M53.1624 33.6636L34.2803 33.6681" stroke="#464E5E" stroke-width="1.466" stroke-miterlimit="10"/>
<g opacity="0.893831">
<path d="M34.3026 33.6758C34.3026 34.6817 33.5206 35.4971 32.5561 35.4971C31.5915 35.4971 30.8096 34.6817 30.8096 33.6758C30.8096 32.6699 31.5915 31.8545 32.5561 31.8545C33.5206 31.8545 34.3026 32.6699 34.3026 33.6758Z" fill="#795DE0"/>
</g>
<path d="M9.59961 39.2308L20.6232 39.2183L9.59961 39.2308Z" fill="#795DE0"/>
<path d="M9.59961 39.2308L20.6232 39.2183" stroke="#464E5E" stroke-width="1.466" stroke-miterlimit="10"/>
<g opacity="0.893831">
<path d="M24.0698 39.1279C24.0698 40.1351 23.2868 40.9515 22.321 40.9515C21.3552 40.9515 20.5723 40.1351 20.5723 39.1279C20.5723 38.1207 21.3552 37.3042 22.321 37.3042C23.2868 37.3042 24.0698 38.1207 24.0698 39.1279Z" fill="#795DE0"/>
</g>
<path d="M9.59961 36.4814H18.2989L20.9021 33.7666H28.9755" fill="#795DE0"/>
<path d="M9.59961 36.4814H18.2989L20.9021 33.7666H28.9755" stroke="#464E5E" stroke-width="1.466" stroke-miterlimit="10"/>
<path d="M9.59961 41.4299H17.9695L19.8148 43.2856H24.1645L29.8982 37.3062H52.8988" fill="#795DE0"/>
<path d="M9.59961 41.4299H17.9695L19.8148 43.2856H24.1645L29.8982 37.3062H52.8988" stroke="#464E5E" stroke-width="1.466" stroke-miterlimit="10"/>
<path d="M30.623 40.2959H53.1624H30.623Z" fill="#795DE0"/>
<path d="M30.623 40.2959H53.1624" stroke="#464E5E" stroke-width="1.466" stroke-miterlimit="10"/>
<path d="M53.1621 45.7142H41.0356L39.1793 43.7783H28.5797L26.3185 46.3998L17.71 46.3985" fill="#795DE0"/>
<path d="M53.1621 45.7142H41.0356L39.1793 43.7783H28.5797L26.3185 46.3998L17.71 46.3985" stroke="#464E5E" stroke-width="1.466" stroke-miterlimit="10"/>
<g opacity="0.893831">
<path d="M17.7062 46.4128C17.7062 47.4456 16.9034 48.2827 15.9131 48.2827C14.9229 48.2827 14.1201 47.4456 14.1201 46.4128C14.1201 45.3801 14.9229 44.543 15.9131 44.543C16.9034 44.543 17.7062 45.3801 17.7062 46.4128Z" fill="#795DE0"/>
</g>
<path d="M42.1201 38.1827V37.6559C42.1201 35.8213 43.6074 34.334 45.442 34.334H53.1626V38.1827H42.1201Z" fill="#616979"/>
<path d="M53.1624 42.5743H42.9306C42.7359 42.5743 42.5781 42.4165 42.5781 42.2218V35.4237C42.5781 35.229 42.7359 35.0713 42.9306 35.0713H53.1624V42.5743Z" fill="#2C3343"/>
<path d="M54.2983 41.9341H42.5816C42.3267 41.9341 42.1201 41.7275 42.1201 41.4726V34.8925C42.1201 34.6377 42.3267 34.4312 42.5816 34.4312H54.2983C54.3544 34.4312 54.3997 34.4765 54.3997 34.5325V41.8326C54.3997 41.8887 54.3544 41.9341 54.2983 41.9341Z" fill="#795DE0"/>
<path d="M49.0339 38.1825C49.0339 39.5211 47.9488 40.6062 46.6102 40.6062C45.2716 40.6062 44.1865 39.5211 44.1865 38.1825C44.1865 36.8439 45.2716 35.7588 46.6102 35.7588C47.9488 35.7588 49.0339 36.8439 49.0339 38.1825Z" fill="#E8EBEF"/>
<path d="M49.0337 38.1825C49.0337 39.5211 47.9486 40.6062 46.61 40.6062C46.2669 40.6062 45.9403 40.535 45.6445 40.4064C47.1025 40.1013 48.6833 39.5285 48.7475 37.0391C48.9302 37.3797 49.0337 37.769 49.0337 38.1825Z" fill="#BCC0C8"/>
</g>
</g>
<defs>
<clipPath id="clip0_90_465">
<rect width="64" height="64" fill="white" transform="translate(0 0.523438)"/>
</clipPath>
</defs>
</svg>
