<svg width="16" height="17" viewBox="0 0 16 17" fill="none" xmlns="http://www.w3.org/2000/svg">
<g clip-path="url(#clip0_1_5379)">
<path d="M11.8153 3.22634C12.1203 3.07884 12.3316 2.76759 12.3316 2.40634C12.3316 2.16499 12.2357 1.93353 12.065 1.76287C11.8944 1.59221 11.6629 1.49634 11.4216 1.49634C11.1802 1.49634 10.9488 1.59221 10.7781 1.76287C10.6074 1.93353 10.5116 2.16499 10.5116 2.40634C10.5116 2.77259 10.7278 3.08634 11.0391 3.23134C10.6791 5.18134 10.1266 6.63259 8.07031 6.94259C8.07031 6.94259 8.62406 9.71134 11.2141 9.71134C13.8041 9.71134 14.0666 6.97009 14.0666 6.97009C11.9653 7.07759 11.7878 4.43634 11.8153 3.22634Z" fill="#F19534"/>
<path d="M4.34277 3.22634C4.03777 3.07884 3.82652 2.76759 3.82652 2.40634C3.82652 2.16499 3.9224 1.93353 4.09306 1.76287C4.26371 1.59221 4.49518 1.49634 4.73652 1.49634C4.97787 1.49634 5.20933 1.59221 5.37999 1.76287C5.55065 1.93353 5.64652 2.16499 5.64652 2.40634C5.64652 2.77259 5.43027 3.08634 5.11902 3.23134C5.47902 5.18134 6.03152 6.63259 8.08777 6.94259C8.08777 6.94259 7.53402 9.71134 4.94402 9.71134C2.35402 9.71134 2.09277 6.97134 2.09277 6.97134C4.19277 7.07759 4.37027 4.43634 4.34277 3.22634Z" fill="#F19534"/>
<path d="M11.1787 9.71114C11.19 9.71114 11.2012 9.71239 11.2125 9.71239C11.9262 9.71239 12.4625 9.50364 12.865 9.20239L11.1787 9.71114Z" fill="#FFCA28"/>
<path d="M14.9047 2.60762C14.4885 2.55137 14.091 2.94762 14.0185 3.49012C13.9735 3.82887 14.0647 4.14512 14.241 4.34887L13.941 5.59262C13.941 5.59262 13.4822 8.53136 11.1647 9.11136C9.3122 9.57511 8.64095 6.18387 8.47845 5.13637C8.83095 4.96137 9.0747 4.59887 9.0747 4.17762C9.0747 3.58637 8.59595 3.10762 8.0047 3.10762C7.41345 3.10762 6.9347 3.58637 6.9347 4.17762C6.9347 4.60137 7.1822 4.96762 7.54095 5.14012C7.4122 6.17387 6.8447 9.45261 4.8447 9.11011C2.8147 8.76136 1.92845 5.34262 1.72345 4.41262C1.9672 4.21262 2.10345 3.86012 2.05345 3.48137C1.98095 2.93762 1.55095 2.54762 1.09345 2.60887C0.635951 2.67012 0.324701 3.16012 0.397201 3.70262C0.449701 4.09762 0.692201 4.41137 0.995951 4.53012L2.58595 14.4089C2.58595 14.4089 3.97345 15.5051 8.0047 15.5051C12.036 15.5051 13.4235 14.4089 13.4235 14.4089L15.0172 4.50387C15.2747 4.36887 15.4772 4.06512 15.5272 3.69262C15.601 3.14887 15.3222 2.66387 14.9047 2.60762Z" fill="#FFCA28"/>
<path d="M8.05539 12.9887C8.7278 12.9887 9.27289 12.3389 9.27289 11.5374C9.27289 10.7359 8.7278 10.0862 8.05539 10.0862C7.38298 10.0862 6.83789 10.7359 6.83789 11.5374C6.83789 12.3389 7.38298 12.9887 8.05539 12.9887Z" fill="#26A69A"/>
<path d="M8.05493 10.445C8.10243 10.4975 8.14493 10.5937 8.05493 10.7812C7.96493 10.9687 7.47993 11.2225 7.39118 11.2737C7.30243 11.3262 7.24368 11.3025 7.21618 11.2812C7.08493 11.1762 7.13493 10.9387 7.21993 10.7937C7.40243 10.48 7.78868 10.1562 8.05493 10.445Z" fill="#69F0AE"/>
<path d="M7.96482 12.0787C7.82732 12.145 7.37607 12.3462 7.52482 12.585C7.61232 12.7262 7.79357 12.7862 7.95982 12.7937C8.12607 12.8012 8.28982 12.7487 8.43732 12.6725C9.13732 12.31 9.19357 11.3575 9.05732 11.285C8.91732 11.21 8.82232 11.4037 8.74982 11.4862C8.52937 11.7331 8.26268 11.9344 7.96482 12.0787Z" fill="#00796B"/>
<path d="M14.7617 10.35C14.9567 9.27128 14.2317 9.00128 14.2317 9.00128C14.2317 9.00128 13.7642 8.91628 13.5442 10.13C13.3242 11.3425 13.7917 11.4275 13.7917 11.4275C13.7917 11.4275 14.5655 11.4288 14.7617 10.35Z" fill="#26A69A"/>
<path d="M14.4384 9.37C14.6084 9.5975 14.4072 9.93375 14.0809 10.1575C13.9847 10.2237 13.8572 10.1987 13.8384 10.1437C13.7859 9.98625 13.8084 9.8075 13.8784 9.65625C14.0859 9.2025 14.3522 9.255 14.4384 9.37Z" fill="#69F0AE"/>
<path d="M1.22017 10.3825C1.02392 9.305 1.75017 9.03375 1.75017 9.03375C1.75017 9.03375 2.21767 8.94875 2.43767 10.1625C2.65767 11.375 2.19017 11.46 2.19017 11.46C2.19017 11.46 1.41517 11.4613 1.22017 10.3825Z" fill="#26A69A"/>
<path d="M1.97256 9.39992C2.14006 9.52492 2.07131 9.68867 1.94506 9.80242C1.80131 9.93367 1.69131 10.0774 1.56881 10.2262C1.55006 10.2487 1.52881 10.2737 1.49881 10.2799C1.44131 10.2924 1.39506 10.2337 1.37631 10.1774C1.32256 10.0199 1.33256 9.83492 1.41256 9.68992C1.64006 9.27617 1.90756 9.35117 1.97256 9.39992Z" fill="#69F0AE"/>
<path d="M12.4984 11.395C12.4121 11.8862 12.0184 12.2275 11.6171 12.1575C11.2159 12.0875 11.1609 11.6687 11.2471 11.1775C11.3334 10.6862 11.5271 10.31 11.9271 10.38C12.3284 10.45 12.5846 10.905 12.4984 11.395ZM3.80339 11.395C3.88964 11.8862 4.28339 12.2275 4.68464 12.1575C5.08589 12.0875 5.14089 11.6687 5.05464 11.1775C4.96839 10.6862 4.77464 10.31 4.37464 10.38C3.97464 10.45 3.71839 10.905 3.80339 11.395Z" fill="#F44336"/>
<path d="M4.38494 11.0675C4.29369 11.17 4.07119 11.3763 3.99244 11.2188C3.88494 11.0038 4.03369 10.6788 4.20369 10.5713C4.37369 10.4638 4.51244 10.5488 4.53619 10.645C4.56494 10.7675 4.46619 10.975 4.38494 11.0675ZM11.4974 11.3813C11.3737 11.3625 11.3599 10.9363 11.6924 10.6013C11.8512 10.4413 12.0787 10.6313 12.0212 10.8875C11.9662 11.1313 11.7237 11.4163 11.4974 11.3813Z" fill="#FFA8A4"/>
<path d="M13.6434 12.7764C12.8946 13.1514 11.1771 14.1501 8.00586 14.1501C4.83461 14.1501 3.11711 13.1514 2.36836 12.7764C2.36836 12.7764 2.09961 12.9201 2.09961 13.0701V14.2214C2.09961 14.3751 2.18086 14.5164 2.31336 14.5951C2.89836 14.9401 4.68086 15.7551 8.00711 15.7551C11.3334 15.7551 13.1159 14.9401 13.7009 14.5951C13.7659 14.5568 13.8198 14.5021 13.8573 14.4366C13.8948 14.371 13.9145 14.2969 13.9146 14.2214V13.0701C13.9121 12.9201 13.6434 12.7764 13.6434 12.7764Z" fill="#FFCA28"/>
<path d="M4.94953 14.3549C5.29953 14.4237 5.40578 14.4537 5.38203 14.6487C5.33328 15.0324 4.53703 14.9412 4.06578 14.8174C3.09203 14.5612 2.89453 14.2912 2.89453 14.0499C2.89453 13.8287 3.06453 13.8024 3.32703 13.8949C3.64078 14.0062 4.12578 14.1937 4.94953 14.3549Z" fill="#FFF59D"/>
<path d="M13.6441 13.0288C13.6441 13.0288 11.5729 14.2013 8.00664 14.2013C4.44039 14.2013 2.36914 13.0288 2.36914 13.0288" stroke="#F19534" stroke-width="4" stroke-miterlimit="10" stroke-linecap="round"/>
<path d="M3.37123 6.6962C4.03623 6.2212 4.39373 5.36995 4.42498 4.01495C4.42748 3.89245 4.46248 3.8562 4.52873 3.8487C4.63498 3.83745 4.65248 3.9337 4.65123 4.00245C4.62123 5.46495 4.43498 6.3787 3.69748 6.8937C3.66123 6.9187 3.40248 7.0762 3.29248 6.96745C3.16123 6.83995 3.32873 6.7262 3.37123 6.6962ZM3.97998 2.44245C3.95873 2.2162 4.01123 1.8087 4.60498 1.6237C4.77873 1.56995 4.88623 1.65495 4.90623 1.7212C4.95623 1.8862 4.81123 1.9512 4.74498 1.97245C4.28873 2.11995 4.26623 2.34745 4.17248 2.49245C4.07873 2.63745 3.98748 2.5112 3.97998 2.44245ZM9.77748 6.3962C10.3787 5.86245 10.7775 5.2662 11.04 3.9087C11.0637 3.7887 11.0987 3.7562 11.1637 3.7587C11.27 3.7612 11.275 3.85995 11.2637 3.92745C11.0412 5.37495 10.83 5.78745 10.0887 6.6087C10.005 6.7012 9.80123 6.78495 9.68623 6.6887C9.58248 6.60245 9.70248 6.4637 9.77748 6.3962ZM10.6625 2.4537C10.6412 2.22745 10.6937 1.81995 11.2875 1.63495C11.4612 1.5812 11.5687 1.6662 11.5887 1.73245C11.6387 1.89745 11.4937 1.96245 11.4275 1.9837C10.9712 2.1312 10.9487 2.3587 10.855 2.5037C10.7625 2.6487 10.67 2.52245 10.6625 2.4537Z" fill="#FFCA28"/>
<path d="M3.94828 9.4525C2.49578 8.79375 2.06828 7.075 1.84078 6.32875C1.81078 6.23 1.82578 6.13625 1.92453 6.10625C2.02328 6.07625 2.08203 6.14 2.11328 6.23875C2.27828 6.78 2.91953 8.5875 4.24328 9.10125C4.33953 9.13875 4.48953 9.23 4.40828 9.38625C4.35453 9.4875 4.18203 9.55875 3.94828 9.4525ZM1.58453 3.57875C1.51453 3.43375 1.48578 3.29625 1.10453 3.1375C1.00828 3.0975 0.944528 3.00875 0.970778 2.90875C0.997028 2.80875 1.09703 2.73375 1.24203 2.75875C1.71328 2.84 1.81578 3.31875 1.83578 3.485C1.85453 3.645 1.65578 3.72375 1.58453 3.57875ZM12.1083 9.4525C13.5608 8.79375 13.9883 7.075 14.2158 6.32875C14.2458 6.23 14.2308 6.13625 14.132 6.10625C14.0333 6.07625 13.9745 6.14 13.9433 6.23875C13.7783 6.78 13.137 8.5875 11.8133 9.10125C11.717 9.13875 11.567 9.23 11.6483 9.38625C11.702 9.4875 11.8745 9.55875 12.1083 9.4525ZM14.472 3.57875C14.542 3.43375 14.5708 3.29625 14.952 3.1375C15.0483 3.0975 15.112 3.00875 15.0858 2.90875C15.0595 2.80875 14.9595 2.73375 14.8145 2.75875C14.3433 2.84 14.2408 3.31875 14.2208 3.485C14.202 3.645 14.402 3.72375 14.472 3.57875ZM7.42203 4.19375C7.49828 4.0375 7.63203 3.82375 8.06828 3.73375C8.23578 3.69875 8.28453 3.62625 8.26953 3.51625C8.23953 3.2875 7.95453 3.30375 7.80078 3.34C7.28828 3.46 7.17453 3.915 7.15328 4.095C7.13203 4.26625 7.34703 4.35 7.42203 4.19375Z" fill="#FFF59D"/>
</g>
<defs>
<clipPath id="clip0_1_5379">
<rect width="16" height="16" fill="white" transform="translate(0 0.5)"/>
</clipPath>
</defs>
</svg>
