<svg width="40" height="38" viewBox="0 0 40 38" fill="none" xmlns="http://www.w3.org/2000/svg">
<path d="M14.1934 1.3918L14.2456 0.988737C14.2456 0.988737 16.3287 0.0665283 20.1154 0.0665283C23.902 0.0665283 25.7373 0.988737 25.7373 0.988737C25.7373 0.988737 26.3256 5.94414 19.9771 5.93631C14.1178 5.92979 14.1934 1.3918 14.1934 1.3918Z" fill="url(#paint0_linear_1_688)"/>
<path d="M19.9912 6.00153H19.9768C17.9694 5.99892 16.4341 5.47064 15.4115 4.42973C14.1149 3.10968 14.1279 1.40744 14.1279 1.39049L14.1814 0.979602C14.184 0.957427 14.1984 0.937862 14.2192 0.928731C14.2401 0.9196 16.3585 0 20.1151 0C23.8731 0 25.7475 0.9196 25.7658 0.930035C25.7853 0.94047 25.7984 0.958732 25.801 0.980906C25.8036 0.999168 26.0084 2.8762 24.7262 4.32016C23.7361 5.43542 22.1421 6.00153 19.9912 6.00153ZM14.3066 1.03439L14.2584 1.40092C14.2584 1.41005 14.2479 3.06011 15.5067 4.34103C16.5032 5.35455 18.0085 5.86979 19.9782 5.87239H19.9925C22.1043 5.87239 23.6657 5.32063 24.6309 4.23407C25.7788 2.94272 25.6979 1.29396 25.6771 1.03308C25.4162 0.913078 23.5731 0.133049 20.1164 0.133049C16.6454 0.131744 14.5884 0.918295 14.3066 1.03439Z" fill="#E6E7E8"/>
<path d="M33.9892 3.94068C32.5478 2.88673 28.4768 1.95408 26.5789 1.43624C26.1133 1.30971 25.7532 0.992744 25.7532 0.988831C25.5406 2.40932 24.8676 3.58197 23.6845 4.47157C22.6996 5.21116 18.5843 6.26642 16.3133 4.47157C15.1524 3.55327 14.4572 2.40932 14.2445 0.988831C14.2445 0.992744 13.8845 1.30971 13.4189 1.43624C11.521 1.95278 7.45125 2.88673 6.00989 3.94068C3.51197 5.76814 1.52407 11.2962 0.0644531 14.3693C0.991879 15.315 3.55502 17.5925 7.02471 17.9329L8.38259 13.9284C8.38259 13.9284 8.40346 33.6953 8.39433 36.8806H8.40346C8.40346 37.3137 13.5976 37.6646 20.0048 37.6646C26.412 37.6646 31.6061 37.3137 31.6061 36.8806C31.6061 36.878 31.6048 36.8754 31.6048 36.8728C31.5956 33.6653 31.6165 13.9271 31.6165 13.9271L32.9744 17.9316C36.4441 17.5912 39.0072 15.3137 39.9333 14.368C38.475 11.2962 36.4871 5.76684 33.9892 3.94068Z" fill="url(#paint1_linear_1_688)"/>
<path d="M19.9998 15.8L19.9998 22.2M23.1998 19L16.7998 19" stroke="#795DE0" stroke-linecap="round"/>
<path d="M20.0052 37.731C16.9047 37.731 13.9893 37.6488 11.7967 37.5014C8.6361 37.2875 8.36348 37.0357 8.34 36.9131C8.33348 36.904 8.32956 36.8922 8.32956 36.8818C8.33739 33.9821 8.32043 17.128 8.31782 14.3236L7.08647 17.955C7.07734 17.9837 7.04865 18.0007 7.01864 17.9994C3.53591 17.6576 0.963635 15.3801 0.0192521 14.4162C-0.000313807 14.3966 -0.00553119 14.3666 0.00620838 14.3431C0.304915 13.7157 0.625797 12.9813 0.967549 12.2039C2.30586 9.15163 3.97157 5.35323 5.97252 3.8897C7.19865 2.99357 10.3109 2.18354 12.3706 1.64744C12.7554 1.547 13.1063 1.45569 13.4024 1.37482C13.8432 1.25481 14.1759 0.965238 14.1967 0.946977C14.2085 0.933933 14.2241 0.926106 14.2437 0.924802C14.2789 0.923497 14.305 0.948281 14.3102 0.980891C14.5189 2.37399 15.1881 3.49838 16.3555 4.42189C17.1616 5.05974 18.3069 5.39627 19.6661 5.39627C21.4948 5.39627 23.1227 4.81451 23.6458 4.42058C24.7884 3.56229 25.4759 2.40529 25.6898 0.980891C25.695 0.948281 25.725 0.922193 25.7563 0.924802C25.7746 0.924802 25.7915 0.933933 25.8033 0.946977C25.8241 0.965238 26.1568 1.25481 26.5976 1.37482C26.895 1.45569 27.2446 1.547 27.6294 1.64744C29.6891 2.18354 32.8027 2.99357 34.0275 3.8897C36.0284 5.35323 37.6941 9.15163 39.0325 12.2039C39.3729 12.9813 39.6951 13.7157 39.9938 14.3431C40.0055 14.3679 40.0003 14.3979 39.9808 14.4162C39.0364 15.3801 36.4628 17.6576 32.9814 17.9994C32.9487 18.0007 32.9227 17.9837 32.9135 17.955L31.6822 14.3236C31.6796 17.1241 31.6626 33.9326 31.6704 36.8688C31.6717 36.874 31.6717 36.8792 31.6717 36.8818C31.6717 36.9875 31.6717 37.2679 28.2125 37.5014C26.0211 37.6488 23.1058 37.731 20.0052 37.731ZM8.46 36.8518C8.46522 36.8609 8.46913 36.8701 8.46913 36.8805C8.58001 37.1805 12.651 37.5992 20.0052 37.5992C27.3346 37.5992 31.403 37.1831 31.54 36.8805V36.8792C31.5309 33.7017 31.5517 14.1253 31.5517 13.927C31.5517 13.8957 31.5752 13.8683 31.6065 13.8631C31.6378 13.8566 31.6691 13.8762 31.6783 13.9062L33.0192 17.8624C36.395 17.5115 38.9007 15.3214 39.8555 14.3549C39.562 13.7353 39.2464 13.0153 38.9124 12.2535C37.5807 9.21555 35.9228 5.4341 33.9505 3.99144C32.7453 3.10967 29.646 2.30355 27.5955 1.77005C27.2094 1.66961 26.8585 1.5783 26.5611 1.49743C26.2624 1.41656 25.9572 1.23655 25.7993 1.11133C25.5619 2.51747 24.8628 3.66404 23.7227 4.52102C23.081 5.00235 21.3474 5.5228 19.6648 5.5228C18.2756 5.5228 17.1029 5.17583 16.2733 4.51972C15.1111 3.60142 14.4315 2.48486 14.198 1.11133C14.0402 1.23655 13.735 1.41526 13.4363 1.49743C13.1389 1.5783 12.788 1.66961 12.4019 1.77005C10.3514 2.30355 7.25344 3.10967 6.04687 3.99144C4.07462 5.4341 2.41673 9.21555 1.08494 12.2522C0.751019 13.014 0.435355 13.734 0.141866 14.3549C1.09668 15.3214 3.60243 17.5102 6.97821 17.8624L8.31913 13.9062C8.32956 13.8762 8.35956 13.8566 8.39087 13.8631C8.42218 13.8683 8.44565 13.8957 8.44565 13.927C8.44826 14.1253 8.46913 33.6117 8.46 36.8518Z" fill="#E6E7E8"/>
<path d="M8.3826 13.9937C8.34608 13.9937 8.31738 13.965 8.31738 13.9285C8.31738 10.0831 8.65783 6.40601 8.66044 6.36949C8.66435 6.33427 8.69566 6.30818 8.73088 6.31079C8.7674 6.3147 8.79349 6.34601 8.78957 6.38253C8.78566 6.41905 8.44652 10.0896 8.44652 13.9298C8.44782 13.965 8.41782 13.9937 8.3826 13.9937Z" fill="#D2D3D5"/>
<path d="M31.6167 13.9937C31.5801 13.9937 31.5514 13.965 31.5514 13.9285C31.5514 10.0896 31.2123 6.41777 31.2084 6.38125C31.2045 6.34472 31.2319 6.31342 31.2671 6.30951C31.3023 6.3069 31.3349 6.33298 31.3375 6.3682C31.3414 6.40473 31.6806 10.0818 31.6806 13.9272C31.6819 13.965 31.6532 13.9937 31.6167 13.9937Z" fill="#D2D3D5"/>
<path opacity="0.4" d="M33.9892 3.94062C32.5478 2.88667 28.4768 1.95402 26.5789 1.43618C26.1133 1.30965 25.7532 0.992683 25.7532 0.98877C25.5406 2.40926 24.8676 3.58191 23.6845 4.47151C22.6996 5.2111 18.5843 6.26636 16.3133 4.47151C15.1524 3.55321 14.4572 2.40926 14.2445 0.98877C14.2445 0.992683 13.8845 1.30965 13.4189 1.43618C11.521 1.95272 7.45125 2.88667 6.00989 3.94062C3.51197 5.76808 1.52407 11.2961 0.0644531 14.3693C0.991879 15.315 3.55502 17.5924 7.02471 17.9329L8.38259 13.9284C8.38259 13.9284 8.40346 33.6952 8.39433 36.8806H8.40346C8.40346 37.3136 13.5976 37.6645 20.0048 37.6645C26.412 37.6645 31.6061 37.3136 31.6061 36.8806C31.6061 36.8779 31.6048 36.8753 31.6048 36.8727C31.5956 33.6652 31.6165 13.9271 31.6165 13.9271L32.9744 17.9316C36.4441 17.5911 39.0072 15.3137 39.9333 14.368C38.475 11.2961 36.4871 5.76677 33.9892 3.94062ZM35.0053 16.4237L31.1104 5.50981C31.1104 5.50981 30.8756 20.6839 30.7008 23.684C30.5273 26.6841 29.4395 35.4235 24.4397 36.1631C24.4397 36.1631 23.1405 36.5388 19.8117 36.4866C17.4573 36.5858 15.4616 36.1631 15.4616 36.1631C10.4618 35.4235 9.37393 26.6841 9.20045 23.684C9.02696 20.6839 8.79087 5.50981 8.79087 5.50981L4.89594 16.4237C3.20022 15.9893 0.809264 13.5971 0.809264 13.5971C0.809264 13.5971 4.24374 5.8933 5.76597 4.63978C7.2882 3.38755 12.5488 2.07403 12.5488 2.07403C12.5488 2.07403 12.9571 6.15157 19.9513 6.30679C26.9455 6.15157 27.3537 2.07403 27.3537 2.07403C27.3537 2.07403 32.6144 3.38755 34.1366 4.63978C35.6588 5.892 39.0933 13.5971 39.0933 13.5971C39.0933 13.5971 36.701 15.9893 35.0053 16.4237Z" fill="#E0E1E3"/>
<path d="M19.3849 5.92838C19.3849 5.92838 25.7751 6.33796 26.7704 1.48821C26.7052 1.47125 26.6412 1.45299 26.5799 1.43734C26.1143 1.31081 25.7542 0.993842 25.7542 0.989929C25.5416 2.41042 24.8686 3.58307 23.6855 4.47267C22.7007 5.21226 18.5853 6.26752 16.3143 4.47267C15.1534 3.55437 14.4582 2.41042 14.2456 0.989929C14.2456 0.993842 13.8855 1.31081 13.4199 1.43734C13.3703 1.45038 13.3181 1.46473 13.2646 1.47908C13.7995 3.17871 15.2852 5.79663 19.3849 5.92838Z" fill="url(#paint2_linear_1_688)"/>
<path d="M19.75 6.0015C19.5191 6.0015 19.3861 5.99367 19.3809 5.99237C15.1911 5.85801 13.712 3.11748 13.2032 1.49611C13.198 1.47915 13.1993 1.46089 13.2085 1.44524C13.2163 1.42959 13.2319 1.41785 13.2489 1.41393L13.4041 1.37219C13.845 1.25219 14.1789 0.962613 14.1985 0.944352C14.2102 0.931308 14.2259 0.923481 14.2455 0.922177C14.2807 0.920873 14.3068 0.945656 14.312 0.978266C14.5207 2.37136 15.1898 3.49575 16.3573 4.41926C17.1634 5.05712 18.3087 5.39365 19.6678 5.39365C21.4966 5.39365 23.1245 4.81189 23.6476 4.41796C24.7902 3.55967 25.4776 2.40267 25.6915 0.978266C25.6968 0.945656 25.7268 0.919568 25.7581 0.922177C25.7763 0.922177 25.7933 0.931308 25.805 0.944352C25.8259 0.962613 26.1585 1.25219 26.5994 1.37219L26.7898 1.42307C26.8225 1.4322 26.8433 1.46611 26.8368 1.49872C25.9772 5.6767 21.1953 6.0015 19.75 6.0015ZM13.348 1.5235C13.8646 3.11878 15.3307 5.73279 19.3861 5.86323C19.39 5.86323 19.523 5.87236 19.7487 5.87236C21.1627 5.87236 25.822 5.558 26.6933 1.53524L26.5616 1.50002C26.2629 1.41915 25.9576 1.23915 25.7998 1.11392C25.5624 2.52006 24.8632 3.66663 23.7232 4.52362C23.0814 5.00494 21.3479 5.52539 19.6652 5.52539C18.276 5.52539 17.1034 5.17842 16.2738 4.52231C15.1116 3.60402 14.432 2.48745 14.1985 1.11392C14.0407 1.23915 13.7341 1.41785 13.4367 1.50002L13.348 1.5235Z" fill="#E6E7E8"/>
<defs>
<linearGradient id="paint0_linear_1_688" x1="19.9732" y1="-4.37206" x2="19.9732" y2="6.33674" gradientUnits="userSpaceOnUse">
<stop stop-color="#E6E7E8"/>
<stop offset="0.1071" stop-color="#F0F0F1"/>
<stop offset="0.3037" stop-color="#FBFBFB"/>
<stop offset="0.5094" stop-color="white"/>
<stop offset="0.6987" stop-color="#FCFCFC"/>
<stop offset="0.8327" stop-color="#F3F3F4"/>
<stop offset="0.9493" stop-color="#E3E4E5"/>
<stop offset="1" stop-color="#DADBDC"/>
</linearGradient>
<linearGradient id="paint1_linear_1_688" x1="19.9997" y1="4.37974" x2="19.9997" y2="50.3547" gradientUnits="userSpaceOnUse">
<stop offset="0.5094" stop-color="white"/>
<stop offset="0.6987" stop-color="#FCFCFC"/>
<stop offset="0.8327" stop-color="#F3F3F4"/>
<stop offset="0.9493" stop-color="#E3E4E5"/>
<stop offset="1" stop-color="#DADBDC"/>
</linearGradient>
<linearGradient id="paint2_linear_1_688" x1="20.0185" y1="-0.719848" x2="20.0185" y2="17.2357" gradientUnits="userSpaceOnUse">
<stop stop-color="#E6E7E8"/>
<stop offset="0.1071" stop-color="#F0F0F1"/>
<stop offset="0.3037" stop-color="#FBFBFB"/>
<stop offset="0.5094" stop-color="white"/>
<stop offset="0.6987" stop-color="#FCFCFC"/>
<stop offset="0.8327" stop-color="#F3F3F4"/>
<stop offset="0.9493" stop-color="#E3E4E5"/>
<stop offset="1" stop-color="#DADBDC"/>
</linearGradient>
</defs>
</svg>
